<svg id="ba3db7fa-156c-4424-b649-f478c8e91063" data-name="圖層 2" xmlns="http://www.w3.org/2000/svg" viewBox="0 0 202.87 187.83"><defs><style>.eee08aa0-22c1-4d48-9b48-698ef02baedb{opacity:0.63;}.bea2a5e0-4740-4460-8aa7-ce51aa20bbde{fill:none;stroke:#ef7b1f;stroke-linejoin:round;stroke-width:2px;}.a435a961-7a8d-48b0-8804-575067184830{fill:#b16b20;}</style></defs><title>ab1</title><g class="eee08aa0-22c1-4d48-9b48-698ef02baedb"><circle class="bea2a5e0-4740-4460-8aa7-ce51aa20bbde" cx="101.43" cy="57.62" r="56.61"/></g><g class="eee08aa0-22c1-4d48-9b48-698ef02baedb"><circle class="bea2a5e0-4740-4460-8aa7-ce51aa20bbde" cx="57.61" cy="130.21" r="56.61"/></g><g class="eee08aa0-22c1-4d48-9b48-698ef02baedb"><circle class="bea2a5e0-4740-4460-8aa7-ce51aa20bbde" cx="344.25" cy="364.8" r="56.61" transform="translate(-356.13 115.69) rotate(-45)"/></g><path class="a435a961-7a8d-48b0-8804-575067184830" d="M287,284.29l-1.75.31V286a1.23,1.23,0,0,1-.25.85,1,1,0,0,1-.82.24h-.74c-.35,0-.52-.15-.52-.46s.17-.47.52-.47h.43a.45.45,0,0,0,.5-.49v-.94l-2.19.34a.3.3,0,0,1-.31-.1.57.57,0,0,1-.11-.36c0-.26.25-.42.75-.49l1.86-.24a2.82,2.82,0,0,1,.07-.79,1.47,1.47,0,0,1,.44-.41c.28-.2.52-.38.69-.52s.05-.05.05-.08,0-.06-.1-.06h-1.72c-.53.44-.93.76-1.21,1a1.33,1.33,0,0,1-.57.29c-.26,0-.39-.15-.39-.44s.19-.39.57-.65l.45-.3a.48.48,0,0,1-.1-.26c0-.28.15-.41.44-.41h.53l1-.88h-2.35q-.48,0-.48-.42c0-.27.16-.41.48-.41H284v-1.18h-1.34c-.31,0-.47-.14-.47-.42s.16-.42.47-.42H284v-.66c0-.36.15-.55.44-.55s.44.19.44.55v.66h.91q.48,0,.48.42t-.48.42h-.91v1.18h.46a12,12,0,0,0,1.39-1.93q.36-.63.63-.63c.3,0,.45.14.45.41a6.35,6.35,0,0,1-1.44,2.15h.42c.32,0,.47.14.47.41s-.15.42-.47.42h-1.18l-.81.88h1.55q.6,0,.6.48c0,.19-.48.66-1.43,1.4a.54.54,0,0,0-.21.42v.2a5.21,5.21,0,0,0,.7-.14l.84-.16.35-.06a.28.28,0,0,1,.29.09.57.57,0,0,1,.11.36C287.56,284.06,287.38,284.21,287,284.29Zm5.47,1.93a.42.42,0,0,1,.11.29.53.53,0,0,1-.2.42.46.46,0,0,1-.28.15,2.51,2.51,0,0,1-1.12-.6,8.37,8.37,0,0,1-1.3-1.14,8.85,8.85,0,0,1-1.63,1.27,2.7,2.7,0,0,1-1.21.5.49.49,0,0,1-.36-.11.51.51,0,0,1-.12-.38c0-.23.15-.41.46-.54a6,6,0,0,0,2.3-1.52,6.2,6.2,0,0,1-.68-1.75,14,14,0,0,1-.39-2.41c-.36.69-.63,1-.83,1a.52.52,0,0,1-.35-.1.51.51,0,0,1-.11-.35.7.7,0,0,1,.17-.39,9.68,9.68,0,0,0,1-1.81,12.72,12.72,0,0,0,.68-2q.12-.48.48-.48.57,0,.57.42a6.54,6.54,0,0,1-.71,1.91h3.17c.32,0,.47.17.47.5a.42.42,0,0,1-.47.48h-.49a17.56,17.56,0,0,1-.38,2.93,5.74,5.74,0,0,1-1,2.11,6.65,6.65,0,0,0,1.88,1.36A.88.88,0,0,1,292.49,286.22Zm-1.81-6.64h-1.82a10.6,10.6,0,0,0,.85,4.23A8.46,8.46,0,0,0,290.68,279.58Z" transform="translate(-199.01 -234.59)"/><path class="a435a961-7a8d-48b0-8804-575067184830" d="M304.81,280.63l-.45-.38-8.39.38c-.35,0-.52-.14-.52-.48s.18-.43.55-.43h1.76l.5-.73.5-.86h-2.95q-.54,0-.54-.45c0-.29.18-.43.54-.43h4.25v-.5a.53.53,0,0,1,1.06,0v.5h4.32c.36,0,.54.14.54.43s-.18.45-.54.45h-5.5a12.57,12.57,0,0,1-1.16,1.57l4.15-.12.18,0h.26c-.46-.3-.72-.47-.8-.51-.31-.15-.46-.28-.46-.41s.13-.34.4-.34a2.24,2.24,0,0,1,.9.39l1.16.73a7.75,7.75,0,0,1,.93.66c.23.2.34.35.34.44a.44.44,0,0,1-.12.34.49.49,0,0,1-.35.11A1,1,0,0,1,304.81,280.63Zm-8.34,6v-4.5a1.16,1.16,0,0,1,.24-.8,1.08,1.08,0,0,1,.8-.25h6.24q1.17,0,1.08,1v3.75c.07.89-.36,1.31-1.27,1.25h-1c-.39,0-.59-.16-.59-.49s.2-.51.59-.51h.88c.26,0,.4-.15.42-.47v-.54h-6.36v1.51c0,.36-.16.54-.5.54S296.47,287,296.47,286.65Zm7.36-4.26a.39.39,0,0,0-.42-.43H297.9c-.27,0-.41.14-.43.43v.34h6.36Zm0,1.93v-.78h-6.36v.78Z" transform="translate(-199.01 -234.59)"/><path class="a435a961-7a8d-48b0-8804-575067184830" d="M308.67,281.11c0-.29.18-.43.53-.43h1c-.06-.61-.15-1.3-.28-2.09h-.56c-.3,0-.45-.14-.45-.43s.15-.43.45-.43h2.08v-.85c0-.41.17-.61.49-.61s.51.2.51.61v.85h2.07c.3,0,.44.14.44.43s-.14.43-.44.43h-.65l0,.16c0,.08,0,.2-.05.36-.09.66-.18,1.18-.26,1.57h1c.35,0,.53.14.53.43s-.18.43-.53.43H309.2C308.85,281.54,308.67,281.4,308.67,281.11Zm1,5.26a1,1,0,0,1-.23-.81v-2c-.07-.76.29-1.12,1.07-1.08h2.88a1.21,1.21,0,0,1,.86.26,1,1,0,0,1,.22.82v2a1.1,1.1,0,0,1-.26.83,1,1,0,0,1-.82.23h-2.88A1.16,1.16,0,0,1,309.67,286.37Zm3.74-.72a.53.53,0,0,0,.1-.36v-1.46c0-.31-.15-.47-.45-.47h-2.23a.42.42,0,0,0-.47.47v1.46a.42.42,0,0,0,.47.47h2.23A.51.51,0,0,0,313.41,285.65Zm-.45-7.06h-2.15l0,.15c.14.82.23,1.47.26,1.94h1.57A19.84,19.84,0,0,0,313,278.59Zm2.46,8v-8.7a1.16,1.16,0,0,1,.25-.84,1,1,0,0,1,.82-.22h1.94c.7,0,1.05.24,1.05.73a4.84,4.84,0,0,1-.38,1.09c-.31.72-.54,1.21-.68,1.46a2.09,2.09,0,0,0-.32.75c0,.12.12.27.34.44a1.87,1.87,0,0,1,.32.35c.11.16.25.37.41.65a2.82,2.82,0,0,1,.43,1.49c0,1.37-.72,2-2.16,2a.49.49,0,0,1-.55-.55c0-.28.22-.45.66-.5l.43-.07a.9.9,0,0,0,.27-.1,1,1,0,0,0,.36-.92,2.55,2.55,0,0,0-.43-1.38,8.51,8.51,0,0,0-.75-.83.74.74,0,0,1-.26-.51,2.25,2.25,0,0,1,.27-.75c.22-.43.42-.86.6-1.3a3.47,3.47,0,0,0,.33-1c0-.13-.1-.19-.29-.19h-1.2a.43.43,0,0,0-.49.48v8.38c0,.39-.16.58-.48.58S315.42,287,315.42,286.59Z" transform="translate(-199.01 -234.59)"/><path class="a435a961-7a8d-48b0-8804-575067184830" d="M282.41,301.47a1.32,1.32,0,0,1-.28-1v-7.9a1.05,1.05,0,0,1,1.23-1.24h7.55a1.32,1.32,0,0,1,.95.29,1.33,1.33,0,0,1,.29.95v7.9a1.27,1.27,0,0,1-.3,1,1.31,1.31,0,0,1-.94.29h-7.55A1.33,1.33,0,0,1,282.41,301.47Zm8.79-1.22v-7.37a.56.56,0,0,0-.64-.63h-6.85a.56.56,0,0,0-.64.63v7.37a.56.56,0,0,0,.64.63h6.85A.56.56,0,0,0,291.2,300.25Zm-7.8-.58a.54.54,0,0,1-.09-.35.35.35,0,0,1,.17-.33,3.74,3.74,0,0,1,1-.22,4.15,4.15,0,0,0,.6-.1l.48-.1.6-.13.56-.12.28-.06a.22.22,0,0,1,.25.07.51.51,0,0,1,.08.3.31.31,0,0,1-.07.21.29.29,0,0,1-.19.11l-.18.06-.64.19a2.42,2.42,0,0,1-.42.11l-.44.11-.61.13c-.67.15-1,.23-1.11.23A.37.37,0,0,1,283.4,299.67Zm2.75.43a.44.44,0,0,1,.16-.27,1.61,1.61,0,0,1,.38-.27,4.49,4.49,0,0,0,1.43-1.09,11.26,11.26,0,0,1-.73-3.81h-3.5a.76.76,0,0,1-.41-.09.48.48,0,0,1,0-.66.61.61,0,0,1,.41-.11h3.44v-.64c0-.36.15-.54.44-.54a.38.38,0,0,1,.33.17.9.9,0,0,1,.1.48v.53h2.13a.58.58,0,0,1,.4.11.48.48,0,0,1,0,.66.72.72,0,0,1-.4.09h-2.08a13.06,13.06,0,0,0,.14,1.81,4.49,4.49,0,0,0,.33,1.13,11.53,11.53,0,0,0,.79-1.82c.1-.28.24-.42.43-.42a.61.61,0,0,1,.37.09.35.35,0,0,1,.12.3,4.94,4.94,0,0,1-.43,1.12,8.08,8.08,0,0,1-.89,1.6v0a4.48,4.48,0,0,0,.45.65c.15.17.27.26.37.26s.14-.08.21-.23a2.08,2.08,0,0,0,.15-.62.51.51,0,0,1,.11-.27.32.32,0,0,1,.24-.09c.24,0,.37.13.37.39a3,3,0,0,1-.27,1.26c-.18.43-.41.65-.69.65q-.75,0-1.5-1.26h0a4.48,4.48,0,0,1-.48.49,5.19,5.19,0,0,1-.6.41l-.58.31a.71.71,0,0,1-.3.09C286.29,300.53,286.15,300.39,286.15,300.1Zm-2.39-3v-1c0-.54.28-.81.85-.81h1.47a.9.9,0,0,1,.63.19.87.87,0,0,1,.2.62v1a.74.74,0,0,1-.83.83h-1.47A.74.74,0,0,1,283.76,297.08Zm2.33-.2v-.61a.3.3,0,0,0-.06-.22.25.25,0,0,0-.21-.07h-.94c-.19,0-.28.1-.28.29v.61c0,.19.09.29.28.29h.94C286,297.17,286.09,297.07,286.09,296.88Zm3.46-3.33a2.33,2.33,0,0,1-.27-.3.87.87,0,0,1-.24-.46.31.31,0,0,1,.11-.25.43.43,0,0,1,.29-.08c.12,0,.27.1.47.32a.92.92,0,0,1,.28.49c0,.24-.14.36-.43.36A.25.25,0,0,1,289.55,293.55Z" transform="translate(-199.01 -234.59)"/><path class="a435a961-7a8d-48b0-8804-575067184830" d="M300.52,299l-1.75.31v1.43a1.23,1.23,0,0,1-.25.85,1,1,0,0,1-.82.24H297c-.35,0-.52-.15-.52-.47s.17-.46.52-.46h.43a.45.45,0,0,0,.5-.5v-.93c-1,.14-1.7.26-2.19.34a.3.3,0,0,1-.31-.1.57.57,0,0,1-.11-.36c0-.26.25-.43.75-.49l1.86-.24a2.82,2.82,0,0,1,.07-.79,1.35,1.35,0,0,1,.44-.41c.28-.21.52-.38.69-.53s.05,0,.05-.07,0-.06-.1-.06h-1.72c-.53.44-.93.76-1.21,1a1.27,1.27,0,0,1-.57.3q-.39,0-.39-.45c0-.17.19-.39.57-.64l.45-.3a.5.5,0,0,1-.1-.27c0-.27.15-.4.44-.4H297l1-.88h-2.35q-.48,0-.48-.42t.48-.42h1.81v-1.17h-1.34c-.31,0-.47-.14-.47-.42s.16-.42.47-.42h1.34v-.66c0-.37.15-.55.44-.55s.44.18.44.55v.66h.91q.48,0,.48.42t-.48.42h-.91v1.17h.46a11.14,11.14,0,0,0,1.39-1.93c.24-.41.45-.62.63-.62s.45.14.45.41a6.26,6.26,0,0,1-1.44,2.14h.42c.32,0,.47.14.47.42s-.15.42-.47.42h-1.18l-.81.88h1.55q.6,0,.6.48c0,.19-.48.65-1.43,1.4a.54.54,0,0,0-.21.42v.2a5.21,5.21,0,0,0,.7-.14l.84-.16.35-.06a.28.28,0,0,1,.29.09.55.55,0,0,1,.11.36C301.06,298.78,300.88,298.94,300.52,299ZM306,301a.42.42,0,0,1,.11.29.53.53,0,0,1-.2.42.43.43,0,0,1-.28.14,2.45,2.45,0,0,1-1.12-.59,9.58,9.58,0,0,1-1.3-1.14,9.3,9.3,0,0,1-1.63,1.27,2.83,2.83,0,0,1-1.21.5.53.53,0,0,1-.36-.11.51.51,0,0,1-.12-.38c0-.23.15-.41.46-.54a6,6,0,0,0,2.3-1.52,6.2,6.2,0,0,1-.68-1.75,14,14,0,0,1-.39-2.41c-.36.69-.63,1-.83,1a.52.52,0,0,1-.35-.11.49.49,0,0,1-.11-.35.7.7,0,0,1,.17-.38,9.68,9.68,0,0,0,1-1.81,12.51,12.51,0,0,0,.68-2q.12-.48.48-.48.57,0,.57.42a6.66,6.66,0,0,1-.71,1.92h3.17c.32,0,.47.17.47.49a.42.42,0,0,1-.47.48h-.49a17.71,17.71,0,0,1-.38,2.94,5.74,5.74,0,0,1-1,2.11,6.45,6.45,0,0,0,1.88,1.35A.89.89,0,0,1,306,301Zm-1.81-6.65h-1.82a10.56,10.56,0,0,0,.85,4.23A8.4,8.4,0,0,0,304.18,294.3Z" transform="translate(-199.01 -234.59)"/><path class="a435a961-7a8d-48b0-8804-575067184830" d="M311.07,300.71v-1.94l-.15.05-1.17.41a6,6,0,0,1-.65.2c-.29,0-.44-.15-.44-.47s.23-.41.68-.51a21.36,21.36,0,0,0,4-1.33h-4.07c-.31,0-.47-.13-.47-.4s.16-.39.47-.39h3.63v-.83h-2.69q-.45,0-.45-.39c0-.27.15-.4.45-.4h2.69v-.66h-2.66a.84.84,0,0,1-1-.95v-.8a.83.83,0,0,1,1-.92h7.85a.82.82,0,0,1,.92.92v.8a.83.83,0,0,1-.92.95h-4.28v.66h1.9c.29,0,.44.13.44.4s-.15.39-.44.39h-1.9v.83h1.08a12.64,12.64,0,0,0,2.35-1.64.87.87,0,0,1,.61-.36c.31,0,.47.14.47.44s-.69.73-2.05,1.56h2.92c.3,0,.44.13.44.39s-.14.4-.44.4h-4.33l-1.59.77h4.28a1,1,0,0,1,.74.23.93.93,0,0,1,.21.71v1.86a1.05,1.05,0,0,1-.23.75.9.9,0,0,1-.72.2H312C311.37,301.65,311.07,301.34,311.07,300.71Zm1.14-8.56h-1.64a.33.33,0,0,0-.38.35v.42c0,.24.13.36.38.36h1.64ZM317.5,299c0-.24-.12-.36-.37-.38h-4.9c-.16,0-.24.08-.24.22v.59h5.51Zm0,1.58v-.46H312v.46a.33.33,0,0,0,.36.37h4.78A.34.34,0,0,0,317.5,300.56Zm-2.42-7.28v-1.13h-2v1.13Zm3-.36v-.42a.32.32,0,0,0-.36-.35H316v1.13h1.75A.32.32,0,0,0,318.07,292.92Z" transform="translate(-199.01 -234.59)"/><path class="a435a961-7a8d-48b0-8804-575067184830" d="M222.74,367.3a1.29,1.29,0,0,1-.29-.95v-7.9a1.32,1.32,0,0,1,.29-.95,1.28,1.28,0,0,1,.94-.29h7.55a1.27,1.27,0,0,1,1,.29,1.32,1.32,0,0,1,.29.95v7.9a1.29,1.29,0,0,1-.3.95,1.31,1.31,0,0,1-.94.28h-7.55A1.29,1.29,0,0,1,222.74,367.3Zm8.78-1.23V358.7a.55.55,0,0,0-.63-.62H224a.55.55,0,0,0-.63.62v7.37a.56.56,0,0,0,.63.64h6.86A.56.56,0,0,0,231.52,366.07Zm-7.8-.57a.54.54,0,0,1-.09-.35.35.35,0,0,1,.17-.33,3.74,3.74,0,0,1,1-.22c.17,0,.37-.05.6-.1l.48-.1.6-.14.56-.12.28-.06a.23.23,0,0,1,.25.08.45.45,0,0,1,.08.3.31.31,0,0,1-.07.21.33.33,0,0,1-.19.11l-.18.06-.63.19-.42.11-.45.11-.61.13c-.67.15-1,.23-1.11.23A.37.37,0,0,1,223.72,365.5Zm2.76.43a.41.41,0,0,1,.15-.27,1.84,1.84,0,0,1,.38-.27,4.64,4.64,0,0,0,1.43-1.09,11.51,11.51,0,0,1-.73-3.81h-3.5a.67.67,0,0,1-.41-.1.36.36,0,0,1-.13-.32.42.42,0,0,1,.13-.34.67.67,0,0,1,.41-.1h3.44V359c0-.36.15-.54.44-.54a.37.37,0,0,1,.33.17.9.9,0,0,1,.1.48v.53h2.13a.62.62,0,0,1,.4.1.43.43,0,0,1,.14.34.36.36,0,0,1-.14.32.62.62,0,0,1-.4.1h-2.08a13.2,13.2,0,0,0,.14,1.81,4.62,4.62,0,0,0,.33,1.13,10.84,10.84,0,0,0,.79-1.83c.1-.28.24-.42.43-.42a.61.61,0,0,1,.37.09.37.37,0,0,1,.12.31,5,5,0,0,1-.43,1.11,8.47,8.47,0,0,1-.88,1.61h0a3.76,3.76,0,0,0,.45.66c.14.17.26.25.36.25s.14-.07.21-.22a2.16,2.16,0,0,0,.15-.63.48.48,0,0,1,.11-.26.3.3,0,0,1,.24-.1c.25,0,.37.13.37.4a3.19,3.19,0,0,1-.26,1.26c-.19.43-.42.64-.7.64-.49,0-1-.42-1.5-1.25h0a4.48,4.48,0,0,1-.48.49,5.2,5.2,0,0,1-.6.4c-.27.16-.46.26-.58.32a.71.71,0,0,1-.3.09C226.61,366.36,226.48,366.22,226.48,365.93Zm-2.4-3v-1a.74.74,0,0,1,.85-.82h1.47a.9.9,0,0,1,.63.2.85.85,0,0,1,.2.62v1a.74.74,0,0,1-.83.83h-1.47A.74.74,0,0,1,224.08,362.91Zm2.34-.2v-.61a.35.35,0,0,0-.06-.23.32.32,0,0,0-.22-.06h-.94c-.19,0-.28.09-.28.29v.61a.24.24,0,0,0,.28.28h.94A.25.25,0,0,0,226.42,362.71Zm3.45-3.33a2,2,0,0,1-.27-.31.85.85,0,0,1-.24-.45.3.3,0,0,1,.11-.25.44.44,0,0,1,.29-.09c.12,0,.27.11.47.33a.89.89,0,0,1,.28.49c0,.24-.14.36-.43.36A.29.29,0,0,1,229.87,359.38Z" transform="translate(-199.01 -234.59)"/><path class="a435a961-7a8d-48b0-8804-575067184830" d="M246.38,366.6q0,.48-.6.48h-9.64q-.6,0-.6-.48a.43.43,0,0,1,.14-.36.72.72,0,0,1,.46-.12h5.79c.57-1.85,1-3.41,1.25-4.67a3.24,3.24,0,0,1,.25-.89.54.54,0,0,1,.46-.23c.4,0,.6.18.6.52a17.47,17.47,0,0,1-.69,2.6l-.86,2.67h2.84Q246.38,366.12,246.38,366.6Zm-10.25-7.05a.44.44,0,0,1-.15-.37.42.42,0,0,1,.15-.36.76.76,0,0,1,.47-.12h3.77v-1.25c0-.4.18-.59.53-.59a.49.49,0,0,1,.38.14.71.71,0,0,1,.12.45v1.25h3.91a.72.72,0,0,1,.46.12.42.42,0,0,1,.15.36.44.44,0,0,1-.15.37.8.8,0,0,1-.46.11H236.6A.83.83,0,0,1,236.13,359.55Zm2.14,1.45a26.3,26.3,0,0,1,1.07,3.92c0,.36-.18.53-.55.53s-.52-.29-.64-.89-.22-1.05-.32-1.48c-.05-.19-.13-.46-.24-.83l-.11-.37a1.09,1.09,0,0,0,0-.17l-.06-.19a2.26,2.26,0,0,1-.1-.41c0-.29.17-.44.52-.44A.5.5,0,0,1,238.27,361Z" transform="translate(-199.01 -234.59)"/><path class="a435a961-7a8d-48b0-8804-575067184830" d="M249.06,357.8c0-.24.14-.35.41-.35H254v-.27a.41.41,0,0,1,.12-.32.54.54,0,0,1,.35-.1q.48,0,.48.42v.27h4.54c.28,0,.42.11.42.35s-.14.36-.42.36H254.9v.44h3.82c.28,0,.41.11.41.34s-.13.35-.41.35H250.2c-.28,0-.42-.12-.42-.35s.14-.34.42-.34H254v-.44h-4.48C249.2,358.16,249.06,358,249.06,357.8Zm10.78,9.3c0,.25-.15.38-.44.38h-9.88c-.29,0-.43-.13-.43-.38s.14-.37.43-.37H254v-.54h-3.65q-.39,0-.39-.36c0-.23.13-.34.39-.34H254V365h-.63l-3.08.08c-.27,0-.4-.12-.4-.39s.13-.37.39-.4h1.95l.38-.68h-1.84c-.25,0-.38-.11-.38-.34s.13-.35.38-.35h7.42c.26,0,.38.12.38.35s-.12.34-.38.34h-1.25c.18.06.56.23,1.16.51s1.09.61,1.09.81a.39.39,0,0,1-.44.43,1.78,1.78,0,0,1-.56-.31l-.29-.2-3,.11v.58h3.69c.27,0,.4.11.4.34s-.13.36-.4.36H254.9v.54h4.5C259.69,366.73,259.84,366.86,259.84,367.1Zm-1-3.7v-.61c0-.22-.12-.32-.35-.32H250.4a.34.34,0,0,0-.26.09.3.3,0,0,0-.09.23v.61a.41.41,0,0,1-.46.47.42.42,0,0,1-.47-.47v-.71a1,1,0,0,1,.23-.71.89.89,0,0,1,.7-.2h8.82a1,1,0,0,1,.72.23.82.82,0,0,1,.2.68v.71a.47.47,0,1,1-.93,0ZM250,360.73v-.4a.62.62,0,0,1,.19-.48.77.77,0,0,1,.54-.16h7.44c.51,0,.76.22.76.67v.39c0,.44-.25.66-.73.66h-7.45C250.25,361.41,250,361.18,250,360.73Zm1-.35a.25.25,0,0,0-.05.17.26.26,0,0,0,.05.17.22.22,0,0,0,.16,0h6.67c.08,0,.14,0,.16,0a.26.26,0,0,0,.05-.17.26.26,0,0,0-.05-.18.2.2,0,0,0-.16-.05h-6.67A.18.18,0,0,0,251,360.38Zm5.94,3.86-.15-.07c-.32-.15-.48-.28-.48-.41a.21.21,0,0,1,.13-.2h-2.89l-.14.18-.35.5Z" transform="translate(-199.01 -234.59)"/><path class="a435a961-7a8d-48b0-8804-575067184830" d="M263.08,361.17c-.34-.2-.52-.38-.52-.55a.46.46,0,0,1,.52-.5.93.93,0,0,1,.38.13l.26.1c.37.13.56.34.56.62a.44.44,0,0,1-.49.5A1.82,1.82,0,0,1,263.08,361.17Zm-.46,5.74a1.17,1.17,0,0,1,.1-.32,20.9,20.9,0,0,0,1-3c.09-.32.26-.47.5-.47a.44.44,0,0,1,.5.5,10.73,10.73,0,0,1-.54,1.92,15,15,0,0,1-.63,1.74.46.46,0,0,1-.42.21A.48.48,0,0,1,262.62,366.91Zm.69-8.79c-.35-.21-.53-.4-.53-.56,0-.33.18-.5.53-.5a1.62,1.62,0,0,1,.33.11,2.07,2.07,0,0,1,.6.33.5.5,0,0,1,.22.39c0,.33-.16.5-.48.5A1.61,1.61,0,0,1,263.31,358.12Zm2.41,4.15v-1.91l-1,.09a.33.33,0,0,1-.27-.08.39.39,0,0,1-.09-.28c0-.23.25-.34.73-.34l.36-.48-.57-.47-.32-.27a.24.24,0,0,1-.09-.16c0-.25.11-.37.32-.37a.48.48,0,0,1,.23.08c.14-.22.31-.54.53-1,.09-.18.2-.27.32-.27s.37.1.37.32a3.38,3.38,0,0,1-.74,1.25l.36.31.56-.85c.16-.24.3-.35.42-.35s.36.11.36.35-.44.85-1.33,1.82l.79-.05a.9.9,0,0,1-.13-.35c0-.17.11-.25.33-.25s.26.16.44.48a2.45,2.45,0,0,1,.31.68.3.3,0,0,1-.09.24.36.36,0,0,1-.26.09c-.15,0-.28-.11-.38-.34l-.47.06v2q0,.39-.33.39T265.72,362.27Zm-1.23-.15,0-.2.2-.8a1,1,0,0,1,.14-.33.27.27,0,0,1,.22-.11q.33,0,.33.3a5,5,0,0,1-.21,1.13.36.36,0,0,1-.36.32C264.61,362.43,264.49,362.33,264.49,362.12Zm5.72,5.15c0-.3.19-.45.56-.45l.72,0c.53,0,.79-.17.79-.6,0-.09,0-.13-.16-.13h-6.34c-.51,0-.76-.2-.76-.61a3.89,3.89,0,0,1,.19-.86.72.72,0,0,1,.75-.54h5.81a.18.18,0,0,0,.15-.06.41.41,0,0,0,0-.22.37.37,0,0,0,0-.21.21.21,0,0,0-.15-.06H265.5q-.42,0-.42-.36t.42-.36h6.64q.78,0,.78.72v.55c0,.47-.26.7-.78.7h-5.9c-.16,0-.25.15-.25.44,0,.09.07.14.19.14h6.33q.78,0,.78.63a1.72,1.72,0,0,1-.42,1.33,3.6,3.6,0,0,1-2.13.39C270.39,367.73,270.21,367.58,270.21,367.27Zm-3.39-5.5-.11-.43,0-.25,0-.16a.17.17,0,0,1,.06-.2.5.5,0,0,1,.29-.07q.21,0,.39.54l.18.72a.31.31,0,0,1-.35.34C267,362.26,266.9,362.1,266.82,361.77Zm.55-3.5c0-.2.11-.3.32-.3h2.17c.23,0,.34.1.34.3s-.11.29-.34.29h-2.17C267.48,358.56,267.37,358.46,267.37,358.27Zm.28,3.67v-.61a.53.53,0,0,1,.16-.43.75.75,0,0,1,.5-.15h1.06a.74.74,0,0,1,.49.15.56.56,0,0,1,.18.43v.61a.5.5,0,0,1-.18.42.74.74,0,0,1-.49.15h-1C267.89,362.51,267.66,362.32,267.65,361.94Zm0-4.64a.29.29,0,0,1,.08-.21A.36.36,0,0,1,268,357h1.7c.23,0,.34.1.34.3a.26.26,0,0,1-.3.29H268C267.77,357.6,267.66,357.5,267.66,357.3Zm0,1.89c0-.19.1-.28.31-.28h1.73c.21,0,.32.09.32.28a.26.26,0,0,1-.29.3H268C267.77,359.49,267.66,359.39,267.66,359.19Zm0,.94c0-.19.1-.29.31-.29h1.73c.21,0,.32.1.32.29a.26.26,0,0,1-.29.29H268C267.77,360.42,267.66,360.32,267.66,360.13Zm1.74,1.67v-.33c0-.09-.07-.13-.21-.13h-.69c-.12,0-.18,0-.18.13v.33c0,.08.06.13.18.13h.69C269.31,361.93,269.38,361.88,269.4,361.8Zm2.09.47v-1.91l-1,.09a.32.32,0,0,1-.26-.08.39.39,0,0,1-.09-.28c0-.23.24-.34.74-.34l.37-.47-.66-.53a3.34,3.34,0,0,1-.29-.24.29.29,0,0,1-.08-.17c0-.24.11-.36.32-.36a.37.37,0,0,1,.22.08l.54-1a.34.34,0,0,1,.3-.2c.25,0,.37.1.37.32a4.17,4.17,0,0,1-.72,1.22l.4.35.57-.86a1.33,1.33,0,0,1,.22-.27.32.32,0,0,1,.2-.08c.24,0,.36.11.36.35s-.44.87-1.32,1.82l.88-.06a1.22,1.22,0,0,1-.12-.34c0-.17.1-.25.31-.25s.31.18.48.54l.15.32a1.26,1.26,0,0,1,.11.3.3.3,0,0,1-.09.24.32.32,0,0,1-.24.09q-.22,0-.39-.36l-.56.08v2c0,.26-.12.39-.35.39S271.49,362.53,271.49,362.27Zm-1.28-.16.23-1c.06-.29.18-.44.35-.44s.33.1.33.3a4.71,4.71,0,0,1-.2,1.13c-.06.21-.18.32-.36.32S270.21,362.32,270.21,362.11Zm2.45-.39-.17-.79a.19.19,0,0,1,.07-.2.45.45,0,0,1,.28-.07q.21,0,.39.54l.18.72c0,.23-.12.34-.36.34S272.74,362.08,272.66,361.72Z" transform="translate(-199.01 -234.59)"/><path class="a435a961-7a8d-48b0-8804-575067184830" d="M226.3,378.7v2.07a1,1,0,0,1-.24.75.85.85,0,0,1-.72.19H223.4a1,1,0,0,1-.74-.23.86.86,0,0,1-.21-.71v-6.88a1.27,1.27,0,0,1,.17-.73.67.67,0,0,1,.57-.24h.46l.18-.89c.06-.31.22-.47.46-.47s.5.14.5.42a3.37,3.37,0,0,1-.28.94h.72a1,1,0,0,1,.72.22,1,1,0,0,1,.2.75v1.77a1,1,0,0,1-.23.75,1,1,0,0,1-.73.21h-1.83v1.14h2C226,377.7,226.34,378,226.3,378.7Zm-2.94-3h1.53c.24,0,.36-.12.37-.37v-1.19a.35.35,0,0,0-.09-.27.4.4,0,0,0-.28-.1h-1.16a.34.34,0,0,0-.37.37Zm2,3.29a.36.36,0,0,0-.09-.29.52.52,0,0,0-.31-.09h-1.64v1.81a.4.4,0,0,0,.08.29.47.47,0,0,0,.29.09H225a.32.32,0,0,0,.4-.38Zm4.74-5.82v1.53h1.32a1.11,1.11,0,0,1,.81.25,1,1,0,0,1,.22.8v4q.09,1.28-1.17,1.2h-.39c-.36,0-.54-.17-.54-.5a.46.46,0,0,1,.14-.36.55.55,0,0,1,.37-.12h.21a.43.43,0,0,0,.34-.1.57.57,0,0,0,.1-.36V376a.36.36,0,0,0-.11-.28.45.45,0,0,0-.28-.11h-1V382c0,.37-.16.55-.49.55s-.47-.18-.47-.55v-6.34h-.93c-.28,0-.43.13-.44.39v4.45c0,.39-.16.58-.48.58s-.47-.19-.47-.58v-4.67a1.21,1.21,0,0,1,.24-.83,1,1,0,0,1,.79-.22h1.29V373.2h-2.07c-.32,0-.48-.14-.48-.44s.16-.44.48-.44h5.19c.32,0,.48.14.48.44a.45.45,0,0,1-.12.34.53.53,0,0,1-.36.1Z" transform="translate(-199.01 -234.59)"/><path class="a435a961-7a8d-48b0-8804-575067184830" d="M238.18,382.08V381H236c-.3,0-.45-.14-.45-.4s.15-.41.45-.41h2.21v-.51h-1.25a.78.78,0,0,1-.86-.89v-1.65a.77.77,0,0,1,.86-.88h1.25v-.49H236c-.3,0-.45-.14-.45-.41s.15-.39.45-.39h2.14v-.31a.35.35,0,0,1,.4-.4.4.4,0,0,1,.3.1.37.37,0,0,1,.11.3V375h2.09c.3,0,.45.13.45.4s-.15.4-.45.4H239v.49h1.32a.77.77,0,0,1,.86.88v1.65c0,.59-.28.89-.86.89H239v.51h2.16c.3,0,.46.14.46.41s-.16.4-.46.4H239v1.07c0,.28-.13.42-.41.42S238.18,382.36,238.18,382.08Zm-2.59-8.15a.48.48,0,0,1,.23-.37,8,8,0,0,0,1.48-1.64.74.74,0,0,1,.58-.38q.48,0,.48.36a1.37,1.37,0,0,1-.29.56h2.34c.31,0,.46.14.46.41s-.15.41-.46.41h-1.13a2,2,0,0,1,.19.68c0,.25-.14.37-.42.37s-.49-.23-.6-.7l-.1-.35h-.89c-.65.76-1.13,1.15-1.44,1.15S235.59,374.26,235.59,373.93Zm2.59,3.08h-1c-.2,0-.31.12-.31.34v.28h1.3Zm0,1.33h-1.3v.26c0,.22.11.33.31.33h1Zm2.19-1a.35.35,0,0,0-.09-.25.32.32,0,0,0-.23-.09H239v.62h1.38Zm-.08,1.49a.36.36,0,0,0,.08-.24v-.26H239v.59h1.06A.32.32,0,0,0,240.29,378.84Zm3.08-5-.17-.56h-1.07c-.48.72-.86,1.09-1.12,1.09a.4.4,0,0,1-.45-.46.67.67,0,0,1,.24-.4,5,5,0,0,0,1.08-1.65.47.47,0,0,1,.46-.32c.32,0,.49.12.49.36a1.55,1.55,0,0,1-.23.56h3.27c.31,0,.47.14.47.41s-.16.41-.47.41h-1.7l.06.13a2.09,2.09,0,0,1,.22.68c0,.29-.16.43-.48.43S243.5,374.29,243.37,373.84Zm-1.47,7.55v-5.48a.86.86,0,0,1,1-1h2.05a.85.85,0,0,1,1,1v2.51c0,.74-.62,1.11-1.85,1.11-.37,0-.55-.17-.55-.53a.41.41,0,0,1,.18-.38.92.92,0,0,1,.56-.07c.51.05.77-.15.77-.59V376.2a.35.35,0,0,0-.38-.4h-1.45a.4.4,0,0,0-.29.11.4.4,0,0,0-.1.29v4.7a.31.31,0,0,0,.28.33,9.09,9.09,0,0,0,1.21,0,1.85,1.85,0,0,0,1-.17,1.24,1.24,0,0,0,.14-.65q0-.54.48-.54a.45.45,0,0,1,.5.51,2,2,0,0,1-.34,1.36c-.22.24-1,.36-2.33.36S241.9,381.89,241.9,381.39Z" transform="translate(-199.01 -234.59)"/><path class="a435a961-7a8d-48b0-8804-575067184830" d="M249,381.8a.4.4,0,0,1,.15-.3,1.66,1.66,0,0,1,.46-.3,6.77,6.77,0,0,0,4-5.66h-3.91a.72.72,0,0,1-.46-.12.53.53,0,0,1,0-.74.8.8,0,0,1,.46-.11h4q.06-.54.06-2.37c0-.41.17-.61.5-.61a.47.47,0,0,1,.39.16.69.69,0,0,1,.13.45q0,.72-.06,2.37h4.35c.41,0,.62.16.62.48s-.21.49-.62.49h-4.21a8.06,8.06,0,0,0,1.59,3.19,9.17,9.17,0,0,0,2.91,2.38.7.7,0,0,1,.45.59c0,.39-.18.59-.54.59a1.28,1.28,0,0,1-.49-.21c-.24-.13-.58-.36-1.05-.68a8.83,8.83,0,0,1-2.05-2,8.73,8.73,0,0,1-1.29-2.49,7.91,7.91,0,0,1-3.6,4.86,3,3,0,0,1-1.3.57C249.21,382.34,249,382.16,249,381.8Z" transform="translate(-199.01 -234.59)"/><path class="a435a961-7a8d-48b0-8804-575067184830" d="M273.35,380.05c0,.26-.16.39-.49.39h-4.55v.85a1.35,1.35,0,0,1-.28.94,1.05,1.05,0,0,1-.87.24h-.74a.69.69,0,0,1-.43-.11.4.4,0,0,1-.14-.35c0-.29.19-.44.57-.44h.48c.3,0,.45-.16.47-.47v-.66h-4.31q-.48,0-.48-.39c0-.27.16-.4.48-.4h4.31v-.33a.43.43,0,0,1,.2-.4,4.15,4.15,0,0,1,1-.3l1.25-.32v0h-5.3c-.31,0-.46-.12-.46-.37a.38.38,0,0,1,.1-.29.56.56,0,0,1,.36-.09h6.41a1.82,1.82,0,0,1,.7.1.33.33,0,0,1,.24.31c0,.12-.28.3-.83.53a19.21,19.21,0,0,1-2.31.77c-.26.07-.38.19-.38.35v.07h4.55C273.19,379.65,273.35,379.78,273.35,380.05Zm-10.63-2v-.92a1.09,1.09,0,0,1,.19-.72.83.83,0,0,1,.63-.24h.16l-.25-3.44a.74.74,0,0,1,.14-.5.78.78,0,0,1,.46-.27l1.24-.2.38-.1.14,0,.15,0c.24,0,.37.14.37.42,0,.13-.11.24-.34.32a5.42,5.42,0,0,1-1.12.22.83.83,0,0,0-.38.13.26.26,0,0,0-.1.26v.33h1.46c.3,0,.44.12.44.37s-.14.37-.44.37h-1.4l.05.66h1.35c.3,0,.44.13.44.39s-.14.37-.44.37h-1.31l.05.73h6.76l.05-.73H270c-.27,0-.41-.13-.41-.37s.14-.39.41-.39h1.5l0-.66H270a.44.44,0,0,1-.31-.09.38.38,0,0,1-.1-.28c0-.25.14-.37.41-.37h1.61V373a.45.45,0,0,0-.07-.28.38.38,0,0,0-.27-.08h-1.38c-.25,0-.38-.12-.38-.35a.38.38,0,0,1,.09-.28.4.4,0,0,1,.29-.09h1.71q.93,0,.93.72l-.25,3.5h.13c.58,0,.85.32.8,1v1c0,.37-.16.56-.48.56a.45.45,0,0,1-.36-.13.63.63,0,0,1-.12-.43v-.74a.36.36,0,0,0-.39-.4H264.1c-.26,0-.39.13-.41.4v.7q0,.57-.48.57C262.88,378.6,262.72,378.4,262.72,378Zm3.73-4.55c0-.14.23-.35.71-.63l.26-.14c-.5-.35-.76-.58-.76-.68a.29.29,0,0,1,.09-.23.36.36,0,0,1,.26-.09,3.49,3.49,0,0,1,1,.57l.35-.36a.67.67,0,0,1,.45-.28.37.37,0,0,1,.27.09.28.28,0,0,1,.09.22c0,.14-.2.38-.6.74l.14.07c.33.24.5.44.5.6a.33.33,0,0,1-.1.27.33.33,0,0,1-.26.1.69.69,0,0,1-.41-.23l-.42-.39a3.15,3.15,0,0,1-1.18.71C266.56,373.81,266.45,373.7,266.45,373.47Zm.79,1.6.24-.14-.13-.08c-.41-.27-.61-.46-.61-.57s.11-.31.34-.31a1,1,0,0,1,.4.18l.37.22.19.13.33-.31c.19-.18.33-.27.43-.27s.37.11.37.33-.19.36-.55.64c.47.32.7.56.7.72a.32.32,0,0,1-.36.37.73.73,0,0,1-.4-.22l-.52-.44a7.85,7.85,0,0,1-.75.53,1.2,1.2,0,0,1-.46.18c-.23,0-.35-.11-.35-.33S266.74,375.35,267.24,375.07Z" transform="translate(-199.01 -234.59)"/><path class="a435a961-7a8d-48b0-8804-575067184830" d="M341.9,363.2a1.29,1.29,0,0,1-.29-.94v-7.9a1.08,1.08,0,0,1,1.24-1.25h7.55a1.29,1.29,0,0,1,1,.3,1.32,1.32,0,0,1,.28.95v7.9a1.25,1.25,0,0,1-.29.94,1.28,1.28,0,0,1-.94.29h-7.55A1.27,1.27,0,0,1,341.9,363.2Zm8.79-1.22v-7.37a.56.56,0,0,0-.64-.62H343.2a.56.56,0,0,0-.64.62V362a.56.56,0,0,0,.64.64h6.85A.56.56,0,0,0,350.69,362Zm-7.8-.57a.56.56,0,0,1-.09-.35.37.37,0,0,1,.17-.34,4.15,4.15,0,0,1,1-.21c.17,0,.37-.05.6-.1l.48-.11.6-.13.56-.12.27-.06a.25.25,0,0,1,.26.07.56.56,0,0,1,.08.3.31.31,0,0,1-.07.21.35.35,0,0,1-.19.12l-.18.06-.64.19-.42.11-.44.1-.61.14c-.67.15-1.05.22-1.12.22A.34.34,0,0,1,342.89,361.41Zm2.75.43a.39.39,0,0,1,.16-.27,1.61,1.61,0,0,1,.38-.27,4.76,4.76,0,0,0,1.43-1.09,11.26,11.26,0,0,1-.73-3.81h-3.5a.72.72,0,0,1-.41-.1.36.36,0,0,1-.13-.32.41.41,0,0,1,.13-.34.65.65,0,0,1,.41-.11h3.44v-.63c0-.36.14-.54.44-.54a.36.36,0,0,1,.32.17.81.81,0,0,1,.11.48v.52h2.12a.65.65,0,0,1,.41.11.41.41,0,0,1,.13.34.36.36,0,0,1-.13.32.72.72,0,0,1-.41.1h-2.07a13.2,13.2,0,0,0,.14,1.81,3.72,3.72,0,0,0,.33,1.12,11.12,11.12,0,0,0,.79-1.82c.09-.28.24-.42.43-.42a.61.61,0,0,1,.37.09.36.36,0,0,1,.12.31,5,5,0,0,1-.43,1.11,8.2,8.2,0,0,1-.89,1.61h0a3.76,3.76,0,0,0,.45.66c.15.17.27.25.37.25s.14-.08.21-.23a3,3,0,0,0,.15-.62.42.42,0,0,1,.11-.26.29.29,0,0,1,.23-.1c.25,0,.38.13.38.4a3,3,0,0,1-.27,1.25c-.18.44-.41.65-.69.65q-.75,0-1.5-1.26h0a2.79,2.79,0,0,1-.48.49,3.29,3.29,0,0,1-.6.41l-.57.32a.71.71,0,0,1-.3.09C345.78,362.27,345.64,362.13,345.64,361.84Zm-2.4-3v-1c0-.55.29-.82.86-.82h1.47a.85.85,0,0,1,.62.2.82.82,0,0,1,.21.62v1a.73.73,0,0,1-.83.82H344.1C343.53,359.64,343.24,359.37,343.24,358.82Zm2.34-.21V358a.32.32,0,0,0-.06-.22.29.29,0,0,0-.21-.07h-.94a.26.26,0,0,0-.29.29v.61a.25.25,0,0,0,.29.29h.94C345.49,358.9,345.58,358.81,345.58,358.61Zm3.45-3.32-.26-.31a.89.89,0,0,1-.24-.45.3.3,0,0,1,.11-.25.44.44,0,0,1,.29-.09c.12,0,.27.11.46.32a.94.94,0,0,1,.29.5c0,.24-.14.36-.43.36A.33.33,0,0,1,349,355.29Z" transform="translate(-199.01 -234.59)"/><path class="a435a961-7a8d-48b0-8804-575067184830" d="M365.54,362.51q0,.48-.6.48h-9.63q-.6,0-.6-.48a.47.47,0,0,1,.14-.37.8.8,0,0,1,.46-.11h5.79c.56-1.85,1-3.41,1.24-4.67a3.67,3.67,0,0,1,.25-.89.57.57,0,0,1,.47-.23c.4,0,.6.17.6.52a17.13,17.13,0,0,1-.7,2.6L362.1,362h2.84Q365.54,362,365.54,362.51Zm-10.24-7.05a.53.53,0,0,1,0-.74.8.8,0,0,1,.46-.11h3.78v-1.26c0-.39.17-.58.52-.58a.47.47,0,0,1,.39.14.66.66,0,0,1,.12.44v1.26h3.9a.83.83,0,0,1,.47.11.53.53,0,0,1,0,.74.83.83,0,0,1-.47.11h-8.71A.8.8,0,0,1,355.3,355.46Zm2.14,1.45a15.92,15.92,0,0,1,.62,2,16.09,16.09,0,0,1,.45,1.92.48.48,0,0,1-.55.53c-.31,0-.52-.3-.64-.89s-.22-1.05-.32-1.48c-.05-.19-.13-.46-.24-.83l-.11-.37-.06-.18c0-.06,0-.12,0-.18a2.86,2.86,0,0,1-.11-.41c0-.3.18-.44.53-.44A.5.5,0,0,1,357.44,356.91Z" transform="translate(-199.01 -234.59)"/><path class="a435a961-7a8d-48b0-8804-575067184830" d="M338.64,374.29c0,.28-.17.42-.52.42h-7v.15a3.27,3.27,0,0,1-.1.57h1.38q.9,0,.9.81a2.64,2.64,0,0,1-.36,1.52,1.71,1.71,0,0,1-1.51.54c-.38,0-.57-.15-.57-.46s.14-.46.41-.46h.45c.44,0,.66-.31.66-.92,0-.15-.1-.22-.3-.22h-1.25a3.15,3.15,0,0,1-1.15,1.52,2.72,2.72,0,0,1-1.58.61.4.4,0,0,1-.46-.45c0-.21.22-.38.64-.5a3,3,0,0,0,1-.48,2.07,2.07,0,0,0,.59-.7h-1.26c-.32,0-.48-.13-.48-.41s.16-.4.48-.4h1.47c0-.19.1-.39.14-.63l0-.09h-2.12c-.34,0-.52-.14-.52-.42s.18-.45.52-.45h2.43l-.12-.65h-.74A1.08,1.08,0,0,1,329,373a.83.83,0,0,1-.22-.66v-.56c0-.58.32-.86.95-.84h6.82c.66,0,1,.28,1,.84v.56a.87.87,0,0,1-.23.67,1,1,0,0,1-.72.2h-.78l-.18.65h2.55C338.47,373.84,338.64,374,338.64,374.29Zm-10.9-5.63c0-.28.16-.41.48-.41h4.33v-.41c0-.32.18-.48.53-.48s.51.16.51.48v.41H338c.33,0,.5.13.5.41s-.17.4-.5.4h-4.42v.55h4c.32,0,.49.14.49.42s-.17.4-.49.4h-9c-.33,0-.49-.13-.49-.4s.16-.42.49-.42h3.92v-.55h-4.33C327.9,369.06,327.74,368.93,327.74,368.66Zm2.35,3.78h6.05c.2,0,.3-.08.32-.24v-.31c0-.13-.11-.21-.32-.23h-6.05c-.2,0-.3.08-.31.23v.31C329.78,372.35,329.88,372.43,330.09,372.44Zm1.33.75.16.65h3l.16-.65Zm6.4,2.19a.88.88,0,0,1,.19.73v1.07a1.08,1.08,0,0,1-.22.76.91.91,0,0,1-.73.21h-2.44a1.07,1.07,0,0,1-.75-.23.91.91,0,0,1-.21-.74v-1.07a1,1,0,0,1,.24-.76.88.88,0,0,1,.72-.2h2.44A1.08,1.08,0,0,1,337.82,375.38Zm-.78.9q0-.3-.33-.33H335c-.2,0-.31.11-.32.33V377c0,.2.1.31.32.32h1.74a.32.32,0,0,0,.24-.09A.34.34,0,0,0,337,377Z" transform="translate(-199.01 -234.59)"/><path class="a435a961-7a8d-48b0-8804-575067184830" d="M341.18,371.81c0-.27.15-.4.45-.4h4.49v-.74h-3.4c-.28,0-.42-.13-.42-.37s.14-.36.42-.36h3.4v-.64h-4.18q-.45,0-.45-.39c0-.27.15-.4.45-.4h2.35a3,3,0,0,1-.31-.67c0-.25.15-.37.46-.37s.56.35.9,1h2.47l.17-.43c.17-.42.38-.64.63-.64s.48.14.48.4a2,2,0,0,1-.32.67h2.54c.29,0,.43.13.43.4s-.14.39-.43.39H347v.64h3.49c.27,0,.41.12.41.37s-.14.36-.41.36H347v.74h4.57c.3,0,.46.13.46.4s-.16.39-.46.39h-9.95Q341.18,372.2,341.18,371.81Zm10.91,4.78a2.78,2.78,0,0,1-.29,1.19.85.85,0,0,1-.8.55,3.06,3.06,0,0,1-2.13-1.29,7,7,0,0,1-2.64,1c-.26,0-.38-.15-.38-.46,0-.16.27-.32.82-.49a10.23,10.23,0,0,0,1.68-.69l0,0a4.7,4.7,0,0,1-.59-1.58h-2.89v.78l1.69-.2a.38.38,0,0,1,.31.09.45.45,0,0,1,.1.3c0,.24-.21.37-.63.41l-1.47.18v.91a1.19,1.19,0,0,1-.26.84,1.15,1.15,0,0,1-.87.23h-.7q-.48,0-.48-.45c0-.29.16-.43.48-.43h.51q.42,0,.45-.45v-.53l-2.38.25a.45.45,0,0,1-.3-.09.44.44,0,0,1-.1-.32.37.37,0,0,1,.34-.41l2.44-.24v-.87h-2.39c-.29,0-.44-.13-.44-.4s.15-.39.44-.39H344v-.69l-1.85.12a.32.32,0,0,1-.38-.37.25.25,0,0,1,.18-.24,1.79,1.79,0,0,1,.57-.11,28.8,28.8,0,0,0,3.26-.31l.31-.05a.33.33,0,0,1,.29.08.46.46,0,0,1,.1.31c0,.15-.11.26-.33.32l-1.1.16h-.18V374h2.73a9.71,9.71,0,0,1-.09-1.15c0-.36.15-.53.46-.53s.46.15.46.44v.6l.07.64h3c.32,0,.47.13.47.39s-.15.4-.47.4h-2.91a5.21,5.21,0,0,0,.46,1.15h0a6,6,0,0,0,.82-.64.61.61,0,0,1,.38-.2c.28,0,.42.12.42.37s-.39.55-1.16,1.07v0a2,2,0,0,0,1.33.8c.18,0,.3-.26.36-.8,0-.29.17-.43.4-.43S352.09,376.31,352.09,376.59Zm-2.24-4.17a1.13,1.13,0,0,1,.68.39c.27.28.41.48.41.62s-.16.43-.49.43c-.11,0-.32-.16-.63-.46s-.43-.49-.43-.6S349.54,372.42,349.85,372.42Z" transform="translate(-199.01 -234.59)"/><path class="a435a961-7a8d-48b0-8804-575067184830" d="M354.71,377.7a.43.43,0,0,1,.15-.3,2.28,2.28,0,0,1,.46-.3,6.72,6.72,0,0,0,4-5.65h-3.9a.76.76,0,0,1-.47-.12.45.45,0,0,1-.14-.37.44.44,0,0,1,.14-.37.76.76,0,0,1,.47-.11h4c0-.36.06-1.15.06-2.38,0-.4.16-.61.49-.61a.49.49,0,0,1,.4.17.68.68,0,0,1,.13.44c0,.48,0,1.27-.06,2.38h4.35c.41,0,.61.16.61.48s-.2.49-.61.49h-4.22a8.21,8.21,0,0,0,1.6,3.19A9.17,9.17,0,0,0,365.1,377a.7.7,0,0,1,.44.59c0,.39-.18.59-.54.59a1.2,1.2,0,0,1-.48-.21c-.24-.13-.59-.36-1-.68a8.84,8.84,0,0,1-2.05-2,8.69,8.69,0,0,1-1.3-2.5,7.88,7.88,0,0,1-3.59,4.87,3,3,0,0,1-1.31.56Q354.71,378.24,354.71,377.7Z" transform="translate(-199.01 -234.59)"/><path class="a435a961-7a8d-48b0-8804-575067184830" d="M379,376c0,.27-.17.4-.49.4H374v.85a1.37,1.37,0,0,1-.27.94,1,1,0,0,1-.88.23h-.73a.73.73,0,0,1-.44-.1.42.42,0,0,1-.13-.35c0-.3.19-.44.57-.44h.48c.3,0,.45-.16.47-.47v-.66h-4.32c-.32,0-.48-.13-.48-.4s.16-.39.48-.39H373v-.34a.43.43,0,0,1,.2-.39,4.15,4.15,0,0,1,1-.3l1.25-.33v0h-5.3c-.31,0-.47-.12-.47-.37a.37.37,0,0,1,.11-.29.56.56,0,0,1,.36-.09h6.41a1.85,1.85,0,0,1,.7.1.32.32,0,0,1,.24.3c0,.13-.28.31-.83.54a21.18,21.18,0,0,1-2.31.77c-.26.07-.39.19-.39.35v.07h4.56C378.85,375.56,379,375.69,379,376Zm-10.63-2V373a1.09,1.09,0,0,1,.19-.72.74.74,0,0,1,.62-.24h.17l-.25-3.44a.74.74,0,0,1,.14-.5.78.78,0,0,1,.46-.27l1.23-.2.39-.1.13,0,.15,0c.25,0,.37.14.37.42s-.11.23-.33.32a5.4,5.4,0,0,1-1.13.22.8.8,0,0,0-.38.13.3.3,0,0,0-.1.25v.34h1.47c.29,0,.44.12.44.37s-.15.37-.44.37h-1.41l.05.66h1.36c.29,0,.44.13.44.38s-.15.38-.44.38h-1.31l0,.73H377l.05-.73h-1.44c-.27,0-.41-.13-.41-.38s.14-.38.41-.38h1.5l0-.66h-1.52a.43.43,0,0,1-.31-.09.34.34,0,0,1-.1-.28c0-.25.14-.37.41-.37h1.6v-.25a.39.39,0,0,0-.07-.28.31.31,0,0,0-.26-.08h-1.38c-.26,0-.38-.12-.38-.35a.38.38,0,0,1,.09-.28.39.39,0,0,1,.29-.09h1.7c.63,0,.94.24.94.72l-.25,3.5h.13c.58,0,.85.32.8,1v1c0,.37-.16.56-.48.56a.45.45,0,0,1-.36-.13.63.63,0,0,1-.12-.43v-.75a.36.36,0,0,0-.39-.39h-7.73a.36.36,0,0,0-.41.39v.71c0,.38-.16.56-.48.56S368.39,374.31,368.39,373.93Zm3.72-4.56c0-.13.24-.34.71-.62l.27-.14c-.51-.35-.76-.58-.76-.69a.28.28,0,0,1,.09-.22.36.36,0,0,1,.26-.09,3.84,3.84,0,0,1,1,.57l.34-.36a.67.67,0,0,1,.46-.28.41.41,0,0,1,.27.08.32.32,0,0,1,.09.23c0,.14-.2.38-.6.73l.13.08c.34.23.51.43.51.59a.4.4,0,0,1-.1.28.36.36,0,0,1-.26.1.66.66,0,0,1-.41-.23l-.42-.4a3,3,0,0,1-1.19.72A.31.31,0,0,1,372.11,369.37Zm.8,1.61.24-.14-.14-.09c-.4-.26-.61-.45-.61-.56s.12-.31.35-.31a1.06,1.06,0,0,1,.4.18l.37.21.19.13.32-.31a.86.86,0,0,1,.43-.26c.25,0,.38.11.38.32s-.19.36-.56.65c.48.32.71.56.71.72a.32.32,0,0,1-.36.37.74.74,0,0,1-.41-.23l-.51-.43a5.47,5.47,0,0,1-.76.52,1,1,0,0,1-.45.19.31.31,0,0,1-.35-.34C372.15,371.47,372.4,371.26,372.91,371Z" transform="translate(-199.01 -234.59)"/></svg>