<svg xmlns="http://www.w3.org/2000/svg" viewBox="0 0 257.76 199.67"><defs><style>.f87db2a6-5065-4fe4-a1c6-843f8215d66d{isolation:isolate;}.f1f41493-afdb-4c4d-884f-e3ec2721355e{fill:#6a9531;}.e8fee6c4-d99c-4435-92b8-6e19295cdaf8{fill:#93aa31;}.a12f1d2f-d843-4a15-bbfc-7add70e4c6f9{fill:#c44122;}.a2b790e0-6642-4bd4-9211-77d0904a8b87{fill:#8e2e1b;}.b863ab1d-d136-41f7-9f36-a9a10af5d86c{fill:#dd482a;}.b02f024f-c7a5-45d0-9d11-4f726f89be61,.b863ab1d-d136-41f7-9f36-a9a10af5d86c{opacity:0.56;}.b173ba49-eea9-4d12-99c7-1c16d5930d36,.b863ab1d-d136-41f7-9f36-a9a10af5d86c{mix-blend-mode:screen;}.f9ed6f82-8db2-41eb-8589-9868d88239d4{fill:#ffd085;}.a9ba5a17-53f0-49aa-8c71-78b20d2f07e2,.b02f024f-c7a5-45d0-9d11-4f726f89be61{fill:#c24f29;}.a9ba5a17-53f0-49aa-8c71-78b20d2f07e2{opacity:0.26;}.b194832a-c8c6-4c8c-ab90-b114f5368260{fill:#a12c38;}.e212500a-3d7e-4ef1-b3f6-ed0b2fb8a21c{fill:#f02f47;}.b173ba49-eea9-4d12-99c7-1c16d5930d36,.bcd0a1bf-3d20-427c-b49b-4d0421184449{fill:#06634d;}.bdaea254-eb51-4e6e-9fbe-a52027a0f726{fill:#084938;}.a874b67c-4140-474a-a001-6d4126f567aa{fill:#fff9f3;}.ae826a56-7bcc-48ac-b324-d781f17aea82{fill:#58600f;}.a7e3b8a1-d3c7-48b0-bc74-6095c8da0878{fill:#921732;}.f40b98a0-ddd8-4d2a-8f49-9586e2ae9d37{fill:#70537c;}.bce5e1d9-8215-4d3b-9df9-85d820b51d2c{fill:#584063;}.ba64d710-9daa-40a5-ba2b-8034202a0e14{fill:#f7bb4f;}.f4bec275-a9c0-4665-ab57-f0e9bce72652{fill:#e5852e;}.bcfc1594-30f4-41d1-9326-3bfd3ff906ac{fill:#996eaf;}.bc957b13-90e0-4389-aeb7-653cc73f169e{fill:#b62335;}.b23b9629-24ca-47f1-ac03-9095ac47bed3{fill:#ffdca9;}.b059c138-34ae-4e65-b3ba-ff00e811cd0a{fill:#b586c9;}.fe108394-8f30-4177-9db0-7249aa9d032a{fill:#ff686e;}.b57c48ea-bafc-45e6-81fd-1e2805aad93f{fill:#ffefee;}.bac3fc1a-8edb-4eba-b0ba-a1574e50f02d{fill:#4c1207;}.ae7efe86-a479-4d72-9ae8-15a8f88c8d71{fill:#4c2d18;opacity:0.4;}.a99fe8fb-e842-4651-b91f-1802ad296cfb{fill:#e5c8b5;}.f9672cd0-5dab-4418-843b-a43d83f03fe2{fill:#b2998b;}.a8d0d968-41c0-4ab8-9dea-8212b21f7ede{fill:#60493e;opacity:0.32;}.f1ca375c-9866-4ba6-bf2a-993632602f09{fill:#9b887e;}.e9a5e3c8-4fe6-4c3a-a6c6-1a3b99f1cbfb{opacity:0.3;}.aa1da527-518a-43d7-8692-637ca48fcf22{fill:#9c251f;}.af597c54-cb52-4d11-9d22-59f002a4099c{opacity:0.2;}.f803d9b5-ed07-4285-9409-02f366c0fba1{fill:#e31b25;}.b3d773ef-8dcf-4b72-930c-6fe90eb7c134{fill:#c7a496;}.e52858f6-c2f8-4246-958e-f4c14ad0b3c8{fill:#ff8400;}.a89bfdd2-b35e-4354-9cba-32b5c2f89070{fill:#f0c6b4;}.b9439311-d9c2-4226-96fc-8928b5412fc8{fill:#ff9d26;}.fd5447fe-4718-48d7-9a36-ad84eb4bfc97{fill:#ff3f4a;}.a73618a7-1b64-42fe-a406-12f6857056e0{fill:#bdaf83;}.b3e6005c-1782-4e80-a2f2-246b0eb72a45{fill:#e6dab0;}.a1512c52-de3f-4c1a-9e9e-45d5e79052f8{fill:#d1c699;}.f2f4bee5-7208-408c-9820-3c9d3496aaca{fill:#603913;}.ea5a4687-8eda-4755-8408-e931ad60c6aa{fill:#ba6000;}.a815e930-ca4f-4751-a87d-1723d6d0434e{fill:#0a8074;}.a12322b3-e874-4a05-ab61-7787af46ddb5{fill:#24d2c1;}.eb82f7b8-9ab7-4336-93ab-e1dd20f0b93f{fill:#16a89f;}.f39901f6-678d-4bb2-a25a-c70c91a59e92{fill:#3c2415;}.fa7a63d5-d0b5-4c56-9477-ac0b025db75b{fill:#939598;}.a50d5770-9b3a-48a3-bd47-bd4b96e3cbf4{fill:#fff;}.aa7d7cba-bcb8-42cf-80ca-74b11b100dc8{fill:#a7a9ac;}.a76181ec-cd8b-4958-ae28-8fbf6febdeb5{fill:#1d374e;}.a50c1b60-2ff3-4b69-87cc-1fb94db2583e{fill:#2a4e68;}.b9988ed0-0a7d-4b92-980a-6236add259e5{fill:#0f2034;}.a911daff-cc2c-4205-96a1-734f2f3a0dad{fill:#ccc;}.a2775b4c-06b6-46d6-8916-71cfe3b1ff70{fill:#f0f0f0;}.fe38c24e-9c1d-4019-9077-a836ecedb97f{fill:#b8b8b8;}.ed5db172-2a9c-4493-9069-8f2862105d98{fill:#b0b0b0;}.aa2707c3-26a6-4559-ae10-480e287b12d6{fill:#858585;}.b9d31f48-efc8-41ed-8ee7-f166ef989fa5{fill:#4d4d4d;}.f26df6b0-3f7c-4483-8a5d-6f3a1ee2f69d{fill:#0a0a0a;}.ef794e50-e646-401d-bd53-bd1d600a2186{fill:#bcbec0;}.b1b71fa0-b2dc-4aa5-a3e1-11d99b967b63{fill:#333;}.e48d924e-b387-4f76-a320-087f58ee3cf2{fill:#474747;}.a53a94fb-a9c0-4bfb-b09c-8da0456df38d{fill:#575757;}.f2996d4c-c4b5-4c1c-b705-ca646710ad39{fill:#2b2b2b;}.b2943a7f-edc8-4c82-b230-34172bcf85ce{fill:#1f1f1f;}.f0b24ec4-02b4-44d5-8ed7-3ea6bcd0ce0b{fill:#919191;}.b565c2bf-c61a-44bc-b448-4bebfd231853{fill:#707070;}.b478082c-81b5-4f14-bba9-3ab9756476bc{fill:#4f4f4f;}.b5bd8351-79a7-4761-96b0-0e3002a72e6b{fill:#3576ab;}.fccf4433-9f49-424c-a3d8-b6ea331d2651{fill:#d1d3d4;}.af1b5eff-8993-4c88-b649-9b839d2192f1{fill:#2b5e85;}.ff34791d-b740-4003-945a-8e88fe040341{fill:#174666;}.ff0a1dba-75d3-49b0-8648-a620d41edaa0{fill:#303033;}.e19844f6-dc0c-4fd4-bacc-66d543039b6e{fill:#9c9c9c;}.e57d1574-0a5e-45dc-b6d6-897319dff4e5{fill:#828282;}.fba06814-8594-4758-8dc5-2782e74e737b{fill:#b2b2b2;}.a3fac1bd-02b0-4445-8d95-a7413428eeaf{fill:#ff6a00;}.bba4afd0-78f3-47ea-93e2-a1e2d956570b{fill:#6e721c;}</style></defs><title>ab2</title><g class="f87db2a6-5065-4fe4-a1c6-843f8215d66d"><g id="e99bcefd-95ed-4b89-b099-55ee1d347fcd" data-name="圖層 1"><path class="f1f41493-afdb-4c4d-884f-e3ec2721355e" d="M144.51,333.38H389.94c5,0,7.93,5.36,5,9.18L335.74,419c-33.83,43.72-103.2,43.72-137,0l-59.18-76.46C136.58,338.74,139.48,333.38,144.51,333.38Z" transform="translate(-138.35 -252.14)"/><path class="e8fee6c4-d99c-4435-92b8-6e19295cdaf8" d="M389.94,333.38H190.59L302,444.83A83.19,83.19,0,0,0,335.74,419l59.18-76.46C397.87,338.74,395,333.38,389.94,333.38Z" transform="translate(-138.35 -252.14)"/><path class="a12f1d2f-d843-4a15-bbfc-7add70e4c6f9" d="M285.47,308.62c0-1.43-22.53-56.48-22.53-56.48H176.61l-19.2,53.91L213.1,306l-.07,2.65Z" transform="translate(-138.35 -252.14)"/><path class="a2b790e0-6642-4bd4-9211-77d0904a8b87" d="M262.91,258.86a4.08,4.08,0,0,1-1.05,3.17c-1.4,1.28-3.36-.28-3.22-3.17C259,263.41,262.57,263.36,262.91,258.86Z" transform="translate(-138.35 -252.14)"/><path class="a2b790e0-6642-4bd4-9211-77d0904a8b87" d="M258.63,258.86a4.08,4.08,0,0,1-1.05,3.17c-1.41,1.28-3.37-.28-3.22-3.17C254.71,263.41,258.28,263.36,258.63,258.86Z" transform="translate(-138.35 -252.14)"/><path class="a2b790e0-6642-4bd4-9211-77d0904a8b87" d="M254.34,258.86a4.08,4.08,0,0,1-1.05,3.17c-1.41,1.28-3.37-.28-3.22-3.17C250.42,263.41,254,263.36,254.34,258.86Z" transform="translate(-138.35 -252.14)"/><path class="a2b790e0-6642-4bd4-9211-77d0904a8b87" d="M250.06,258.86A4.16,4.16,0,0,1,249,262c-1.41,1.28-3.37-.28-3.23-3.17C246.14,263.41,249.71,263.36,250.06,258.86Z" transform="translate(-138.35 -252.14)"/><path class="a2b790e0-6642-4bd4-9211-77d0904a8b87" d="M245.77,258.86a4.08,4.08,0,0,1-1.05,3.17c-1.41,1.28-3.37-.28-3.22-3.17C241.85,263.41,245.42,263.36,245.77,258.86Z" transform="translate(-138.35 -252.14)"/><path class="a2b790e0-6642-4bd4-9211-77d0904a8b87" d="M241.48,258.86a4.08,4.08,0,0,1-1,3.17c-1.41,1.28-3.37-.28-3.22-3.17C237.56,263.41,241.14,263.36,241.48,258.86Z" transform="translate(-138.35 -252.14)"/><path class="a2b790e0-6642-4bd4-9211-77d0904a8b87" d="M237.2,258.86a4.16,4.16,0,0,1-1,3.17c-1.41,1.28-3.37-.28-3.23-3.17C233.28,263.41,236.85,263.36,237.2,258.86Z" transform="translate(-138.35 -252.14)"/><path class="a2b790e0-6642-4bd4-9211-77d0904a8b87" d="M232.91,258.86a4.08,4.08,0,0,1-1,3.17c-1.41,1.28-3.37-.28-3.22-3.17C229,263.41,232.56,263.36,232.91,258.86Z" transform="translate(-138.35 -252.14)"/><path class="a2b790e0-6642-4bd4-9211-77d0904a8b87" d="M228.62,258.86a4.08,4.08,0,0,1-1.05,3.17c-1.41,1.28-3.37-.28-3.22-3.17C224.7,263.41,228.28,263.36,228.62,258.86Z" transform="translate(-138.35 -252.14)"/><path class="a2b790e0-6642-4bd4-9211-77d0904a8b87" d="M224.34,258.86a4.12,4.12,0,0,1-1.05,3.17c-1.41,1.28-3.37-.28-3.22-3.17C220.42,263.41,224,263.36,224.34,258.86Z" transform="translate(-138.35 -252.14)"/><path class="a2b790e0-6642-4bd4-9211-77d0904a8b87" d="M220.05,258.86A4.08,4.08,0,0,1,219,262c-1.41,1.28-3.37-.28-3.22-3.17C216.13,263.41,219.7,263.36,220.05,258.86Z" transform="translate(-138.35 -252.14)"/><path class="a2b790e0-6642-4bd4-9211-77d0904a8b87" d="M215.76,258.86a4.08,4.08,0,0,1-1,3.17c-1.41,1.28-3.36-.28-3.22-3.17C211.85,263.41,215.42,263.36,215.76,258.86Z" transform="translate(-138.35 -252.14)"/><path class="a2b790e0-6642-4bd4-9211-77d0904a8b87" d="M211.48,258.86a4.12,4.12,0,0,1-1,3.17c-1.41,1.28-3.37-.28-3.22-3.17C207.56,263.41,211.13,263.36,211.48,258.86Z" transform="translate(-138.35 -252.14)"/><path class="a2b790e0-6642-4bd4-9211-77d0904a8b87" d="M207.19,258.86a4.08,4.08,0,0,1-1.05,3.17c-1.41,1.28-3.37-.28-3.22-3.17C203.27,263.41,206.84,263.36,207.19,258.86Z" transform="translate(-138.35 -252.14)"/><path class="a2b790e0-6642-4bd4-9211-77d0904a8b87" d="M202.91,258.86a4.13,4.13,0,0,1-1.06,3.17c-1.4,1.28-3.36-.28-3.22-3.17C199,263.41,202.56,263.36,202.91,258.86Z" transform="translate(-138.35 -252.14)"/><path class="a2b790e0-6642-4bd4-9211-77d0904a8b87" d="M268,265.09a4.1,4.1,0,0,1-1,3.17c-1.41,1.27-3.36-.28-3.22-3.17C264.05,269.64,267.62,269.58,268,265.09Z" transform="translate(-138.35 -252.14)"/><path class="a2b790e0-6642-4bd4-9211-77d0904a8b87" d="M263.68,265.09a4.1,4.1,0,0,1-1.05,3.17c-1.41,1.27-3.37-.28-3.22-3.17C259.76,269.64,263.33,269.58,263.68,265.09Z" transform="translate(-138.35 -252.14)"/><path class="a2b790e0-6642-4bd4-9211-77d0904a8b87" d="M259.39,265.09a4.1,4.1,0,0,1-1.05,3.17c-1.41,1.27-3.37-.28-3.22-3.17C255.47,269.64,259,269.58,259.39,265.09Z" transform="translate(-138.35 -252.14)"/><path class="a2b790e0-6642-4bd4-9211-77d0904a8b87" d="M255.11,265.09a4.14,4.14,0,0,1-1.06,3.17c-1.4,1.27-3.36-.28-3.22-3.17C251.19,269.64,254.76,269.58,255.11,265.09Z" transform="translate(-138.35 -252.14)"/><path class="a2b790e0-6642-4bd4-9211-77d0904a8b87" d="M250.82,265.09a4.1,4.1,0,0,1-1,3.17c-1.41,1.27-3.37-.28-3.22-3.17C246.9,269.64,250.47,269.58,250.82,265.09Z" transform="translate(-138.35 -252.14)"/><path class="a2b790e0-6642-4bd4-9211-77d0904a8b87" d="M246.53,265.09a4.1,4.1,0,0,1-1.05,3.17c-1.41,1.27-3.37-.28-3.22-3.17C242.61,269.64,246.19,269.58,246.53,265.09Z" transform="translate(-138.35 -252.14)"/><path class="a2b790e0-6642-4bd4-9211-77d0904a8b87" d="M242.25,265.09a4.17,4.17,0,0,1-1.05,3.17c-1.41,1.27-3.37-.28-3.23-3.17C238.33,269.64,241.9,269.58,242.25,265.09Z" transform="translate(-138.35 -252.14)"/><path class="a2b790e0-6642-4bd4-9211-77d0904a8b87" d="M238,265.09a4.1,4.1,0,0,1-1.05,3.17c-1.41,1.27-3.37-.28-3.22-3.17C234,269.64,237.61,269.58,238,265.09Z" transform="translate(-138.35 -252.14)"/><path class="a2b790e0-6642-4bd4-9211-77d0904a8b87" d="M233.67,265.09a4.1,4.1,0,0,1-1,3.17c-1.41,1.27-3.37-.28-3.22-3.17C229.75,269.64,233.33,269.58,233.67,265.09Z" transform="translate(-138.35 -252.14)"/><path class="a2b790e0-6642-4bd4-9211-77d0904a8b87" d="M229.39,265.09a4.13,4.13,0,0,1-1,3.17c-1.41,1.27-3.37-.28-3.22-3.17C225.47,269.64,229,269.58,229.39,265.09Z" transform="translate(-138.35 -252.14)"/><path class="a2b790e0-6642-4bd4-9211-77d0904a8b87" d="M225.1,265.09a4.1,4.1,0,0,1-1,3.17c-1.41,1.27-3.37-.28-3.22-3.17C221.18,269.64,224.75,269.58,225.1,265.09Z" transform="translate(-138.35 -252.14)"/><path class="a2b790e0-6642-4bd4-9211-77d0904a8b87" d="M220.81,265.09a4.1,4.1,0,0,1-1.05,3.17c-1.41,1.27-3.36-.28-3.22-3.17C216.9,269.64,220.47,269.58,220.81,265.09Z" transform="translate(-138.35 -252.14)"/><path class="a2b790e0-6642-4bd4-9211-77d0904a8b87" d="M216.53,265.09a4.13,4.13,0,0,1-1.05,3.17c-1.41,1.27-3.37-.28-3.22-3.17C212.61,269.64,216.18,269.58,216.53,265.09Z" transform="translate(-138.35 -252.14)"/><path class="a2b790e0-6642-4bd4-9211-77d0904a8b87" d="M212.24,265.09a4.1,4.1,0,0,1-1.05,3.17c-1.41,1.27-3.37-.28-3.22-3.17C208.32,269.64,211.89,269.58,212.24,265.09Z" transform="translate(-138.35 -252.14)"/><path class="a2b790e0-6642-4bd4-9211-77d0904a8b87" d="M208,265.09a4.14,4.14,0,0,1-1.06,3.17c-1.4,1.27-3.36-.28-3.22-3.17C204,269.64,207.61,269.58,208,265.09Z" transform="translate(-138.35 -252.14)"/><path class="b863ab1d-d136-41f7-9f36-a9a10af5d86c" d="M232,252.14H176.61l-19.2,53.91C227.1,299.59,232.9,266.66,232,252.14Z" transform="translate(-138.35 -252.14)"/><path class="f9ed6f82-8db2-41eb-8589-9868d88239d4" d="M206.17,257.06l-26.8,31.31V306l-19.94,0s0,.58.1,1.57c.34,5,1.37,20.39,1.37,21.1h52.2V306h22v-17.6Z" transform="translate(-138.35 -252.14)"/><polygon class="a9ba5a17-53f0-49aa-8c71-78b20d2f07e2" points="63.98 9.4 79.99 27.2 84.22 22.64 67.82 4.92 63.98 9.4"/><path class="b02f024f-c7a5-45d0-9d11-4f726f89be61" d="M179.37,306v22.7s-5.2-14.91-11.94-17.22-7.79-2.22-7.79-2.22l-.21-3.23Z" transform="translate(-138.35 -252.14)"/><polygon class="b194832a-c8c6-4c8c-ab90-b114f5368260" points="41.02 36.22 38.71 36.22 66.39 3.32 67.82 4.92 41.02 36.22"/><polygon class="e212500a-3d7e-4ef1-b3f6-ed0b2fb8a21c" points="96.09 22.41 77 4.92 65.83 2.69 38.49 35.49 38.71 36.22 66.39 3.32 88.11 27.86 96.09 22.41"/><rect class="bcd0a1bf-3d20-427c-b49b-4d0421184449" x="25.54" y="57.14" width="13.13" height="18.78"/><polygon class="bdaea254-eb51-4e6e-9fbe-a52027a0f726" points="25.54 57.14 35.14 60.02 38.67 75.91 38.67 57.14 25.54 57.14"/><path class="a874b67c-4140-474a-a001-6d4126f567aa" d="M163.6,309v19.36h13.71V309Zm13.13,6.52h-5.95v-5.94h5.95Zm-5.95.61h5.95v5h-5.95Zm-.69-6.55v5.94h-5.91v-5.94Zm0,11.59h-5.91v-5h5.91Zm-5.91.61h5.91v6h-5.91Zm6.6,6v-6h5.95v6Z" transform="translate(-138.35 -252.14)"/><path class="ae826a56-7bcc-48ac-b324-d781f17aea82" d="M372.82,345a7.29,7.29,0,0,0-6.26-9.1,8.91,8.91,0,0,0-17.61-.08l-.31,0a6.78,6.78,0,0,0-6.6,6.94,7.33,7.33,0,0,0,.37,2.26Z" transform="translate(-138.35 -252.14)"/><polygon class="a7e3b8a1-d3c7-48b0-bc74-6095c8da0878" points="134.65 62.89 147.12 56.47 134.65 56.47 134.65 62.89"/><polygon class="a7e3b8a1-d3c7-48b0-bc74-6095c8da0878" points="19.06 53.91 22.2 56.47 22.2 53.91 19.06 53.91"/><path class="a2b790e0-6642-4bd4-9211-77d0904a8b87" d="M237.78,283.23a4.06,4.06,0,0,1-1.05,3.16c-1.41,1.28-3.37-.27-3.22-3.16C233.86,287.78,237.43,287.72,237.78,283.23Z" transform="translate(-138.35 -252.14)"/><path class="a2b790e0-6642-4bd4-9211-77d0904a8b87" d="M233.49,283.23a4.06,4.06,0,0,1-1.05,3.16c-1.41,1.28-3.37-.27-3.22-3.16C229.57,287.78,233.15,287.72,233.49,283.23Z" transform="translate(-138.35 -252.14)"/><path class="a2b790e0-6642-4bd4-9211-77d0904a8b87" d="M229.21,283.23a4.14,4.14,0,0,1-1.05,3.16c-1.41,1.28-3.37-.27-3.23-3.16C225.29,287.78,228.86,287.72,229.21,283.23Z" transform="translate(-138.35 -252.14)"/><path class="a2b790e0-6642-4bd4-9211-77d0904a8b87" d="M224.92,283.23a4.06,4.06,0,0,1-1,3.16c-1.41,1.28-3.37-.27-3.22-3.16C221,287.78,224.57,287.72,224.92,283.23Z" transform="translate(-138.35 -252.14)"/><path class="a2b790e0-6642-4bd4-9211-77d0904a8b87" d="M220.63,283.23a4.06,4.06,0,0,1-1,3.16c-1.41,1.28-3.37-.27-3.22-3.16C216.71,287.78,220.29,287.72,220.63,283.23Z" transform="translate(-138.35 -252.14)"/><path class="a2b790e0-6642-4bd4-9211-77d0904a8b87" d="M234.47,288.78a4.08,4.08,0,0,1-1.05,3.17c-1.41,1.28-3.37-.28-3.22-3.17C230.55,293.33,234.13,293.28,234.47,288.78Z" transform="translate(-138.35 -252.14)"/><path class="a2b790e0-6642-4bd4-9211-77d0904a8b87" d="M230.19,288.78a4.12,4.12,0,0,1-1.05,3.17c-1.41,1.28-3.37-.28-3.22-3.17C226.27,293.33,229.84,293.28,230.19,288.78Z" transform="translate(-138.35 -252.14)"/><path class="a2b790e0-6642-4bd4-9211-77d0904a8b87" d="M225.9,288.78a4.08,4.08,0,0,1-1.05,3.17c-1.41,1.28-3.37-.28-3.22-3.17C222,293.33,225.55,293.28,225.9,288.78Z" transform="translate(-138.35 -252.14)"/><path class="a2b790e0-6642-4bd4-9211-77d0904a8b87" d="M221.61,288.78a4.08,4.08,0,0,1-1.05,3.17c-1.41,1.28-3.36-.28-3.22-3.17C217.7,293.33,221.27,293.28,221.61,288.78Z" transform="translate(-138.35 -252.14)"/><path class="a2b790e0-6642-4bd4-9211-77d0904a8b87" d="M217.33,288.78a4.12,4.12,0,0,1-1.05,3.17c-1.41,1.28-3.37-.28-3.22-3.17C213.41,293.33,217,293.28,217.33,288.78Z" transform="translate(-138.35 -252.14)"/><path class="a2b790e0-6642-4bd4-9211-77d0904a8b87" d="M213,288.78a4.08,4.08,0,0,1-1,3.17c-1.41,1.28-3.37-.28-3.22-3.17C209.12,293.33,212.69,293.28,213,288.78Z" transform="translate(-138.35 -252.14)"/><path class="a2b790e0-6642-4bd4-9211-77d0904a8b87" d="M208.76,288.78A4.13,4.13,0,0,1,207.7,292c-1.4,1.28-3.36-.28-3.22-3.17C204.84,293.33,208.41,293.28,208.76,288.78Z" transform="translate(-138.35 -252.14)"/><path class="a2b790e0-6642-4bd4-9211-77d0904a8b87" d="M204.47,288.78a4.08,4.08,0,0,1-1.05,3.17c-1.41,1.28-3.37-.28-3.22-3.17C200.55,293.33,204.12,293.28,204.47,288.78Z" transform="translate(-138.35 -252.14)"/><path class="a2b790e0-6642-4bd4-9211-77d0904a8b87" d="M200.18,288.78a4.08,4.08,0,0,1-1.05,3.17c-1.41,1.28-3.37-.28-3.22-3.17C196.26,293.33,199.84,293.28,200.18,288.78Z" transform="translate(-138.35 -252.14)"/><path class="a2b790e0-6642-4bd4-9211-77d0904a8b87" d="M195.9,288.78a4.16,4.16,0,0,1-1.05,3.17c-1.41,1.28-3.37-.28-3.23-3.17C192,293.33,195.55,293.28,195.9,288.78Z" transform="translate(-138.35 -252.14)"/><path class="a2b790e0-6642-4bd4-9211-77d0904a8b87" d="M191.61,288.78a4.08,4.08,0,0,1-1.05,3.17c-1.41,1.28-3.37-.28-3.22-3.17C187.69,293.33,191.26,293.28,191.61,288.78Z" transform="translate(-138.35 -252.14)"/><rect class="f40b98a0-ddd8-4d2a-8f49-9586e2ae9d37" x="17.42" y="76.58" width="57.33" height="9.84"/><path class="bce5e1d9-8215-4d3b-9df9-85d820b51d2c" d="M155.77,336.39v2.17H213.1v-9.84h-2.58C206.47,338,172.23,337.29,155.77,336.39Z" transform="translate(-138.35 -252.14)"/><rect class="bce5e1d9-8215-4d3b-9df9-85d820b51d2c" x="107.19" y="76.58" width="30.79" height="9.84"/><polygon class="ba64d710-9daa-40a5-ba2b-8034202a0e14" points="133.43 76.58 107.19 76.58 107.19 56.47 135.93 56.47 133.43 76.58"/><rect class="f4bec275-a9c0-4665-ab57-f0e9bce72652" x="107.19" y="33.9" width="5.74" height="47.6"/><rect class="bcfc1594-30f4-41d1-9326-3bfd3ff906ac" x="108.82" y="79.36" width="4.65" height="9.41"/><polygon class="bc957b13-90e0-4389-aeb7-653cc73f169e" points="108.76 36.33 109.19 34.66 114.68 34.66 114.16 36.18 108.76 36.33"/><rect class="bcd0a1bf-3d20-427c-b49b-4d0421184449" x="48.66" y="36.03" width="29.68" height="18.78"/><polygon class="bdaea254-eb51-4e6e-9fbe-a52027a0f726" points="78.33 36.03 48.66 36.03 48.66 55.09 52.21 37.93 78.33 36.03"/><path class="a874b67c-4140-474a-a001-6d4126f567aa" d="M186.35,287.88v19.36h31V287.88ZM216,294.4H202.58v-5.94H216Zm-13.45.61H216v5H202.58ZM201,288.46v5.94H187.66v-5.94ZM201,300H187.66v-5H201Zm-13.36.62H201v6H187.66Zm14.92,6v-6H216v6Z" transform="translate(-138.35 -252.14)"/><rect class="bcd0a1bf-3d20-427c-b49b-4d0421184449" x="116.03" y="57.14" width="13.13" height="18.78"/><polygon class="bdaea254-eb51-4e6e-9fbe-a52027a0f726" points="116.03 57.14 127.48 58.75 129.16 75.91 129.16 57.14 116.03 57.14"/><path class="a874b67c-4140-474a-a001-6d4126f567aa" d="M254.08,309v19.36h13.71V309Zm13.13,6.52h-5.95v-5.94h5.95Zm-5.95.61h5.95v5h-5.95Zm-.68-6.55v5.94h-5.92v-5.94Zm0,11.59h-5.92v-5h5.92Zm-5.92.61h5.92v6h-5.92Zm6.6,6v-6h5.95v6Z" transform="translate(-138.35 -252.14)"/><polygon class="b23b9629-24ca-47f1-ac03-9095ac47bed3" points="107.19 80.64 74.11 80.64 74.11 34.23 89.83 18.61 107.19 34.23 107.19 80.64"/><polygon class="b059c138-34ae-4e65-b3ba-ff00e811cd0a" points="72.17 79.36 72.17 80.64 72.17 88.77 108.82 88.77 108.82 79.36 72.17 79.36"/><polygon class="fe108394-8f30-4177-9db0-7249aa9d032a" points="89.83 18.61 72.83 35.72 72.17 34.65 89.83 16.68 109.19 34.66 108.76 36.33 89.83 18.61"/><polygon class="e212500a-3d7e-4ef1-b3f6-ed0b2fb8a21c" points="109.19 34.66 114.68 34.66 94.24 16.68 89.83 16.68 109.19 34.66"/><rect class="bcd0a1bf-3d20-427c-b49b-4d0421184449" x="77.84" y="45.41" width="26.65" height="7.71"/><polygon class="bdaea254-eb51-4e6e-9fbe-a52027a0f726" points="79.98 47.57 104.49 47.57 104.49 45.41 77.84 45.41 77.84 53.12 79.98 53.12 79.98 47.57"/><path class="b57c48ea-bafc-45e6-81fd-1e2805aad93f" d="M215.89,297.26v8.31h27.25v-8.31Zm8.84,7.71h-8.24v-7.11h8.24Zm9.65,0h-9v-7.11h9Zm8.16,0H235v-7.11h7.53Z" transform="translate(-138.35 -252.14)"/><rect class="b173ba49-eea9-4d12-99c7-1c16d5930d36" x="78.99" y="46.42" width="6.9" height="5.4"/><rect class="b173ba49-eea9-4d12-99c7-1c16d5930d36" x="97" y="46.42" width="6.9" height="5.4"/><rect class="b173ba49-eea9-4d12-99c7-1c16d5930d36" x="87.48" y="46.42" width="7.86" height="5.4"/><rect class="a874b67c-4140-474a-a001-6d4126f567aa" x="83.63" y="58.75" width="15.07" height="24.86"/><rect class="bac3fc1a-8edb-4eba-b0ba-a1574e50f02d" x="84.86" y="60.02" width="12.62" height="23.58"/><polygon class="ae7efe86-a479-4d72-9ae8-15a8f88c8d71" points="97.48 60.02 84.86 60.02 84.86 62.3 84.86 83.61 86.56 83.61 86.56 62.3 97.48 62.3 97.48 60.02"/><rect class="a99fe8fb-e842-4651-b91f-1802ad296cfb" x="83.44" y="83.45" width="15.55" height="0.39"/><rect class="f9672cd0-5dab-4418-843b-a43d83f03fe2" x="83.97" y="83.84" width="14.41" height="1.31"/><rect class="a8d0d968-41c0-4ab8-9dea-8212b21f7ede" x="83.97" y="83.84" width="14.41" height="0.43"/><rect class="a99fe8fb-e842-4651-b91f-1802ad296cfb" x="82.48" y="85.15" width="17.46" height="0.39"/><rect class="f9672cd0-5dab-4418-843b-a43d83f03fe2" x="83.08" y="85.54" width="16.19" height="1.31"/><rect class="a8d0d968-41c0-4ab8-9dea-8212b21f7ede" x="83.08" y="85.54" width="16.19" height="0.43"/><rect class="a99fe8fb-e842-4651-b91f-1802ad296cfb" x="81.24" y="86.86" width="19.38" height="0.44"/><rect class="f1ca375c-9866-4ba6-bf2a-993632602f09" x="81.9" y="87.3" width="17.96" height="1.48"/><rect class="a8d0d968-41c0-4ab8-9dea-8212b21f7ede" x="81.9" y="87.3" width="17.96" height="0.48"/><rect class="bcd0a1bf-3d20-427c-b49b-4d0421184449" x="86.1" y="61.09" width="9.65" height="13.81"/><polygon class="b173ba49-eea9-4d12-99c7-1c16d5930d36" points="86.1 61.09 86.1 63.39 93.45 63.39 93.45 74.89 95.75 74.89 95.75 61.09 86.1 61.09"/><path class="a874b67c-4140-474a-a001-6d4126f567aa" d="M224.24,313v14.23h10.08V313Zm9.65,4.79h-4.38v-4.36h4.38Zm-4.38.45h4.38V322h-4.38Zm-.5-4.81v4.36h-4.35v-4.36Zm0,8.51h-4.35v-3.7H229Zm-4.35.46H229v4.41h-4.35Zm4.85,4.41v-4.41h4.38v4.41Z" transform="translate(-138.35 -252.14)"/><path class="e9a5e3c8-4fe6-4c3a-a6c6-1a3b99f1cbfb" d="M262.23,396.5c-6,3.46-15.72,3.46-21.71,0s-6-9.07,0-12.54,15.71-3.46,21.71,0S268.22,393,262.23,396.5Z" transform="translate(-138.35 -252.14)"/><path class="aa1da527-518a-43d7-8692-637ca48fcf22" d="M261.07,378.79s5.29,8.1,5,9.82c-.22,1.35-2.08,3.12-5,2.39-2.2-.56-6.69-5.59-8.77-6.19l-.52-5.13,5.66-1.56Z" transform="translate(-138.35 -252.14)"/><path class="af597c54-cb52-4d11-9d22-59f002a4099c" d="M254,382.43s5.44,6.86,5.75,6.65A27.31,27.31,0,0,0,254,382.43Z" transform="translate(-138.35 -252.14)"/><path class="f803d9b5-ed07-4285-9409-02f366c0fba1" d="M244.77,375.1a11.06,11.06,0,0,0-.45,3c0,1.74.83,8.36.83,8.36s-.75-2-1.62-2.29c-1.79-.61-8.81,4.18-7.81,6.17s5.36-.11,6.26.21,4.53,7.4,6.14,7.89,4-.12,4.57-1.35.77-14.34.77-14.34a7.52,7.52,0,0,0,4.19-2.7l-4.31-2.9Z" transform="translate(-138.35 -252.14)"/><polygon class="b3d773ef-8dcf-4b72-930c-6fe90eb7c134" points="113.43 110.52 118.55 113.34 121.71 111.61 121.98 104.89 112.62 104.19 113.43 110.52"/><path class="e52858f6-c2f8-4246-958e-f4c14ad0b3c8" d="M261.38,356.78c.52,2,2.93,7.59,2.93,7.59s3.49,4.75,4.24,8c.19.79-.73,2.37-.73,2.37s-2,.35-2.36-.12c-2.93-4.15-5-7.45-5-7.45l-1-7.9Z" transform="translate(-138.35 -252.14)"/><path class="a89bfdd2-b35e-4354-9cba-32b5c2f89070" d="M267.9,372c.8-.07,2.48,2.7,2.51,3.78s-.57,4.54-2,4.54c-1.2,0-.69-2.88-.69-2.88a10.92,10.92,0,0,1-1.51-1.46,2.48,2.48,0,0,1-.59-2A3.86,3.86,0,0,1,267.9,372Z" transform="translate(-138.35 -252.14)"/><path class="b9439311-d9c2-4226-96fc-8928b5412fc8" d="M259.21,358.39s.67,4.1-1.56,5.16c-4.19.76-5.88-5.4-5.88-5.4s-1.55-4.08-2.39-3.75a18.52,18.52,0,0,0-4.62,5.87,78.34,78.34,0,0,1,0,14.16c-.28,2.47,2.39,5.32,6.25,6.62,4.78,1.62,7.92-.8,8.74-3.86a49.92,49.92,0,0,0,.68-10.05c1.54-3.24.69-9.63.69-9.63Z" transform="translate(-138.35 -252.14)"/><path class="aa1da527-518a-43d7-8692-637ca48fcf22" d="M269.91,380.05l-3.24,2.69-.71-4.15,3.23-2.69Z" transform="translate(-138.35 -252.14)"/><polygon class="fd5447fe-4718-48d7-9a36-ad84eb4bfc97" points="130.64 124.3 131.24 127.79 128.53 130.05 128.49 129.84 131.07 127.7 130.5 124.42 130.64 124.3"/><polygon class="a73618a7-1b64-42fe-a406-12f6857056e0" points="130.5 124.42 131.07 127.7 128.49 129.84 127.93 126.56 130.5 124.42"/><path class="aa1da527-518a-43d7-8692-637ca48fcf22" d="M266.92,378.54l.7-.58c.44-.38.84-.47.95.16a1.69,1.69,0,0,1-.65,1.55l-.25.21.16.88-.46.38Zm.9.68a.75.75,0,0,0,.3-.72c-.05-.27-.2-.26-.45-.05l-.21.17.13.79Z" transform="translate(-138.35 -252.14)"/><path class="fd5447fe-4718-48d7-9a36-ad84eb4bfc97" d="M266,378.59,262,377.14l3.23-2.69,3.95,1.45Z" transform="translate(-138.35 -252.14)"/><polygon class="aa1da527-518a-43d7-8692-637ca48fcf22" points="130.27 123.85 130.11 123.98 126.99 122.83 124.43 124.97 124.24 124.89 126.95 122.63 130.27 123.85"/><polygon class="b3e6005c-1782-4e80-a2f2-246b0eb72a45" points="130.11 123.98 127.55 126.11 124.43 124.97 126.99 122.83 130.11 123.98"/><path class="fd5447fe-4718-48d7-9a36-ad84eb4bfc97" d="M264.65,376.11a2.4,2.4,0,0,1,2.23-.46.69.69,0,0,1,.49.5l-.59.13a.39.39,0,0,0-.28-.29,1.35,1.35,0,0,0-1.26.32c-.42.35-.43.64-.06.77a1.37,1.37,0,0,0,.67,0v.35a1.93,1.93,0,0,1-1.1-.05C264.13,377.17,264,376.68,264.65,376.11Z" transform="translate(-138.35 -252.14)"/><path class="f803d9b5-ed07-4285-9409-02f366c0fba1" d="M266.67,382.74l-3.95-1.45-.71-4.15,3.95,1.45Z" transform="translate(-138.35 -252.14)"/><polygon class="aa1da527-518a-43d7-8692-637ca48fcf22" points="127.92 129.95 127.95 130.15 124.64 128.93 124.03 125.44 124.22 125.52 124.79 128.8 127.92 129.95"/><polygon class="a1512c52-de3f-4c1a-9e9e-45d5e79052f8" points="127.35 126.67 127.92 129.95 124.79 128.8 124.22 125.52 127.35 126.67"/><path class="f803d9b5-ed07-4285-9409-02f366c0fba1" d="M263.89,378.3l.68.25,1.22,2.89-.59-.22-.26-.68-.75-.27-.05.56-.57-.21Zm.33,1.55.53.19-.1-.26c-.11-.28-.23-.62-.35-.91h0c0,.26,0,.54-.05.77Z" transform="translate(-138.35 -252.14)"/><path class="a89bfdd2-b35e-4354-9cba-32b5c2f89070" d="M259.21,376.36s4.82.16,5,.66c.22.84-2,1-1.94,1.43.12,1.12,3.62.48,3.08,2.63-.69,2.73-3.94,2-4.86,1.59a11.26,11.26,0,0,1-2.53-2.35l-1.51-1.61,1-2Z" transform="translate(-138.35 -252.14)"/><path class="e52858f6-c2f8-4246-958e-f4c14ad0b3c8" d="M248.54,361.44s2.88,7.05,3.92,8.12c2.43,2.67,5.42,6.05,6.75,6.8a4,4,0,0,0-1.3,4c-2.25-.73-8.17-6.21-9.58-7.92s-3.63-6.54-4.56-8.46a3.35,3.35,0,0,1,1-3.91C247.15,358.49,248.54,361.44,248.54,361.44Z" transform="translate(-138.35 -252.14)"/><path class="a89bfdd2-b35e-4354-9cba-32b5c2f89070" d="M262.92,354.65s3.29-12.35-6.64-13-7.38,11.06-7.36,11.37c-1.42.1.64,3.71,1.78,3.33,0,.24.93,3.69,6.84,4.08C262.76,359.79,262.92,354.65,262.92,354.65Z" transform="translate(-138.35 -252.14)"/><path class="f2f4bee5-7208-408c-9820-3c9d3496aaca" d="M251.37,354.93c-.8-.57-1-1.28-1.56-1.62-.9-.55-.89-.33-.89-.33s-2-4.66.2-8.23c0,0-.28-.18-1.92.29,0,0,1.84-2.09,3.48-2.09a8.7,8.7,0,0,1,1.59-3.56s-.6,1.7.18,2.2c1.61-1.15,6.13-.86,8.8.4,0,0-.91.18-.8.29,3.29,3,4.44,6.75,3.09,9,.08-1.32-1.66-2.32-1.63-1.4,0,1.38-.64,2.25-1.9,3.2-1.16-2.59-3.08-2.6-3.46-2.19a2.64,2.64,0,0,1-.65,2.15c-.51-.83-1.1-.86-1.47-.47C253.17,353.9,251.55,353.58,251.37,354.93Z" transform="translate(-138.35 -252.14)"/><path class="aa1da527-518a-43d7-8692-637ca48fcf22" d="M245.15,386.49s0,6.17,2.24,8.18A30.66,30.66,0,0,1,245.15,386.49Z" transform="translate(-138.35 -252.14)"/><path class="ea5a4687-8eda-4755-8408-e931ad60c6aa" d="M285.11,375.14l-1.37,4-2.81-3.2,1.37-4Z" transform="translate(-138.35 -252.14)"/><polygon class="b9439311-d9c2-4226-96fc-8928b5412fc8" points="144.07 120.37 146.43 123.06 145.28 126.45 145.14 126.29 146.23 123.08 144.01 120.55 144.07 120.37"/><polygon class="a73618a7-1b64-42fe-a406-12f6857056e0" points="144.01 120.55 146.23 123.08 145.14 126.29 142.92 123.76 144.01 120.55"/><path class="ea5a4687-8eda-4755-8408-e931ad60c6aa" d="M281.54,376.1l.19-.56.85.73.56.51v0l-.49-.75-.69-1.15.15-.47.88.64.58.46h0l-.49-.71-.73-1.06.17-.53,1.54,2.35-.23.69-.85-.64c-.14-.1-.29-.23-.42-.34h0c.11.17.24.36.35.55l.69,1.09-.23.68Z" transform="translate(-138.35 -252.14)"/><path class="b9439311-d9c2-4226-96fc-8928b5412fc8" d="M280.93,376l-4.18.83,1.37-4,4.18-.84Z" transform="translate(-138.35 -252.14)"/><polygon class="ea5a4687-8eda-4755-8408-e931ad60c6aa" points="143.51 120.18 143.44 120.38 140.13 121.03 139.05 124.22 138.85 124.26 140 120.88 143.51 120.18"/><polygon class="b3e6005c-1782-4e80-a2f2-246b0eb72a45" points="143.44 120.38 142.36 123.57 139.05 124.22 140.13 121.03 143.44 120.38"/><path class="b9439311-d9c2-4226-96fc-8928b5412fc8" d="M279,373.18l.9-.18c.55-.11.93-.05.76.44a1.18,1.18,0,0,1-.53.62v0c.24,0,.38.16.27.5a1.61,1.61,0,0,1-1.28.95l-1,.2Zm.22,1.92a.72.72,0,0,0,.61-.45c.07-.22-.06-.28-.39-.21l-.33.07-.22.65Zm.31-1.08a.61.61,0,0,0,.52-.38c.07-.2,0-.25-.32-.19l-.28.06-.2.57Z" transform="translate(-138.35 -252.14)"/><path class="e52858f6-c2f8-4246-958e-f4c14ad0b3c8" d="M283.74,379.17l-4.18.84-2.81-3.21,4.18-.83Z" transform="translate(-138.35 -252.14)"/><polygon class="ea5a4687-8eda-4755-8408-e931ad60c6aa" points="144.7 126.69 144.83 126.84 141.32 127.53 138.96 124.85 139.16 124.81 141.39 127.34 144.7 126.69"/><polygon class="a1512c52-de3f-4c1a-9e9e-45d5e79052f8" points="142.47 124.15 144.7 126.69 141.39 127.34 139.16 124.81 142.47 124.15"/><path class="e52858f6-c2f8-4246-958e-f4c14ad0b3c8" d="M278.37,377l.74-.15a2.23,2.23,0,0,1,2.2.74c.61.7.38,1.13-.39,1.28l-.78.15Zm2.15,1.51c.45-.09.61-.31.18-.8a1.27,1.27,0,0,0-1.3-.48l-.12,0,1.13,1.29Z" transform="translate(-138.35 -252.14)"/><path class="a815e930-ca4f-4751-a87d-1723d6d0434e" d="M286.85,401.71l-3.69,2.14v-4.26l3.69-2.13Z" transform="translate(-138.35 -252.14)"/><polygon class="a12322b3-e874-4a05-ab61-7787af46ddb5" points="148.21 145.83 148.21 149.41 145.11 151.19 145.11 150.98 148.05 149.29 148.05 145.92 148.21 145.83"/><polygon class="a73618a7-1b64-42fe-a406-12f6857056e0" points="148.05 145.92 148.05 149.29 145.11 150.98 145.11 147.62 148.05 145.92"/><path class="a815e930-ca4f-4751-a87d-1723d6d0434e" d="M284.14,402l1-2.41-.93.54v-.51l1.58-.91V399l-1,2.41,1-.6v.51l-1.69,1Z" transform="translate(-138.35 -252.14)"/><path class="a12322b3-e874-4a05-ab61-7787af46ddb5" d="M283.16,399.59l-3.69-2.13,3.69-2.14,3.69,2.14Z" transform="translate(-138.35 -252.14)"/><polygon class="a815e930-ca4f-4751-a87d-1723d6d0434e" points="147.91 145.31 147.74 145.42 144.81 143.73 141.9 145.42 141.72 145.31 144.81 143.53 147.91 145.31"/><polygon class="b3e6005c-1782-4e80-a2f2-246b0eb72a45" points="147.74 145.42 144.81 147.1 141.9 145.42 144.81 143.73 147.74 145.42"/><path class="a12322b3-e874-4a05-ab61-7787af46ddb5" d="M283.33,396.35l.56.32-.81.79c-.18.19-.37.35-.56.54h0l.93-.33,1.36-.47.54.32-3,.93-.63-.36Z" transform="translate(-138.35 -252.14)"/><path class="eb82f7b8-9ab7-4336-93ab-e1dd20f0b93f" d="M283.16,403.85l-3.69-2.14v-4.25l3.69,2.13Z" transform="translate(-138.35 -252.14)"/><polygon class="a815e930-ca4f-4751-a87d-1723d6d0434e" points="144.52 150.99 144.52 151.19 141.42 149.41 141.42 145.83 141.6 145.93 141.6 149.3 144.52 150.99"/><polygon class="a1512c52-de3f-4c1a-9e9e-45d5e79052f8" points="144.52 147.62 144.52 150.99 141.6 149.3 141.6 145.93 144.52 147.62"/><path class="eb82f7b8-9ab7-4336-93ab-e1dd20f0b93f" d="M281.17,400.38l-.61-1.66.59.34.2.62c.06.16.11.33.17.53h0c0-.14.1-.25.14-.34l.19-.4.56.32-.6,1,.64,1.72-.58-.34-.24-.68c0-.17-.11-.34-.17-.54h0c0,.14-.1.24-.15.35l-.22.42-.57-.32Z" transform="translate(-138.35 -252.14)"/><path class="e9a5e3c8-4fe6-4c3a-a6c6-1a3b99f1cbfb" d="M342.81,367.77c7.56,4.37,2.68,14.26-10.9,22.1s-30.72,10.66-38.29,6.3-2.68-14.26,10.91-22.11S335.25,363.4,342.81,367.77Z" transform="translate(-138.35 -252.14)"/><path class="f39901f6-678d-4bb2-a25a-c70c91a59e92" d="M301.56,311s2.06-4.3,8.56-2.6c7.68,2,6.41,10.27,8.1,11.87-6.16,2-8.51-5-11-4.19-.86.28-5.38-2.18-5.38-2.18Z" transform="translate(-138.35 -252.14)"/><path class="fa7a63d5-d0b5-4c56-9477-ac0b025db75b" d="M310.79,350.08s.15.93,0,1.07c-8.13,8.13-12.71,24.82-13.92,27.07s-2.7,4.58-3.12,5.79,4.09,5.36,5.76,4.85c2.63-.79,7.35-6.89,7.35-6.89l3.49-3.2,15.85-23.08-12-8.71Z" transform="translate(-138.35 -252.14)"/><path class="a50d5770-9b3a-48a3-bd47-bd4b96e3cbf4" d="M335.1,380.61s5.62,2.47,6.73,3.45,2.23,3.17,2.85,3.31,1.67-.09,1.91-.74.11-5.5-1.19-7.29a119.16,119.16,0,0,0-9.23-9.42,3.09,3.09,0,0,0-3.19-.05,15.17,15.17,0,0,0-2.17,2.21v4Z" transform="translate(-138.35 -252.14)"/><path class="aa7d7cba-bcb8-42cf-80ca-74b11b100dc8" d="M313.68,351.59a52.19,52.19,0,0,0,5.67,8.21c-5.28,5.64-16.4,29-17.14,30.27s3.79,6,6.16,5.45c7.34-1.73,13.89-13.44,27.06-14.7,3.13-.3-2.55-10.44-4.81-8.62a20,20,0,0,1-3.61,2.26c1.36-1.62,9.72-11.09,11-18.6,1.45-8.54-5.82-10.67-5.82-10.67l-19.18.65Z" transform="translate(-138.35 -252.14)"/><path class="a89bfdd2-b35e-4354-9cba-32b5c2f89070" d="M282.26,368a47.51,47.51,0,0,0-4.64,3.67c-.75.91-1.8,6.6-.92,6.82,1.66.41,3.37-4.16,3.37-4.16s2.6-1.47,3.28-1.1.33,4.38,1.09,4.56S286,374,286.25,373a15.45,15.45,0,0,0,0-3.54l-.35-1.67-2.19-1Z" transform="translate(-138.35 -252.14)"/><path class="a76181ec-cd8b-4958-ae28-8fbf6febdeb5" d="M282.26,368a4.22,4.22,0,0,1,4,1.43c3.07-7.91,9.37-14.09,10.54-19.73.78-4.46,7-15.55,6.73-17.65-.46-3.94-7.38-2.07-7.38-2.07s-5.29,15.23-5.29,17.2C287.13,352.57,285.84,359.33,282.26,368Z" transform="translate(-138.35 -252.14)"/><polygon class="b3d773ef-8dcf-4b72-930c-6fe90eb7c134" points="161.89 80.77 163.99 85.44 168.71 87.33 174.41 83.1 174.66 74.36 171.21 71.8 168.11 70.54 164.83 71.96 161.16 75.25 161.89 80.77"/><path class="a50c1b60-2ff3-4b69-87cc-1fb94db2583e" d="M307.5,323.82s4.41,2.36,4,6.07-4.08,7.78-6.42,7.18-3.27-3.59-3.27-3.59l-2.53-.23s-1.64,9.85,2.36,11.93c2,1.05,10,5.39,11.77,6.28a5.29,5.29,0,0,0,1.82.56c4.58,6.25,12.88,8.44,16.9,6.08,3.65-2.14,8.21-7.83-.36-13.19-3.91-8.32-9.11-14.44-10.75-15.7a59.2,59.2,0,0,0-12.12-6.65Z" transform="translate(-138.35 -252.14)"/><path class="a76181ec-cd8b-4958-ae28-8fbf6febdeb5" d="M315.23,352s3.68,1.18,4.35-3.43A6.43,6.43,0,0,1,315.23,352Z" transform="translate(-138.35 -252.14)"/><path class="a76181ec-cd8b-4958-ae28-8fbf6febdeb5" d="M323.76,352.82l-1.92,4.33a34.7,34.7,0,0,0,13.63,2.62c1.28-.07,4.42-1.49,2.9-4.46-2.47-4.84-8.69-13.91-9.92-15.63-2.32-3.22-5.07-9.6-9.9-5.87-5.79,4.48,3,11.33,3,11.33s4.32,5.3,6.56,7.95A38.2,38.2,0,0,1,323.76,352.82Z" transform="translate(-138.35 -252.14)"/><path class="a89bfdd2-b35e-4354-9cba-32b5c2f89070" d="M320.4,353.81a10.66,10.66,0,0,1,0-3c-.32-.67-1.89-2.53-.94-3.17.62-.43,2.19,2.13,2.46,2.1s.49-.65.41-1.17-.07-1.45.67-1.58,2,1.72,2.22,2.82a7,7,0,0,1-.27,4.4c-.59,1.26-2.44,3.06-3.32,2.94C319.32,356.83,320.4,353.81,320.4,353.81Z" transform="translate(-138.35 -252.14)"/><path class="eb82f7b8-9ab7-4336-93ab-e1dd20f0b93f" d="M304.07,315.68a2.78,2.78,0,1,1-.12-3.76A2.66,2.66,0,0,1,304.07,315.68Z" transform="translate(-138.35 -252.14)"/><path class="a89bfdd2-b35e-4354-9cba-32b5c2f89070" d="M288.21,325s1.33,4.81,3.55,6.45a18.66,18.66,0,0,0,.74,2.74c.3.33,2-.2,2-.2l3.34,2.07a2.16,2.16,0,0,0,2.42-.31c2.21-1.61,4.13-3.53,3-5.81a2.47,2.47,0,0,0,1.73-3.23,10.28,10.28,0,0,0,.26-4.08,9,9,0,0,0-1.55-3.8l-4.16-2.73L293,318.25l-1,3.69Z" transform="translate(-138.35 -252.14)"/><path class="f2f4bee5-7208-408c-9820-3c9d3496aaca" d="M303.9,326.05c-1.9-.05-2.65,4.57-3.86,4-2.55-1.14-2.29.54-3.54.1s-1.49-1.37-2-1.65c-1.18-.71-2.49.35-5-1.4-2.79-2-1.68-8,2.54-12.26,7.09-7.2,18.6.8,17.53,7.45-.45,2.86-4.42,5.62-4.63,4.42C305,326.37,304.51,326.07,303.9,326.05Z" transform="translate(-138.35 -252.14)"/><path class="b9988ed0-0a7d-4b92-980a-6236add259e5" d="M328.11,353.09s5.39-.27,7.32,1.13C334.69,353.83,328.11,353.09,328.11,353.09Z" transform="translate(-138.35 -252.14)"/><path class="fa7a63d5-d0b5-4c56-9477-ac0b025db75b" d="M327,374.46s-6,9.92-16.22,15C319.3,384,327,374.46,327,374.46Z" transform="translate(-138.35 -252.14)"/><polygon class="e9a5e3c8-4fe6-4c3a-a6c6-1a3b99f1cbfb" points="124.58 148.69 129.89 145.63 144.81 154.24 139.5 157.31 124.58 148.69"/><polygon class="a911daff-cc2c-4205-96a1-734f2f3a0dad" points="144.44 148.11 143.99 148.37 143.9 148.32 144.36 148.06 144.44 148.11"/><polygon class="a2775b4c-06b6-46d6-8916-71cfe3b1ff70" points="144.44 148.11 143.99 148.37 143.9 148.32 143.99 148.35 144.44 148.11"/><polygon class="fe38c24e-9c1d-4019-9077-a836ecedb97f" points="143.99 149.51 143.9 149.46 143.9 148.32 143.99 148.37 143.99 149.51"/><polygon class="a2775b4c-06b6-46d6-8916-71cfe3b1ff70" points="143.99 149.51 143.97 148.4 143.9 148.32 143.99 148.37 143.99 149.51"/><polygon class="ed5db172-2a9c-4493-9069-8f2862105d98" points="144.44 149.24 143.99 149.51 143.99 148.37 144.44 148.11 144.44 149.24"/><polygon class="a2775b4c-06b6-46d6-8916-71cfe3b1ff70" points="144.02 148.4 143.99 149.51 143.99 148.37 144.44 148.11 144.02 148.4"/><path class="aa2707c3-26a6-4559-ae10-480e287b12d6" d="M282.33,401.44a.1.1,0,0,0,0-.07h0l-.12.07.06.1.12-.07h0A0,0,0,0,0,282.33,401.44Z" transform="translate(-138.35 -252.14)"/><path class="b9d31f48-efc8-41ed-8ee7-f166ef989fa5" d="M282.21,401.51s0,0,0,0a.08.08,0,0,1,0-.08s0,0,0,0A.08.08,0,0,1,282.21,401.51Z" transform="translate(-138.35 -252.14)"/><polygon class="f26df6b0-3f7c-4483-8a5d-6f3a1ee2f69d" points="136.66 153.15 135.72 153.69 135.72 154.24 136.66 153.7 136.66 153.15"/><polygon class="f26df6b0-3f7c-4483-8a5d-6f3a1ee2f69d" points="128.32 148.34 127.38 148.88 127.38 149.42 128.32 148.88 128.32 148.34"/><path class="b9439311-d9c2-4226-96fc-8928b5412fc8" d="M281.26,397.9a1.6,1.6,0,0,0-.64-.79L269,390.33a.52.52,0,0,0-.53-.05h0l-5.34,3.09L276,401Z" transform="translate(-138.35 -252.14)"/><path class="ef794e50-e646-401d-bd53-bd1d600a2186" d="M282.59,402.36l-5.32,3.07.63,3.17,5.31-3.07v-1.72a2,2,0,0,0-.41-1.14Z" transform="translate(-138.35 -252.14)"/><polygon class="b3e6005c-1782-4e80-a2f2-246b0eb72a45" points="139.88 155.07 140.35 154.8 140.35 154.25 139.88 154.52 139.88 155.07"/><polygon class="b3e6005c-1782-4e80-a2f2-246b0eb72a45" points="140.46 154.19 140.46 154.74 140.93 154.46 140.93 153.92 140.46 154.19"/><polygon class="b3e6005c-1782-4e80-a2f2-246b0eb72a45" points="143.56 152.94 144.03 152.67 144.03 152.12 143.56 152.4 143.56 152.94"/><polygon class="b3e6005c-1782-4e80-a2f2-246b0eb72a45" points="144.13 152.07 144.13 152.61 144.6 152.34 144.6 151.79 144.13 152.07"/><polygon class="ea5a4687-8eda-4755-8408-e931ad60c6aa" points="139.88 155.28 140.35 155.01 140.35 154.79 139.88 155.07 139.88 155.28"/><polygon class="ea5a4687-8eda-4755-8408-e931ad60c6aa" points="140.46 154.74 140.46 154.95 140.93 154.68 140.93 154.46 140.46 154.74"/><polygon class="ea5a4687-8eda-4755-8408-e931ad60c6aa" points="143.56 153.16 144.03 152.88 144.03 152.67 143.56 152.94 143.56 153.16"/><polygon class="ea5a4687-8eda-4755-8408-e931ad60c6aa" points="144.13 152.61 144.13 152.83 144.6 152.55 144.6 152.34 144.13 152.61"/><polygon class="aa1da527-518a-43d7-8692-637ca48fcf22" points="144.24 150.22 138.93 153.29 138.89 153.06 144.2 149.99 144.24 150.22"/><path class="b1b71fa0-b2dc-4aa5-a3e1-11d99b967b63" d="M275.06,406c-.43-.25-.78-.05-.78.45a1.69,1.69,0,0,0,.78,1.33c.42.25.77.05.77-.44A1.72,1.72,0,0,0,275.06,406Z" transform="translate(-138.35 -252.14)"/><path class="e48d924e-b387-4f76-a320-087f58ee3cf2" d="M275.76,405.59a.54.54,0,0,0-.54-.06h0l-.71.41a.54.54,0,0,1,.55.06,1.72,1.72,0,0,1,.77,1.34.55.55,0,0,1-.21.49l.71-.4a.59.59,0,0,0,.21-.5A1.7,1.7,0,0,0,275.76,405.59Z" transform="translate(-138.35 -252.14)"/><path class="a53a94fb-a9c0-4bfb-b09c-8da0456df38d" d="M275.09,406a.58.58,0,0,0-.54-.07l0,0a.54.54,0,0,1,.55.06,1.72,1.72,0,0,1,.77,1.34.55.55,0,0,1-.21.49l0,0a.54.54,0,0,0,.21-.49A1.69,1.69,0,0,0,275.09,406Z" transform="translate(-138.35 -252.14)"/><path class="f2996d4c-c4b5-4c1c-b705-ca646710ad39" d="M275.32,405.84a.54.54,0,0,0-.54,0l0,0a.56.56,0,0,1,.55.05,1.74,1.74,0,0,1,.77,1.35.57.57,0,0,1-.21.49h0l0,0a.54.54,0,0,0,.21-.49A1.71,1.71,0,0,0,275.32,405.84Z" transform="translate(-138.35 -252.14)"/><path class="f2996d4c-c4b5-4c1c-b705-ca646710ad39" d="M275.56,405.71a.58.58,0,0,0-.54-.07l0,0a.54.54,0,0,1,.54.05,1.75,1.75,0,0,1,.78,1.35.56.56,0,0,1-.21.49l0,0a.54.54,0,0,0,.21-.49A1.71,1.71,0,0,0,275.56,405.71Z" transform="translate(-138.35 -252.14)"/><path class="b1b71fa0-b2dc-4aa5-a3e1-11d99b967b63" d="M275.89,407.12l.06-.18-.14-.13,0-.19-.17-.11,0-.19-.2-.06,0-.19-.21,0-.05-.14-.25,0-.08-.07-.23.06-.06,0,0,0,.08,0,.21-.06.09.07.25,0,.05.15.2,0,0,.18.2.06v.2l.17.1,0,.19.15.13-.06.18.1.15-.1.16.05.1-.13.14,0,.07,0,0v-.05l.14-.14,0-.11.09-.15Z" transform="translate(-138.35 -252.14)"/><path class="b1b71fa0-b2dc-4aa5-a3e1-11d99b967b63" d="M276.14,407l.06-.17-.14-.14,0-.19-.17-.1,0-.2-.2-.05,0-.19-.2,0-.05-.14-.25,0-.08-.07-.24.06-.05,0,0,0,.08,0,.21-.06.09.08.25,0,0,.14.21,0,0,.19.2.05,0,.21.18.1,0,.18.14.14-.05.17.1.16-.1.16.05.1-.13.13,0,.07h0v0l.14-.14-.05-.11.1-.15Z" transform="translate(-138.35 -252.14)"/><path class="b1b71fa0-b2dc-4aa5-a3e1-11d99b967b63" d="M276.39,406.83l.06-.17-.15-.14,0-.19-.17-.1V406L276,406l0-.19-.21,0,0-.13-.25,0-.08-.07-.24.07h-.05l0,0,.08,0,.21-.06.09.07.24,0,.05.14.21,0,0,.18.19.06v.2l.17.1,0,.19.14.13-.06.18.1.16-.09.15.05.11-.13.13,0,.06h0v-.05l.14-.13-.05-.11.1-.15Z" transform="translate(-138.35 -252.14)"/><path class="b2943a7f-edc8-4c82-b230-34172bcf85ce" d="M275.06,406.26c-.31-.17-.56,0-.56.32a1.21,1.21,0,0,0,.56.95c.3.17.54,0,.54-.32A1.2,1.2,0,0,0,275.06,406.26Z" transform="translate(-138.35 -252.14)"/><path class="f0b24ec4-02b4-44d5-8ed7-3ea6bcd0ce0b" d="M275.06,406.34c-.27-.16-.49,0-.49.28a1.08,1.08,0,0,0,.49.83c.26.15.47,0,.47-.28A1.07,1.07,0,0,0,275.06,406.34Z" transform="translate(-138.35 -252.14)"/><path class="b565c2bf-c61a-44bc-b448-4bebfd231853" d="M274.88,406.79a.39.39,0,0,0,.18.3c.09.05.16,0,.16-.1a.39.39,0,0,0-.16-.3C275,406.64,274.88,406.69,274.88,406.79Z" transform="translate(-138.35 -252.14)"/><path class="a53a94fb-a9c0-4bfb-b09c-8da0456df38d" d="M275,406.87a.08.08,0,0,0,.05.07s0,0,0,0a.12.12,0,0,0,0-.08S275,406.83,275,406.87Z" transform="translate(-138.35 -252.14)"/><path class="b478082c-81b5-4f14-bba9-3ab9756476bc" d="M275.12,406.81h0a0,0,0,0,0,0,.05s0,0,0,0,0,0,0,0a0,0,0,0,1,0,0S275.11,406.82,275.12,406.81Z" transform="translate(-138.35 -252.14)"/><path class="f2996d4c-c4b5-4c1c-b705-ca646710ad39" d="M275.12,406.81s0,0,0,0a0,0,0,0,0,0,0,.1.1,0,0,0,0,0Z" transform="translate(-138.35 -252.14)"/><path class="b478082c-81b5-4f14-bba9-3ab9756476bc" d="M275.12,407h0s0,0,0,.06,0,0,0,0h0a.05.05,0,0,1,0,0S275.11,407,275.12,407Z" transform="translate(-138.35 -252.14)"/><path class="f2996d4c-c4b5-4c1c-b705-ca646710ad39" d="M275.12,407s0,0,0,0a.05.05,0,0,0,0,0,.06.06,0,0,0,0,0Z" transform="translate(-138.35 -252.14)"/><path class="b478082c-81b5-4f14-bba9-3ab9756476bc" d="M275,406.89h0s0,0,0,.05,0,0,0,0a0,0,0,0,1,0,0l0,0A.11.11,0,0,1,275,406.89Z" transform="translate(-138.35 -252.14)"/><path class="f2996d4c-c4b5-4c1c-b705-ca646710ad39" d="M275,406.89a.11.11,0,0,0,0,.05l0,0a.08.08,0,0,0,0,0S275,406.9,275,406.89Z" transform="translate(-138.35 -252.14)"/><path class="b478082c-81b5-4f14-bba9-3ab9756476bc" d="M275,406.72h0s0,0,0,0,0,0,0,0h0a.05.05,0,0,1,0,0A.06.06,0,0,1,275,406.72Z" transform="translate(-138.35 -252.14)"/><path class="f2996d4c-c4b5-4c1c-b705-ca646710ad39" d="M275,406.72a.06.06,0,0,0,0,0,.05.05,0,0,0,0,0,.06.06,0,0,0,0,0A.05.05,0,0,0,275,406.72Z" transform="translate(-138.35 -252.14)"/><path class="a53a94fb-a9c0-4bfb-b09c-8da0456df38d" d="M274.94,406.29l-.05,0a.32.32,0,0,0,.17.26c.06,0,.11,0,.14,0a.12.12,0,0,1-.1,0A.36.36,0,0,1,274.94,406.29Z" transform="translate(-138.35 -252.14)"/><path class="f2996d4c-c4b5-4c1c-b705-ca646710ad39" d="M274.94,406.29a.36.36,0,0,0,.16.22.12.12,0,0,0,.1,0,.08.08,0,0,0,0,0,.48.48,0,0,0-.16-.13Z" transform="translate(-138.35 -252.14)"/><path class="a53a94fb-a9c0-4bfb-b09c-8da0456df38d" d="M275.26,407.29h0c-.06,0-.08.11,0,.21a.24.24,0,0,0,.22-.05.27.27,0,0,1-.18,0A.2.2,0,0,1,275.26,407.29Z" transform="translate(-138.35 -252.14)"/><path class="f2996d4c-c4b5-4c1c-b705-ca646710ad39" d="M275.25,407.48a.27.27,0,0,0,.18,0l0,0c-.06-.09-.15-.14-.21-.12A.2.2,0,0,0,275.25,407.48Z" transform="translate(-138.35 -252.14)"/><path class="a53a94fb-a9c0-4bfb-b09c-8da0456df38d" d="M275.41,406.77c-.06,0-.08.09-.06.18a.36.36,0,0,0,.18.24v-.05a.52.52,0,0,1-.14-.21A.25.25,0,0,1,275.41,406.77Z" transform="translate(-138.35 -252.14)"/><path class="f2996d4c-c4b5-4c1c-b705-ca646710ad39" d="M275.41,406.77a.25.25,0,0,0,0,.16.52.52,0,0,0,.14.21.86.86,0,0,0-.1-.37Z" transform="translate(-138.35 -252.14)"/><path class="a53a94fb-a9c0-4bfb-b09c-8da0456df38d" d="M274.64,406.94a1.16,1.16,0,0,0,.26.39s0,0,0-.05a1.56,1.56,0,0,1-.23-.34Z" transform="translate(-138.35 -252.14)"/><path class="f2996d4c-c4b5-4c1c-b705-ca646710ad39" d="M274.69,406.94a1.56,1.56,0,0,0,.23.34.34.34,0,0,0-.06-.21A.26.26,0,0,0,274.69,406.94Z" transform="translate(-138.35 -252.14)"/><path class="a53a94fb-a9c0-4bfb-b09c-8da0456df38d" d="M274.62,406.58a.36.36,0,0,1,.07-.24h0a.37.37,0,0,0-.11.29v0c.07.05.14.05.18,0a.16.16,0,0,1-.13,0Z" transform="translate(-138.35 -252.14)"/><path class="f2996d4c-c4b5-4c1c-b705-ca646710ad39" d="M274.62,406.58v0a.16.16,0,0,0,.13,0v0a.33.33,0,0,0-.07-.28A.36.36,0,0,0,274.62,406.58Z" transform="translate(-138.35 -252.14)"/><path class="b1b71fa0-b2dc-4aa5-a3e1-11d99b967b63" d="M266.69,401.17c-.43-.25-.78-.05-.78.44a1.72,1.72,0,0,0,.78,1.35c.43.25.78.05.78-.45A1.7,1.7,0,0,0,266.69,401.17Z" transform="translate(-138.35 -252.14)"/><path class="e48d924e-b387-4f76-a320-087f58ee3cf2" d="M267.39,400.76a.52.52,0,0,0-.53-.06h0l-.71.41a.54.54,0,0,1,.54.06,1.7,1.7,0,0,1,.78,1.34.56.56,0,0,1-.22.49l.71-.41a.55.55,0,0,0,.21-.49A1.72,1.72,0,0,0,267.39,400.76Z" transform="translate(-138.35 -252.14)"/><path class="a53a94fb-a9c0-4bfb-b09c-8da0456df38d" d="M266.72,401.15a.52.52,0,0,0-.54-.06l0,0a.54.54,0,0,1,.54.06,1.7,1.7,0,0,1,.78,1.34.56.56,0,0,1-.22.49l0,0a.54.54,0,0,0,.22-.49A1.72,1.72,0,0,0,266.72,401.15Z" transform="translate(-138.35 -252.14)"/><path class="f2996d4c-c4b5-4c1c-b705-ca646710ad39" d="M267,401a.56.56,0,0,0-.54-.05l0,0a.54.54,0,0,1,.54,0,1.72,1.72,0,0,1,.78,1.35.54.54,0,0,1-.22.49h0l0,0a.54.54,0,0,0,.21-.49A1.72,1.72,0,0,0,267,401Z" transform="translate(-138.35 -252.14)"/><path class="f2996d4c-c4b5-4c1c-b705-ca646710ad39" d="M267.19,400.88a.54.54,0,0,0-.54-.06l0,0a.52.52,0,0,1,.54.06,1.69,1.69,0,0,1,.77,1.34.56.56,0,0,1-.21.49l0,0a.54.54,0,0,0,.22-.49A1.7,1.7,0,0,0,267.19,400.88Z" transform="translate(-138.35 -252.14)"/><path class="b1b71fa0-b2dc-4aa5-a3e1-11d99b967b63" d="M267.53,402.29l.06-.18-.15-.13,0-.19-.18-.1,0-.2-.2-.06,0-.19-.2,0,0-.14-.26,0-.07-.07-.24.06,0,0,0,0,.08,0,.21-.06.08.07.25,0,.05.14.21,0v.19l.2.06v.2l.17.1,0,.18.14.14-.06.18.1.16-.09.15,0,.11-.13.13v.06h0v0l.13-.14,0-.1.1-.15Z" transform="translate(-138.35 -252.14)"/><path class="b1b71fa0-b2dc-4aa5-a3e1-11d99b967b63" d="M267.77,402.14l.07-.17-.15-.14,0-.18-.18-.11,0-.19-.2-.07,0-.19-.21,0,0-.14-.26,0-.07-.07-.24.07,0,0,0,0,.07,0,.22,0,.08.07.25,0,.05.13.21,0v.19l.2.06v.2l.17.09,0,.19.14.13-.06.18.1.16-.1.15.06.11-.14.13,0,.07,0,0v-.05l.13-.13,0-.11.1-.15Z" transform="translate(-138.35 -252.14)"/><path class="b1b71fa0-b2dc-4aa5-a3e1-11d99b967b63" d="M268,402l.06-.18-.14-.13,0-.19-.18-.1,0-.2-.2-.06,0-.18-.2,0,0-.13-.26,0-.08-.07-.23.06-.06,0h0l0,0,.08,0,.22-.06.08.07.25,0,0,.14.21,0,0,.18.2.06,0,.21.18.09,0,.19.15.13L268,402l.1.16-.1.15.05.11-.13.13,0,.07,0,0,0-.05.13-.14,0-.1.1-.15Z" transform="translate(-138.35 -252.14)"/><path class="b2943a7f-edc8-4c82-b230-34172bcf85ce" d="M266.69,401.43c-.3-.18-.55,0-.55.32a1.23,1.23,0,0,0,.55.95c.3.17.55,0,.55-.32A1.21,1.21,0,0,0,266.69,401.43Z" transform="translate(-138.35 -252.14)"/><path class="f0b24ec4-02b4-44d5-8ed7-3ea6bcd0ce0b" d="M266.69,401.51c-.27-.15-.48,0-.48.28a1.07,1.07,0,0,0,.48.83.3.3,0,0,0,.48-.28A1.08,1.08,0,0,0,266.69,401.51Z" transform="translate(-138.35 -252.14)"/><path class="b565c2bf-c61a-44bc-b448-4bebfd231853" d="M266.52,402a.4.4,0,0,0,.17.3c.09.05.17,0,.17-.1a.4.4,0,0,0-.17-.3A.11.11,0,0,0,266.52,402Z" transform="translate(-138.35 -252.14)"/><path class="a53a94fb-a9c0-4bfb-b09c-8da0456df38d" d="M266.65,402a.1.1,0,0,0,0,.07s0,0,0,0a.1.1,0,0,0,0-.08S266.65,402,266.65,402Z" transform="translate(-138.35 -252.14)"/><path class="b478082c-81b5-4f14-bba9-3ab9756476bc" d="M266.75,402h0s0,0,0,.06l.05,0h0s0,0,0,0A.08.08,0,0,1,266.75,402Z" transform="translate(-138.35 -252.14)"/><path class="f2996d4c-c4b5-4c1c-b705-ca646710ad39" d="M266.75,402a.08.08,0,0,0,0,0s0,0,0,0,0,0,0,0A.05.05,0,0,0,266.75,402Z" transform="translate(-138.35 -252.14)"/><path class="b478082c-81b5-4f14-bba9-3ab9756476bc" d="M266.75,402.15h0s0,0,0,.06,0,0,0,0h0s0,0,0,0S266.74,402.16,266.75,402.15Z" transform="translate(-138.35 -252.14)"/><path class="f2996d4c-c4b5-4c1c-b705-ca646710ad39" d="M266.75,402.15s0,0,0,0,0,0,0,0,0,0,0,0A0,0,0,0,0,266.75,402.15Z" transform="translate(-138.35 -252.14)"/><path class="b478082c-81b5-4f14-bba9-3ab9756476bc" d="M266.6,402.06h0a.06.06,0,0,0,0,.06s0,0,0,0h0l0,0A.06.06,0,0,1,266.6,402.06Z" transform="translate(-138.35 -252.14)"/><path class="f2996d4c-c4b5-4c1c-b705-ca646710ad39" d="M266.6,402.06a.06.06,0,0,0,0,0l0,0s0,0,0,0Z" transform="translate(-138.35 -252.14)"/><path class="b478082c-81b5-4f14-bba9-3ab9756476bc" d="M266.6,401.89h0a0,0,0,0,0,0,.05.05.05,0,0,0,.05,0h0l0,0A.08.08,0,0,1,266.6,401.89Z" transform="translate(-138.35 -252.14)"/><path class="f2996d4c-c4b5-4c1c-b705-ca646710ad39" d="M266.6,401.89a.08.08,0,0,0,0,0l0,0a0,0,0,0,0,0,0A.05.05,0,0,0,266.6,401.89Z" transform="translate(-138.35 -252.14)"/><path class="a53a94fb-a9c0-4bfb-b09c-8da0456df38d" d="M266.57,401.45h-.05a.41.41,0,0,0,.17.27.11.11,0,0,0,.15,0,.14.14,0,0,1-.11,0A.48.48,0,0,1,266.57,401.45Z" transform="translate(-138.35 -252.14)"/><path class="f2996d4c-c4b5-4c1c-b705-ca646710ad39" d="M266.57,401.45a.48.48,0,0,0,.16.23.14.14,0,0,0,.11,0s0,0,0-.05a1,1,0,0,0-.17-.13A.34.34,0,0,0,266.57,401.45Z" transform="translate(-138.35 -252.14)"/><path class="a53a94fb-a9c0-4bfb-b09c-8da0456df38d" d="M266.89,402.46h0a.17.17,0,0,0-.05.21.23.23,0,0,0,.23-.05.22.22,0,0,1-.18,0A.19.19,0,0,1,266.89,402.46Z" transform="translate(-138.35 -252.14)"/><path class="f2996d4c-c4b5-4c1c-b705-ca646710ad39" d="M266.89,402.64a.22.22,0,0,0,.18,0l0,0c-.06-.09-.14-.14-.21-.12A.19.19,0,0,0,266.89,402.64Z" transform="translate(-138.35 -252.14)"/><path class="a53a94fb-a9c0-4bfb-b09c-8da0456df38d" d="M267.05,401.94c-.06,0-.09.09-.06.19a.33.33,0,0,0,.18.23v-.05a.42.42,0,0,1-.14-.22A.15.15,0,0,1,267.05,401.94Z" transform="translate(-138.35 -252.14)"/><path class="f2996d4c-c4b5-4c1c-b705-ca646710ad39" d="M267.05,401.94a.15.15,0,0,0,0,.15.42.42,0,0,0,.14.22,1.07,1.07,0,0,0-.1-.38Z" transform="translate(-138.35 -252.14)"/><path class="a53a94fb-a9c0-4bfb-b09c-8da0456df38d" d="M266.28,402.11a1.16,1.16,0,0,0,.26.39s0,0,0-.05a1.13,1.13,0,0,1-.23-.34Z" transform="translate(-138.35 -252.14)"/><path class="f2996d4c-c4b5-4c1c-b705-ca646710ad39" d="M266.33,402.11a1.13,1.13,0,0,0,.23.34.35.35,0,0,0-.07-.21A.22.22,0,0,0,266.33,402.11Z" transform="translate(-138.35 -252.14)"/><path class="a53a94fb-a9c0-4bfb-b09c-8da0456df38d" d="M266.25,401.75a.34.34,0,0,1,.07-.24h0a.39.39,0,0,0-.1.29v0c.07.05.13.05.17,0a.18.18,0,0,1-.13,0Z" transform="translate(-138.35 -252.14)"/><path class="f2996d4c-c4b5-4c1c-b705-ca646710ad39" d="M266.25,401.75v0a.18.18,0,0,0,.13,0s0,0,0,0a.33.33,0,0,0-.08-.27A.34.34,0,0,0,266.25,401.75Z" transform="translate(-138.35 -252.14)"/><path class="e52858f6-c2f8-4246-958e-f4c14ad0b3c8" d="M276,401a1.6,1.6,0,0,0-.64-.79l-11.64-6.78c-.41-.24-.74,0-.74.43v3.11l14.31,8.26Z" transform="translate(-138.35 -252.14)"/><path class="a50c1b60-2ff3-4b69-87cc-1fb94db2583e" d="M274.44,403.14c0,.09-.08.12-.17.07l-1.36-.78V400.2l.15.09v2.06l1.36.77Z" transform="translate(-138.35 -252.14)"/><path class="b5bd8351-79a7-4761-96b0-0e3002a72e6b" d="M274.45,401.3v1.81a0,0,0,0,1,0,0l0,0-1.36-.77v-2.06l1.21.7A.39.39,0,0,1,274.45,401.3Z" transform="translate(-138.35 -252.14)"/><path class="a50c1b60-2ff3-4b69-87cc-1fb94db2583e" d="M276.73,404.46c0,.09-.09.12-.18.07l-1.5-.86a.4.4,0,0,1-.18-.31v-1.82c0-.1.07-.14.16-.11v1.84a.39.39,0,0,0,.18.31Z" transform="translate(-138.35 -252.14)"/><path class="b5bd8351-79a7-4761-96b0-0e3002a72e6b" d="M276.73,404.46l-1.53-.88a.39.39,0,0,1-.18-.31v-1.84h0l.86.49a.59.59,0,0,1,.23.32l.58,2.1A.41.41,0,0,1,276.73,404.46Z" transform="translate(-138.35 -252.14)"/><path class="fccf4433-9f49-424c-a3d8-b6ea331d2651" d="M277.27,405.43l-14.34-8.28V400l2.79,1.62c0-.62.44-.88,1-.56a2.16,2.16,0,0,1,1,1.69l6.38,3.69c0-.63.44-.88,1-.57a2.16,2.16,0,0,1,1,1.69l1.88,1.09v-1.73a2,2,0,0,0-.41-1.14Z" transform="translate(-138.35 -252.14)"/><polygon class="f803d9b5-ed07-4285-9409-02f366c0fba1" points="138.93 153.29 124.58 145 124.58 144.79 138.89 153.06 138.93 153.29"/><path class="fa7a63d5-d0b5-4c56-9477-ac0b025db75b" d="M275.24,404.6l-.2-.12a.14.14,0,0,1-.07-.12h0s0-.07.07,0l.2.11a.17.17,0,0,1,.07.13h0S275.28,404.62,275.24,404.6Z" transform="translate(-138.35 -252.14)"/><path class="fa7a63d5-d0b5-4c56-9477-ac0b025db75b" d="M276.2,407.08l.67.38c.07.05.13,0,.13-.08v-2.11l-.1-.06v2.11s0,0,0,0l-.67-.39a0,0,0,0,1,0,0,2.64,2.64,0,0,0-1.39-1.59l0,0V404l-.1-.06v1.29a.25.25,0,0,0,0,.14.29.29,0,0,0,.11.11,2.44,2.44,0,0,1,1.28,1.45A.34.34,0,0,0,276.2,407.08Z" transform="translate(-138.35 -252.14)"/><polygon class="ea5a4687-8eda-4755-8408-e931ad60c6aa" points="137.6 148.83 142.91 145.76 144.2 149.99 138.89 153.06 137.6 148.83"/><polygon class="a50c1b60-2ff3-4b69-87cc-1fb94db2583e" points="143.9 149.93 139.07 152.72 139.01 152.52 143.69 149.81 142.59 146.18 142.73 146.09 143.9 149.93"/><polygon class="af1b5eff-8993-4c88-b649-9b839d2192f1" points="143.69 149.81 139.01 152.52 137.91 148.88 142.59 146.18 143.69 149.81"/><polygon class="ff34791d-b740-4003-945a-8e88fe040341" points="143.58 149.45 143.23 149.65 142.91 149.34 141.37 150.23 141.37 150.72 138.9 152.15 139.01 152.52 143.69 149.81 143.58 149.45"/><polygon class="ff0a1dba-75d3-49b0-8648-a620d41edaa0" points="137.91 148.88 142.73 146.09 142.98 146.92 138.16 149.71 137.91 148.88"/><polygon class="fe38c24e-9c1d-4019-9077-a836ecedb97f" points="139.51 156.49 138.9 156.14 138.9 155.46 139.51 155.82 139.51 156.49"/><polygon class="a2775b4c-06b6-46d6-8916-71cfe3b1ff70" points="139.51 156.49 139.46 155.86 138.9 155.46 139.51 155.82 139.51 156.49"/><polygon class="ed5db172-2a9c-4493-9069-8f2862105d98" points="145.19 153.21 139.51 156.49 139.51 155.82 145.19 152.54 145.19 153.21"/><polygon class="a2775b4c-06b6-46d6-8916-71cfe3b1ff70" points="139.58 155.86 139.51 156.49 139.51 155.82 145.19 152.54 139.58 155.86"/><polygon class="a911daff-cc2c-4205-96a1-734f2f3a0dad" points="138.9 155.46 139.51 155.82 145.19 152.54 144.86 152.35 144.86 152.56 139.55 155.62 139.09 155.36 138.9 155.46"/><polygon class="a2775b4c-06b6-46d6-8916-71cfe3b1ff70" points="138.9 155.46 139.51 155.82 145.19 152.54 139.51 155.75 138.9 155.46"/><polygon class="e19844f6-dc0c-4fd4-bacc-66d543039b6e" points="143.3 153.31 141.21 154.51 141.21 154.51 141.21 153.76 143.3 152.56 143.3 153.31"/><path class="e57d1574-0a5e-45dc-b6d6-897319dff4e5" d="M281.41,405.53l-1.61.94c-.09,0-.17,0-.17-.1v-.25a.37.37,0,0,1,.17-.29l1.61-.93c.09,0,.17,0,.17.09v.25A.37.37,0,0,1,281.41,405.53Z" transform="translate(-138.35 -252.14)"/><polygon class="b478082c-81b5-4f14-bba9-3ab9756476bc" points="143.23 152.93 141.28 154.06 141.28 153.99 143.23 152.87 143.23 152.93"/><path class="b478082c-81b5-4f14-bba9-3ab9756476bc" d="M281.57,404.94l-1.93,1.11,0-.09,1.85-1.07A.14.14,0,0,1,281.57,404.94Z" transform="translate(-138.35 -252.14)"/><polygon class="b478082c-81b5-4f14-bba9-3ab9756476bc" points="143.23 153.08 141.28 154.2 141.28 154.14 143.23 153.02 143.23 153.08"/><path class="b478082c-81b5-4f14-bba9-3ab9756476bc" d="M281.53,405.4l-1.85,1.07,0,0,1.93-1.11Z" transform="translate(-138.35 -252.14)"/><path class="fccf4433-9f49-424c-a3d8-b6ea331d2651" d="M278.08,406.19c.06.14,4.8-2.71,4.8-2.71S278,406.06,278.08,406.19Z" transform="translate(-138.35 -252.14)"/><polygon class="fba06814-8594-4758-8dc5-2782e74e737b" points="125.01 148.12 124.22 147.66 124.22 146.99 125.01 147.44 125.01 148.12"/><polygon class="a2775b4c-06b6-46d6-8916-71cfe3b1ff70" points="125.01 148.12 124.97 147.47 124.22 146.99 125.01 147.44 125.01 148.12"/><polygon class="a911daff-cc2c-4205-96a1-734f2f3a0dad" points="124.22 146.99 125.01 147.44 125.2 147.33 124.58 146.97 124.58 146.78 124.22 146.99"/><polygon class="a2775b4c-06b6-46d6-8916-71cfe3b1ff70" points="124.22 146.99 125.01 147.44 125.2 147.33 125.01 147.4 124.22 146.99"/><polygon class="ed5db172-2a9c-4493-9069-8f2862105d98" points="125.2 148 125.01 148.12 125.01 147.44 125.2 147.33 125.2 148"/><polygon class="a2775b4c-06b6-46d6-8916-71cfe3b1ff70" points="125.04 147.47 125.01 148.12 125.01 147.44 125.2 147.33 125.04 147.47"/><path class="b5bd8351-79a7-4761-96b0-0e3002a72e6b" d="M281.77,401.54l-1.52-.87a.4.4,0,0,1-.18-.31v-.57l1.05-.6a.69.69,0,0,1,.07.15l.57,2.1A.18.18,0,0,1,281.77,401.54Z" transform="translate(-138.35 -252.14)"/><path class="aa2707c3-26a6-4559-ae10-480e287b12d6" d="M276.87,404.63a.08.08,0,0,0,0-.07h0l-.12.06.06.11.12-.07h0A0,0,0,0,0,276.87,404.63Z" transform="translate(-138.35 -252.14)"/><path class="a3fac1bd-02b0-4445-8d95-a7413428eeaf" d="M276.75,404s0,0,0,0a.12.12,0,0,1,0-.08s0,0,0,0A.1.1,0,0,1,276.75,404Z" transform="translate(-138.35 -252.14)"/><polygon class="a911daff-cc2c-4205-96a1-734f2f3a0dad" points="138.41 151.59 137.95 151.84 137.88 151.8 138.33 151.54 138.41 151.59"/><polygon class="a2775b4c-06b6-46d6-8916-71cfe3b1ff70" points="138.41 151.59 137.95 151.84 137.88 151.8 137.95 151.82 138.41 151.59"/><polygon class="fe38c24e-9c1d-4019-9077-a836ecedb97f" points="137.95 152.98 137.88 152.94 137.88 151.8 137.95 151.84 137.95 152.98"/><polygon class="a2775b4c-06b6-46d6-8916-71cfe3b1ff70" points="137.95 152.98 137.94 151.86 137.88 151.8 137.95 151.84 137.95 152.98"/><polygon class="ed5db172-2a9c-4493-9069-8f2862105d98" points="138.41 152.72 137.95 152.98 137.95 151.84 138.41 151.59 138.41 152.72"/><polygon class="a2775b4c-06b6-46d6-8916-71cfe3b1ff70" points="137.99 151.88 137.95 152.98 137.95 151.84 138.41 151.59 137.99 151.88"/><path class="ff34791d-b740-4003-945a-8e88fe040341" d="M265.15,404.45l-3.7,2.13v-4.26l3.7-2.13Z" transform="translate(-138.35 -252.14)"/><polygon class="b5bd8351-79a7-4761-96b0-0e3002a72e6b" points="126.5 148.56 126.5 152.14 123.4 153.93 123.4 153.71 126.34 152.02 126.34 148.65 126.5 148.56"/><polygon class="a73618a7-1b64-42fe-a406-12f6857056e0" points="126.34 148.65 126.34 152.02 123.4 153.71 123.4 150.35 126.34 148.65"/><path class="ff34791d-b740-4003-945a-8e88fe040341" d="M262.3,403.81a2.45,2.45,0,0,1,1.13-2.06.69.69,0,0,1,.73-.07l-.27.55a.42.42,0,0,0-.44,0,1.42,1.42,0,0,0-.61,1.22c0,.56.21.75.65.5a.78.78,0,0,0,.25-.23v-.46l-.39.23V403l.85-.49v1.24a2.32,2.32,0,0,1-.76.77C262.8,404.91,262.3,404.72,262.3,403.81Z" transform="translate(-138.35 -252.14)"/><path class="b5bd8351-79a7-4761-96b0-0e3002a72e6b" d="M261.45,402.32l-3.69-2.13,3.69-2.13,3.7,2.13Z" transform="translate(-138.35 -252.14)"/><polygon class="ff34791d-b740-4003-945a-8e88fe040341" points="126.2 148.05 126.03 148.15 123.11 146.46 120.19 148.15 120.01 148.05 123.11 146.26 126.2 148.05"/><polygon class="b3e6005c-1782-4e80-a2f2-246b0eb72a45" points="126.03 148.15 123.11 149.84 120.19 148.15 123.11 146.46 126.03 148.15"/><path class="b5bd8351-79a7-4761-96b0-0e3002a72e6b" d="M261.56,399l.57.34-.66.81-.29.33h0l.56-.18,1.41-.38.57.33-2.33,1.34-.48-.27.85-.5c.23-.13.62-.3.87-.41h0l-.74.21-1.23.32-.28-.17.55-.7.37-.43h0a7.81,7.81,0,0,1-.73.5l-.85.49-.47-.27Z" transform="translate(-138.35 -252.14)"/><path class="af1b5eff-8993-4c88-b649-9b839d2192f1" d="M261.45,406.58l-3.69-2.13v-4.26l3.69,2.13Z" transform="translate(-138.35 -252.14)"/><polygon class="ff34791d-b740-4003-945a-8e88fe040341" points="122.81 153.72 122.81 153.93 119.71 152.14 119.71 148.56 119.89 148.66 119.89 152.03 122.81 153.72"/><polygon class="a1512c52-de3f-4c1a-9e9e-45d5e79052f8" points="122.81 150.35 122.81 153.72 119.89 152.03 119.89 148.66 122.81 150.35"/><path class="af1b5eff-8993-4c88-b649-9b839d2192f1" d="M258.73,402.72c0-.88.43-1.14,1.06-.78a2.29,2.29,0,0,1,1.06,2c0,.88-.43,1.16-1.06.79A2.31,2.31,0,0,1,258.73,402.72Zm1.58.9a1.29,1.29,0,0,0-.52-1.15c-.32-.19-.52,0-.52.56a1.33,1.33,0,0,0,.52,1.18C260.11,404.39,260.31,404.17,260.31,403.62Z" transform="translate(-138.35 -252.14)"/><path class="bba4afd0-78f3-47ea-93e2-a1e2d956570b" d="M175.81,341.73a7.35,7.35,0,0,0,.25-1.83,7.45,7.45,0,0,0-6.51-7.27,8.9,8.9,0,0,0-17.6-.08l-.32,0a6.77,6.77,0,0,0-6.59,6.94,7.33,7.33,0,0,0,.36,2.26Z" transform="translate(-138.35 -252.14)"/></g></g></svg>