<svg id="a0256d73-cf58-4d1d-acb9-2ca814220529" data-name="圖層 3" xmlns="http://www.w3.org/2000/svg" viewBox="0 0 513.52 408.18"><defs><style>.bfea883d-4855-49dd-8b5b-7e74f62ec165{isolation:isolate;}.a18b40ac-0b7d-48a6-a323-d20ae8b0342b{fill:#a9a9a9;}.a56c8c75-880c-4866-8229-5ae2d21f12cf{fill:#aaa;}.b9e19133-e5f6-49bb-b357-0c3380ca2bc5{fill:#bbb;}.fb7e9661-dbca-4163-bef9-43a4302f9524{fill:#bcbcbc;}.ad3d6b73-5859-4d13-ba40-13603f81b054{fill:#fafafa;}.b18ca4e6-636e-4cb9-bf00-74a0e6cf2d38{fill:#dcdcdc;}.acab7ea0-09cf-4779-bf18-0c50fdf9c48d{fill:#9e9e9e;}.b0712dd9-ed09-4ef2-93e2-94923b702248{fill:#ddd;}.a05402a6-1427-47c0-8264-733709ec9151{fill:#fbfbfb;}.a0565ca0-8687-4f54-98f6-17e7b8dd86db{fill:#f8f8f8;}.f1bcead1-4874-4d79-93c6-b5cfe76e76b2{fill:#bcbab8;}.a143ed8d-238e-4c95-99a4-a270ce124d2c{fill:#bab8b7;}.ebc35310-f2b2-450f-a3ed-899626e59c41{fill:#bbbbb9;}.b00c27db-6189-481f-9292-63ec2bcfd544{fill:#b9b7b6;}.efd67e02-4479-4a09-a07f-82c9fa4d1695{fill:#f1f1f1;}.fd60086e-38cf-46d2-bf7e-2d2250ac3e28{fill:#bebcba;}.a38680a2-6839-4df2-96a8-292655797bc0{fill:#b7b5b4;}.a47a50f3-7710-4db0-a729-50e98232ba7a{fill:#bdbbb9;}.bd04a79f-e458-4f85-acfa-3a3b00f99515{fill:#b7b7b5;}.bf51f6d6-fe22-4810-bf30-91e4b7fab385{fill:#fff;}.bf85f603-cc6c-415c-906b-a87f77ae79d8{fill:#bcbcba;}.abb1c109-eb29-45c9-8a00-74f63a701b0b{fill:#b8b6b4;}.b1fd3990-e9fd-4090-bba9-141c0dd9ac68{opacity:0.3;}.ed8baa63-6431-41eb-a280-dff4ebeec61b{fill:#843e21;}.b15d7ca7-586e-4301-aeb5-3dfc46db0e13{fill:#f0c6b4;}.fcc498bc-493a-4b12-abca-f051e68fd5a8{fill:#ff8400;}.a824aaf4-0234-41c5-8cae-826b131fa1f5{fill:#883821;}.bd2d2171-99dc-44d7-988e-cae2503eed5e{fill:#c7a496;}.b7fb6f58-5dc0-429d-b9f3-b6566dfbbcab{fill:#a34424;}.ac677e6b-d286-42a6-853e-ae849c98d001{fill:#f2997c;}.a0ffbcf1-7cdc-4ade-9665-44a937d140ba{fill:#603913;}.e5c90cfe-318f-464d-b6f0-11922e906370{fill:#eb6133;}.e7d63806-1b1f-4f8e-89a5-5fb9c66ae2b8{fill:#1d374e;}.f49cd6f9-f2ed-45de-b51b-75e95d4dec1f{fill:#16a89f;}.e7886a36-0193-4a78-89a2-c0cda00a8c0e{fill:#303033;}.f3f0e14b-9687-4615-b2e9-7a60b3d94613{fill:#3576ab;}.fcc54288-4ade-4fda-819b-f5f120bcb1a1{fill:#9c251f;}.e45b5734-70b1-4163-8dfc-9310af90cd6a{fill:#e31b25;}.a079e372-c21d-436d-ad99-21969b134ba1{fill:#ff9d26;}.a8d75f8a-24d8-4f36-b62e-a6bb9a9f1c00{fill:#d1c699;}.b74278ed-3da1-425b-ba36-fe0977dad9e0{fill:#427235;}.f5603167-55c3-41ac-8299-b092425061d6{fill:#806b29;}.f8528828-0bf1-4314-a1ea-447d81bec7e7{fill:#95c73f;}.a9c7232b-6107-41b1-98e2-a53a1025c80c{fill:#24d2c1;}.eb0936d0-e369-413b-baae-ce7542741908{fill:#a69a73;}.bf1d63db-6c32-4b98-a846-69ebc09e264b{fill:#c7b98a;}</style></defs><title>ab3</title><g class="bfea883d-4855-49dd-8b5b-7e74f62ec165"><polygon class="a18b40ac-0b7d-48a6-a323-d20ae8b0342b" points="4.03 213.31 0 215.62 179.91 111.06 179.93 111.08 4.03 213.31"/><polygon class="a18b40ac-0b7d-48a6-a323-d20ae8b0342b" points="4.04 208.64 0.01 210.95 179.93 106.39 179.95 106.42 4.04 208.64"/><polygon class="a18b40ac-0b7d-48a6-a323-d20ae8b0342b" points="4.01 203.96 0.02 206.28 179.94 101.72 179.96 101.71 4.01 203.96"/><polygon class="a18b40ac-0b7d-48a6-a323-d20ae8b0342b" points="4.07 199.3 0.03 201.61 179.95 97.05 179.97 97.07 4.07 199.3"/><polygon class="a56c8c75-880c-4866-8229-5ae2d21f12cf" points="4.08 194.71 0.12 196.91 179.97 92.39 179.99 92.49 4.08 194.71"/><polygon class="b9e19133-e5f6-49bb-b357-0c3380ca2bc5" points="179.93 111.08 179.91 111.06 513.45 303.63 509.44 301.32 179.93 111.08"/><polygon class="b9e19133-e5f6-49bb-b357-0c3380ca2bc5" points="179.95 106.42 179.93 106.39 513.47 298.96 509.45 296.66 179.95 106.42"/><polygon class="b9e19133-e5f6-49bb-b357-0c3380ca2bc5" points="179.97 97.07 179.95 97.05 513.5 289.62 509.48 287.31 179.97 97.07"/><polygon class="fb7e9661-dbca-4163-bef9-43a4302f9524" points="179.99 92.49 179.97 92.39 513.43 284.92 509.49 282.73 179.99 92.49"/><polygon class="ad3d6b73-5859-4d13-ba40-13603f81b054" points="509.44 301.32 513.45 303.63 333.54 408.18 333.53 403.55 509.44 301.32"/><polygon class="b18ca4e6-636e-4cb9-bf00-74a0e6cf2d38" points="333.53 403.55 333.54 408.18 0 215.62 4.03 213.31 333.53 403.55"/><polygon class="ad3d6b73-5859-4d13-ba40-13603f81b054" points="509.45 296.66 513.47 298.96 333.55 403.52 333.54 398.88 509.45 296.66"/><polygon class="acab7ea0-09cf-4779-bf18-0c50fdf9c48d" points="333.55 403.52 333.53 403.55 4.03 213.31 0.01 210.95 333.55 403.52"/><polygon class="acab7ea0-09cf-4779-bf18-0c50fdf9c48d" points="513.47 298.96 509.44 301.32 333.53 403.55 333.55 403.52 513.47 298.96"/><polygon class="b18ca4e6-636e-4cb9-bf00-74a0e6cf2d38" points="333.54 398.88 333.55 403.52 0.01 210.95 4.04 208.64 333.54 398.88"/><polygon class="ad3d6b73-5859-4d13-ba40-13603f81b054" points="509.5 291.98 513.49 294.29 333.56 398.85 333.56 394.22 509.5 291.98"/><polygon class="b18ca4e6-636e-4cb9-bf00-74a0e6cf2d38" points="333.56 394.22 333.56 398.85 0.02 206.28 4.01 203.96 333.56 394.22"/><polygon class="acab7ea0-09cf-4779-bf18-0c50fdf9c48d" points="513.49 294.29 509.45 296.66 333.54 398.88 333.56 398.85 513.49 294.29"/><polygon class="acab7ea0-09cf-4779-bf18-0c50fdf9c48d" points="333.56 398.85 333.54 398.88 4.04 208.64 0.02 206.28 333.56 398.85"/><polygon class="ad3d6b73-5859-4d13-ba40-13603f81b054" points="509.48 287.31 513.5 289.62 333.58 394.18 333.57 389.54 509.48 287.31"/><polygon class="acab7ea0-09cf-4779-bf18-0c50fdf9c48d" points="333.58 394.18 333.56 394.22 4.01 203.96 0.03 201.61 333.58 394.18"/><polygon class="acab7ea0-09cf-4779-bf18-0c50fdf9c48d" points="513.5 289.62 509.5 291.98 333.56 394.22 333.58 394.18 513.5 289.62"/><polygon class="b18ca4e6-636e-4cb9-bf00-74a0e6cf2d38" points="333.57 389.54 333.58 394.18 0.03 201.61 4.07 199.3 333.57 389.54"/><polygon class="b0712dd9-ed09-4ef2-93e2-94923b702248" points="333.58 384.95 333.59 389.43 0.12 196.91 4.08 194.71 333.58 384.95"/><polygon class="acab7ea0-09cf-4779-bf18-0c50fdf9c48d" points="333.59 389.43 333.57 389.54 4.07 199.3 0.12 196.91 333.59 389.43"/><polygon class="acab7ea0-09cf-4779-bf18-0c50fdf9c48d" points="513.43 284.92 509.48 287.31 333.57 389.54 333.59 389.43 513.43 284.92"/><polygon class="ad3d6b73-5859-4d13-ba40-13603f81b054" points="509.49 282.73 513.43 284.92 333.59 389.43 333.58 384.95 509.49 282.73"/><polygon class="acab7ea0-09cf-4779-bf18-0c50fdf9c48d" points="333.6 384.93 333.58 384.95 4.08 194.71 0.07 192.36 333.6 384.93"/><polygon class="a05402a6-1427-47c0-8264-733709ec9151" points="513.52 280.38 333.6 384.93 0.07 192.36 179.98 87.81 513.52 280.38"/><polygon class="acab7ea0-09cf-4779-bf18-0c50fdf9c48d" points="513.52 280.38 509.49 282.73 333.58 384.95 333.6 384.93 513.52 280.38"/></g><g class="bfea883d-4855-49dd-8b5b-7e74f62ec165"><polygon class="a0565ca0-8687-4f54-98f6-17e7b8dd86db" points="511.49 275.44 334.43 377.69 6.18 189.38 183.24 87.14 511.49 275.44"/><polygon class="f1bcead1-4874-4d79-93c6-b5cfe76e76b2" points="511.49 275.44 511.49 276.85 334.43 379.09 334.43 377.69 511.49 275.44"/><polygon class="a143ed8d-238e-4c95-99a4-a270ce124d2c" points="334.43 377.69 334.43 379.09 6.18 190.78 6.18 189.38 334.43 377.69"/></g><g class="bfea883d-4855-49dd-8b5b-7e74f62ec165"><polygon class="a05402a6-1427-47c0-8264-733709ec9151" points="192.96 89.55 492.96 292.86 301.7 386.25 1.7 182.94 192.96 89.55"/><polygon class="ebc35310-f2b2-450f-a3ed-899626e59c41" points="492.96 292.86 492.96 294.27 301.7 387.66 301.7 386.25 492.96 292.86"/><polygon class="b00c27db-6189-481f-9292-63ec2bcfd544" points="301.7 386.25 301.7 387.66 1.7 184.35 1.7 182.94 301.7 386.25"/></g><g class="bfea883d-4855-49dd-8b5b-7e74f62ec165"><polygon class="efd67e02-4479-4a09-a07f-82c9fa4d1695" points="260.98 80.2 486.08 313.29 266.58 383.22 41.49 150.12 260.98 80.2"/><polygon class="fd60086e-38cf-46d2-bf7e-2d2250ac3e28" points="486.08 313.37 486.07 314.78 266.58 384.71 266.58 383.3 486.08 313.37"/><polygon class="a38680a2-6839-4df2-96a8-292655797bc0" points="266.58 383.3 266.58 384.71 41.48 151.61 41.49 150.21 266.58 383.3"/></g><g class="bfea883d-4855-49dd-8b5b-7e74f62ec165"><polygon class="a0565ca0-8687-4f54-98f6-17e7b8dd86db" points="210.33 89.91 486.08 304.29 284.33 390.07 8.59 175.7 210.33 89.91"/><polygon class="a47a50f3-7710-4db0-a729-50e98232ba7a" points="486.08 304.29 486.07 305.69 284.33 391.48 284.33 390.07 486.08 304.29"/><polygon class="bd04a79f-e458-4f85-acfa-3a3b00f99515" points="284.33 390.07 284.33 391.48 8.59 177.11 8.59 175.7 284.33 390.07"/></g><g class="bfea883d-4855-49dd-8b5b-7e74f62ec165"><polygon class="a0565ca0-8687-4f54-98f6-17e7b8dd86db" points="511.49 275.53 334.44 377.77 6.19 189.46 183.25 87.22 511.49 275.53"/><polygon class="f1bcead1-4874-4d79-93c6-b5cfe76e76b2" points="511.49 275.53 511.49 276.93 334.43 379.17 334.44 377.77 511.49 275.53"/><polygon class="a143ed8d-238e-4c95-99a4-a270ce124d2c" points="334.44 377.77 334.43 379.17 6.18 190.87 6.19 189.46 334.44 377.77"/></g><g class="bfea883d-4855-49dd-8b5b-7e74f62ec165"><polygon class="bf51f6d6-fe22-4810-bf30-91e4b7fab385" points="228.56 80.71 483.42 303.46 273.74 382.71 18.88 159.95 228.56 80.71"/><polygon class="bf85f603-cc6c-415c-906b-a87f77ae79d8" points="483.42 303.46 483.41 304.87 273.73 384.11 273.74 382.71 483.42 303.46"/><polygon class="abb1c109-eb29-45c9-8a00-74f63a701b0b" points="273.74 382.71 273.73 384.11 18.88 161.36 18.88 159.95 273.74 382.71"/></g><path class="b1fd3990-e9fd-4090-bba9-141c0dd9ac68" d="M304.94,241c-2.94,7.54-21.74,7.25-42-.63S228.65,220,231.58,212.44s21.74-7.26,42,.63S307.87,233.47,304.94,241Z" transform="translate(-54.36 -94.92)"/><path class="bf51f6d6-fe22-4810-bf30-91e4b7fab385" d="M237,216.8l1.59,2.72s10.45.54,10.28,1.62a2.08,2.08,0,0,1-1.14,1.8c-5.44,1.95-10.91-1.38-11.73-2.6s-2.21-11.59-1.52-13.76a2.59,2.59,0,0,1,1.17-1.47C236.77,204.45,237,216.8,237,216.8Z" transform="translate(-54.36 -94.92)"/><path class="ed8baa63-6431-41eb-a280-dff4ebeec61b" d="M245.66,211.12l1.09,3.6a27.8,27.8,0,0,1,2.61,2.64c.72.95.44,3.66-1.1,4.21-5.44,2-10.49-.93-11.31-2.13s-2.21-11.6-1.52-13.77,3.39-2.1,4.37-2a12.79,12.79,0,0,1,3.84,1.32C244.61,205.46,245.66,211.12,245.66,211.12Z" transform="translate(-54.36 -94.92)"/><path class="b15d7ca7-586e-4301-aeb5-3dfc46db0e13" d="M290.44,143.39c2.44,5.91,6.88,17.74,6.88,17.74s5.08,4.27,5.28,6.23-1.91,8.22-4.76,8-1.31-5.55-1.31-5.55a40.11,40.11,0,0,1-3.59-2.84c-1-1-1.07-3.79-1.07-3.79s-5.18-6.49-7.49-9.29,0-9.61,0-9.61S289.86,143.12,290.44,143.39Z" transform="translate(-54.36 -94.92)"/><path class="fcc498bc-493a-4b12-abca-f051e68fd5a8" d="M280.17,147.09c-1.86-4.64-3.7-10.45-3.7-10.45S286.65,132,287.93,132c2.38,0,2.95,8.55,3.87,10.45C293.76,146.56,282,151.75,280.17,147.09Z" transform="translate(-54.36 -94.92)"/><path class="bf51f6d6-fe22-4810-bf30-91e4b7fab385" d="M283.17,232.33l.06,1.88s5.43,6.69,10.85,7.55,7.5-2.29,7.5-2.29a7.29,7.29,0,0,0,.07-1.18C301.64,237.08,283.17,232.33,283.17,232.33Z" transform="translate(-54.36 -94.92)"/><path class="ed8baa63-6431-41eb-a280-dff4ebeec61b" d="M283,227.46l.21,4.87s5.49,7.1,10.91,8,7.53-2,7.53-2,1.44-3.74-.95-5.28c-5.24-3.38-8.86-6.3-8.86-6.3Z" transform="translate(-54.36 -94.92)"/><path class="b15d7ca7-586e-4301-aeb5-3dfc46db0e13" d="M281.17,203.86c-.17,8.45,1.76,21,1.76,23.32,0,3.35,8.65,3.22,8.87-.46.41-6.84,2-24.32,1.44-25.63s-7.05-2.51-7.05-2.51S281.11,199,281.17,203.86Z" transform="translate(-54.36 -94.92)"/><path class="a824aaf4-0234-41c5-8cae-826b131fa1f5" d="M271.35,185.62s5.49,12.69,6.79,17.9c1,4.06,16.76,0,15.66-4.37s-3.32-15.33-6.74-22.39c-.82-1.18-12-1.91-12-1.91Z" transform="translate(-54.36 -94.92)"/><rect class="bd2d2171-99dc-44d7-988e-cae2503eed5e" x="214.91" y="37.73" width="19.13" height="17.92"/><path class="b15d7ca7-586e-4301-aeb5-3dfc46db0e13" d="M250.17,198.55c-3.28.93-9.32,5.87-9.32,5.87s-2.34,1.64-1.88,3.88c.75,3.68,3.11,3.63,3.11,3.63s14.15-1.73,17.1-3.06c1.24-.55,3.06-4.29,3.06-4.29l-5-6A16.11,16.11,0,0,0,250.17,198.55Z" transform="translate(-54.36 -94.92)"/><path class="b7fb6f58-5dc0-429d-b9f3-b6566dfbbcab" d="M286.64,178.49c-4.17,7.6-14.25,9.63-14.25,9.63s-5.25,10.74-10,17.21c-4.14,4.59-14.5-2.7-12.21-8.66,1.82-4.73,3.45-17.87,6.16-20.22,1.5-1.23,14.25,1,14.25,1S286.05,177.5,286.64,178.49Z" transform="translate(-54.36 -94.92)"/><path class="ac677e6b-d286-42a6-853e-ae849c98d001" d="M289.56,135.67s1.72,6.2,1,10.28-2,25-2,30.69-11.92,9.73-22.16,8.25c-8.77-1.27-11.1-6.93-10.61-11s1.78-11.61,2.13-15.68-2.6-12.49-2.6-12.49l5.55-7s1.87-3.88,9-8c0,0,2-1,2.48.46-3.39,10.43,10.48,12.6,10.48,12.6s7.27-5.56,1.32-12.09C287,130.84,289.56,135.67,289.56,135.67Z" transform="translate(-54.36 -94.92)"/><path class="b15d7ca7-586e-4301-aeb5-3dfc46db0e13" d="M294.89,113.07a20.31,20.31,0,0,1,0,9.69s.85,4.56.38,6.61c-1,4.41-5.12,7.1-7.2,8.28-2.4,1.06-8.72,1.37-13.93-2a13.08,13.08,0,0,1-3.64-3.53c-2.92-.91-2.92-4.2-2.92-4.2s-2.4-8.27,3.15-15.21Z" transform="translate(-54.36 -94.92)"/><path class="a0ffbcf1-7cdc-4ade-9665-44a937d140ba" d="M272.69,128.78c-1.56-1.11-2.45-3.54-3.52-4.2-1.74-1.08-1.55,3.3-1.55,3.3a21.44,21.44,0,0,1-3.26-14.81s-11,12.54-10.28,9.31c1.71-7.29,2.49-22.61,6.57-25.38,8.62-5.85,12.38,2.25,11.91,4.64,3.15-2.23,13.11-2.6,16.43-.27,7.85,5.49,7,14.19,7,16,.07,2.7-13.2,1.64-13.95,2.43-.25.26-5.93.76-6.66,1.53C273,123.82,273,126.15,272.69,128.78Z" transform="translate(-54.36 -94.92)"/><path class="b15d7ca7-586e-4301-aeb5-3dfc46db0e13" d="M238,181.6s-3.38,5-3.54,6.89c-.4,5,7.36,8.67,8.26,8.13s.9-5.57.9-5.57,1-3.24,1.41-3c.18.24,1.44,4,2.73,3.7s.3-3.86,0-5.63-2.47-3.29-2.47-3.29l-2.77-3.22Z" transform="translate(-54.36 -94.92)"/><path class="b15d7ca7-586e-4301-aeb5-3dfc46db0e13" d="M253.06,161.13c-1.16,4.61-5.89,15.9-7.76,21.66L238,181.6c1.72-8.55,2.35-21.6,7.26-26,.38-.33,5.35-6.77,6.18-6.4.46.21,6.89,5.59,7.4,5.94C261.06,156.58,253.23,160.45,253.06,161.13Z" transform="translate(-54.36 -94.92)"/><path class="e5c90cfe-318f-464d-b6f0-11922e906370" d="M249.3,149.78c3.44-3.62,6.81-6.76,8.67-8.68,1.34-1.37,4.19-4.94,9-.78s0,9.25,0,9.25-7.26,7.2-8.59,8.83C255.49,161.9,245.85,153.41,249.3,149.78Z" transform="translate(-54.36 -94.92)"/><path class="b1fd3990-e9fd-4090-bba9-141c0dd9ac68" d="M336.85,250.71c-5.82-3.36-15.27-3.36-21.11,0s-5.83,8.83,0,12.19,15.27,3.36,21.1,0S342.68,254.08,336.85,250.71Z" transform="translate(-54.36 -94.92)"/><path class="bf51f6d6-fe22-4810-bf30-91e4b7fab385" d="M343.36,243.75a16.9,16.9,0,1,1-16.9-16.91A16.9,16.9,0,0,1,343.36,243.75Z" transform="translate(-54.36 -94.92)"/><polygon class="e7d63806-1b1f-4f8e-89a5-5fb9c66ae2b8" points="275.63 140.59 279.23 136.8 284.66 140.44 284.81 146.53 279.04 146.68 275.63 140.59"/><polygon class="e7d63806-1b1f-4f8e-89a5-5fb9c66ae2b8" points="268.2 140.59 264.6 136.8 259.16 140.44 259.01 146.53 264.78 146.68 268.2 140.59"/><polygon class="e7d63806-1b1f-4f8e-89a5-5fb9c66ae2b8" points="275.68 153.27 268.2 153.27 266.29 159.01 271.92 162.41 277.58 159.01 275.68 153.27"/><path class="e7d63806-1b1f-4f8e-89a5-5fb9c66ae2b8" d="M337.86,253.28l3.31-6.17,1.94-.49a15.52,15.52,0,0,1-5.25,9.59Z" transform="translate(-54.36 -94.92)"/><path class="e7d63806-1b1f-4f8e-89a5-5fb9c66ae2b8" d="M315.06,253.28l-3.31-6.17-1.94-.49a15.52,15.52,0,0,0,5.25,9.59Z" transform="translate(-54.36 -94.92)"/><path class="e7d63806-1b1f-4f8e-89a5-5fb9c66ae2b8" d="M322.16,227.4l.94.5h7.11l.79-.44s-1-.66-4.42-.66S322.16,227.4,322.16,227.4Z" transform="translate(-54.36 -94.92)"/><polygon class="bf51f6d6-fe22-4810-bf30-91e4b7fab385" points="253.05 292.52 182.33 251.68 231.19 223.46 301.92 264.3 253.05 292.52"/><path class="fcc498bc-493a-4b12-abca-f051e68fd5a8" d="M304.83,376.15a9.29,9.29,0,0,1-4.62-1.11,3.63,3.63,0,0,1-2.09-3.06,4,4,0,0,1,2.35-3.37,11,11,0,0,1,9.72-.17,3.65,3.65,0,0,1,2.09,3.08,4.1,4.1,0,0,1-2.35,3.38A10.44,10.44,0,0,1,304.83,376.15Zm.76-7.34a9.06,9.06,0,0,0-4.38,1.06c-1,.6-1.64,1.37-1.63,2.1a2.27,2.27,0,0,0,1.36,1.81,9.52,9.52,0,0,0,8.25-.15,2.7,2.7,0,0,0,1.63-2.1,2.25,2.25,0,0,0-1.36-1.82A7.88,7.88,0,0,0,305.59,368.81Z" transform="translate(-54.36 -94.92)"/><path class="f49cd6f9-f2ed-45de-b51b-75e95d4dec1f" d="M248.27,348.87l-.3-1.43c.28-.06,27.59-6,44.44-23.67l1.06,1C276.29,342.81,248.55,348.81,248.27,348.87Z" transform="translate(-54.36 -94.92)"/><path class="e7886a36-0193-4a78-89a2-c0cda00a8c0e" d="M295,367.25l-2.81-2.3-6.54-1.41,2.52-2.57,4.41.71,5.2-3-6.7-1.78,3.27-2.19,7.73.61,12.15-3.69-5.45,6.15,4.66,4.06-4.15,1.26-5.06-2.31-7.29,3.61,1.95,2.24Zm-6.45-4.58,4.43,1,2.44,2,.61-.09L294.59,364l9.62-4.78,5.18,2.38,1.11-.33-3.79-3.3,3-3.38-7.47,2.26-7.5-.58-.16.11,7,1.87-8.75,5-4.17-.67Z" transform="translate(-54.36 -94.92)"/><path class="f3f0e14b-9687-4615-b2e9-7a60b3d94613" d="M320.59,358.77c-2,0-2.24-1.08-2.25-1.55a3.68,3.68,0,0,1,1.34-2.32c2.11-2.12,7.13-5.26,9.75-5.26a2.43,2.43,0,0,1,2.35,1.15c.35.76.09,1.72-.78,2.92a2.8,2.8,0,0,1,.86,1.9,2.49,2.49,0,0,1-1.36,2,5.18,5.18,0,0,1-2.84.82,6.84,6.84,0,0,1-2.6-.54A18.24,18.24,0,0,1,320.59,358.77Zm-.79-1.57a2.15,2.15,0,0,0,.79.11,18.13,18.13,0,0,0,4.29-.85l.29-.1.28.14a5.23,5.23,0,0,0,2.21.51,3.78,3.78,0,0,0,2-.59c.31-.2.68-.5.69-.84s-.56-1-.82-1.18l-.64-.46.5-.61c1.21-1.45,1-1.92,1-1.94s-.36-.27-1-.29C326.52,351.1,319.83,356,319.8,357.2Z" transform="translate(-54.36 -94.92)"/><path class="f3f0e14b-9687-4615-b2e9-7a60b3d94613" d="M274.92,364.36c-1.67,0-1.81-1-1.81-1.32,0-1.91,5.7-5.55,8-5.55a1.9,1.9,0,0,1,1.85.93,2.28,2.28,0,0,1-.47,2.13,2.07,2.07,0,0,1,.54,1.37,1.93,1.93,0,0,1-1.05,1.61,3.78,3.78,0,0,1-2.12.61,5.29,5.29,0,0,1-1.84-.36A12.78,12.78,0,0,1,274.92,364.36Zm-.27-1.48.27,0a13,13,0,0,0,3-.59l.29-.1.27.14a3.51,3.51,0,0,0,1.46.33,2.42,2.42,0,0,0,1.33-.37c.24-.16.38-.31.38-.42s-.31-.54-.49-.66l-.65-.46.52-.61c.7-.84.68-1.15.67-1.16s-.14,0-.5-.05C279.42,359,275.28,361.8,274.65,362.88Z" transform="translate(-54.36 -94.92)"/><path class="e7886a36-0193-4a78-89a2-c0cda00a8c0e" d="M291.36,335.31l-3.21-3.7L284,334.44a5.36,5.36,0,0,0-3.83.34,2,2,0,0,0-1.13,1.63,1.55,1.55,0,0,0,.46,1.06l-6.07,3.27a5.19,5.19,0,0,0-4.31.17,2,2,0,0,0-1.13,1.62,1.53,1.53,0,0,0,.2.7l-4.29,2.83,5.37,3.25,5.45-2.51,3.08,1.84,12.07-6.81L288,337.55Zm-10.76.21a4,4,0,0,1,2-.48,3.7,3.7,0,0,1,1.74.4,1,1,0,0,1,.58.77c0,.3-.26.62-.71.89a4.33,4.33,0,0,1-3.72.08,1,1,0,0,1-.57-.77C279.9,336.1,280.15,335.78,280.6,335.52Zm-11.05,6.12a4.08,4.08,0,0,1,2-.48,3.41,3.41,0,0,1,1.73.41,1,1,0,0,1,.58.76c0,.3-.24.63-.7.9a4.33,4.33,0,0,1-3.72.07,1,1,0,0,1-.58-.77A1.15,1.15,0,0,1,269.55,341.64Zm19.25-.16-11,6.19-3.05-1.81-5.45,2.51L265.48,346l3.3-2.17a1.88,1.88,0,0,0,.23.16,4.29,4.29,0,0,0,2.16.52,4.77,4.77,0,0,0,2.38-.58,2,2,0,0,0,1.14-1.63,1.48,1.48,0,0,0-.47-1.06L280.3,338a4.52,4.52,0,0,0,1.92.42,4.77,4.77,0,0,0,2.38-.58,2,2,0,0,0,1.15-1.62,1.72,1.72,0,0,0-.84-1.38l3.1-2.12,2.09,2.42-3.21,2.11Z" transform="translate(-54.36 -94.92)"/><path class="b1fd3990-e9fd-4090-bba9-141c0dd9ac68" d="M262.78,343.75c-14.37,8.29-50.64.81-81-16.71s-43.31-38.46-28.94-46.76,50.62-.81,81,16.71S277.15,335.45,262.78,343.75Z" transform="translate(-54.36 -94.92)"/><path class="b15d7ca7-586e-4301-aeb5-3dfc46db0e13" d="M294,319.1a9.62,9.62,0,0,1,3.63.21l1.94,6.21-2.37,6.65s-5.39-1.81-6.12-3.92l-2.11-3,1.38-5.7Z" transform="translate(-54.36 -94.92)"/><path class="fcc498bc-493a-4b12-abca-f051e68fd5a8" d="M284.76,314.34s7,3.88,9.21,4.76c-3.85,3.7-2.85,9.23-2.85,9.23L270,321.47l4.32-7.9Z" transform="translate(-54.36 -94.92)"/><path class="fcc54288-4ade-4fda-819b-f5f120bcb1a1" d="M208.93,303.61c-7.12-3.22-14.14-8.66-15.9-9.66a82.56,82.56,0,0,1-24.44-14.22s-4.75-2.71-3.29-6.13,12-8,14.4-7,2.74,5.72,2.75,7.05c8.47,1.74,20.2,8.65,20.2,8.65s19.5,6.91,22.63,9.94l-1.89,9Z" transform="translate(-54.36 -94.92)"/><path class="e45b5734-70b1-4163-8dfc-9310af90cd6a" d="M209.56,324.34c-17.81-.38-39-10.78-42.26-12.63s-13-18.36-13.38-19-13.57,6.84-15.83,4.22c-4.17-4.85-1.55-10.51,1.9-12.92s14.81-7.33,17.15-6.39,2.93,5.72,2.93,5.72,12.19,5.76,16,14.78a287.13,287.13,0,0,1,31.51,1.74s13.52-10.52,19.47-7,7,6.52,7,6.52l-10.34,21.36S214.16,324.2,209.56,324.34Z" transform="translate(-54.36 -94.92)"/><rect class="bd2d2171-99dc-44d7-988e-cae2503eed5e" x="193.76" y="206.42" width="14.03" height="18.22"/><path class="a079e372-c21d-436d-ad99-21969b134ba1" d="M253.46,290.55c-4.26-.56-11.31,5.24-12.5,5.52s-8.92-2.21-12.66-3.16-14.8,8.07-17.48,15.86-4.2,17.38-.21,18.11c2.33.42,18.65,6,22.86,6.56,9.45,1.16,16-1.22,23.5-5.74a25,25,0,0,0,7.72-7.19l-1.42-4.19s-9.07,2.08-12-3.41c-.87-1.64-2.61-9.07,3.45-13.15C259.53,296.54,257.71,291.11,253.46,290.55Z" transform="translate(-54.36 -94.92)"/><path class="b15d7ca7-586e-4301-aeb5-3dfc46db0e13" d="M258.46,353.38s5.75.53,7.28,1.21,6.38,7.49,4.76,9.58-8.59,6.39-13.67,1.1a11,11,0,0,1-4-4.35l-2.41-4.08,4.66-5.08Z" transform="translate(-54.36 -94.92)"/><path class="fcc498bc-493a-4b12-abca-f051e68fd5a8" d="M246,309.65s0,25.28.3,26.68c2.13,3.66,10,13.87,12.19,17.05a9.27,9.27,0,0,0-5.66,7.54c-4.39-4.16-17.29-15.77-18.67-21.24-1.33-5.2-1.86-24-1.9-29.47,0-2.21,2.07-7.22,6.74-7.86C246,301.36,246,309.65,246,309.65Z" transform="translate(-54.36 -94.92)"/><path class="b15d7ca7-586e-4301-aeb5-3dfc46db0e13" d="M291.58,302.59c-.63,9.43-10.47,13.25-10.47,13.25s-1.21,4.64-2.53,5.22-3.33-.49-3.33-.49a26,26,0,0,1-11.53,1c-2.24-.43-7.48-4.88-7.86-10.68-3.59-.7-3.65-3.08-3.65-3.08l-1-5.72,4.4-7.23,15.08-5.44,20.84,5.13,1.36,3.87A25.38,25.38,0,0,0,291.58,302.59Z" transform="translate(-54.36 -94.92)"/><path class="a0ffbcf1-7cdc-4ade-9665-44a937d140ba" d="M258.42,310c.06-2.24-.22-5.38-2.83-6.54s-3.38,4.3-3.38,4.3-5.85-10.06,1.36-23.63c0,0,.09-2-4.09-.83,0,0,4.72-4.5,8.9-4.5.6-4.65,5.41-9.74,5.41-9.74s-2.48,7.22-.5,8.48c4.13-2.91,15.82-4.08,24.41,2.51,0,0-2.49.38-2.2.62,8.41,7.6,10.91,19.14,6.42,25.84a4.44,4.44,0,0,0-2.44-4.47c.11,3.53-2.07,7.08-5.3,9.5-.91-6.07-4.07-6.5-6-6.43-.48,0,.56,3.77-2.65,6.88-.94-6.81-5.6-9-7-9s-2.75,3.87-3.77,5.12C263.27,310,259.75,307.37,258.42,310Z" transform="translate(-54.36 -94.92)"/><polygon class="e7886a36-0193-4a78-89a2-c0cda00a8c0e" points="242.52 242.86 242.59 244.19 243.1 242.97 242.52 242.86"/><path class="a8d75f8a-24d8-4f36-b62e-a6bb9a9f1c00" d="M299.09,334.08l-2.39-.44.18,4.14h0a.17.17,0,0,0,.07.13.46.46,0,0,0,.41.06.11.11,0,0,0,.1-.07h0Z" transform="translate(-54.36 -94.92)"/><path class="f49cd6f9-f2ed-45de-b51b-75e95d4dec1f" d="M305.77,298.12l-2.41-.44-6.64,35.87a.6.6,0,0,0,.25.56,1.89,1.89,0,0,0,1.7.31.59.59,0,0,0,.44-.43Z" transform="translate(-54.36 -94.92)"/><path class="a8d75f8a-24d8-4f36-b62e-a6bb9a9f1c00" d="M305.33,298.55a1.94,1.94,0,0,1-1.7-.31c-.42-.37-.35-.79.17-1a1.91,1.91,0,0,1,1.7.32C305.93,297.93,305.84,298.36,305.33,298.55Z" transform="translate(-54.36 -94.92)"/><path class="e7886a36-0193-4a78-89a2-c0cda00a8c0e" d="M304.8,298.1a.6.6,0,0,1-.52-.09c-.14-.11-.12-.25.05-.32a.63.63,0,0,1,.53.11C305,297.91,305,298,304.8,298.1Z" transform="translate(-54.36 -94.92)"/><path class="b15d7ca7-586e-4301-aeb5-3dfc46db0e13" d="M302.49,319.79c-1.84-.72-4,.12-5.32,3.15s-.82,9,1.94,10.15c1.71.74,5.33-2.84,5.94-7S304.33,320.5,302.49,319.79Z" transform="translate(-54.36 -94.92)"/><path class="b15d7ca7-586e-4301-aeb5-3dfc46db0e13" d="M299,322.26c-.53,1.88-1.65,3.21-2.5,3s-1.12-2-.6-3.83,1-3.26,2.5-3C300.12,318.77,299.52,320.38,299,322.26Z" transform="translate(-54.36 -94.92)"/><polygon class="e7886a36-0193-4a78-89a2-c0cda00a8c0e" points="284.83 254.65 285.27 253.41 284.34 254.34 284.83 254.65"/><path class="a8d75f8a-24d8-4f36-b62e-a6bb9a9f1c00" d="M335.76,352.2l2.05,1.29,1.37-3.92h0a.12.12,0,0,0,0-.13.42.42,0,0,0-.35-.21.14.14,0,0,0-.13,0h0Z" transform="translate(-54.36 -94.92)"/><path class="f3f0e14b-9687-4615-b2e9-7a60b3d94613" d="M316.21,383.1l2.07,1.29,19.5-30.83a.57.57,0,0,0,0-.6,1.9,1.9,0,0,0-1.46-.93.6.6,0,0,0-.57.24Z" transform="translate(-54.36 -94.92)"/><path class="a8d75f8a-24d8-4f36-b62e-a6bb9a9f1c00" d="M316.78,382.86a2,2,0,0,1,1.47.94c.24.47,0,.85-.55.82a1.91,1.91,0,0,1-1.46-.9C316,383.23,316.23,382.85,316.78,382.86Z" transform="translate(-54.36 -94.92)"/><path class="e7886a36-0193-4a78-89a2-c0cda00a8c0e" d="M317.09,383.48a.58.58,0,0,1,.46.28c.08.16,0,.27-.17.26a.57.57,0,0,1-.45-.28C316.85,383.59,316.92,383.47,317.09,383.48Z" transform="translate(-54.36 -94.92)"/><path class="b1fd3990-e9fd-4090-bba9-141c0dd9ac68" d="M396.44,376s-4.21,4.91-1.75,6.56,51.81,20.08,58.84,20.08c12.87,0,22.56-9.89,21.17-13.32-2.46-6-5.74-6.15-5.74-6.15L408.32,376Z" transform="translate(-54.36 -94.92)"/><path class="b74278ed-3da1-425b-ba36-fe0977dad9e0" d="M449.42,345.83c-2.54.11-3.94,6.34-.83,8.93,5.91,1.06,15.06,3.22,17.84,1.8s7.05-9.79,9.53-17.19c1.7-5.05-1.65-9.19-4.58-9-7.59-.84-8.93,11.41-12.12,15.6C459,346.33,453.88,346.3,449.42,345.83Z" transform="translate(-54.36 -94.92)"/><path class="b15d7ca7-586e-4301-aeb5-3dfc46db0e13" d="M446,334.4a25.93,25.93,0,0,1,.41,4.17l.71,2.35,9.16,1.67,6.61-2.2,4-3.88-1-4.38-.45-4H451.13S446.28,333.53,446,334.4Z" transform="translate(-54.36 -94.92)"/><path class="f5603167-55c3-41ac-8299-b092425061d6" d="M440.87,377.59c-15.21-2.61-37.47-4.42-37.47-4.42s-4.58-14.16-7.52-13.12-4.18,6.87-3.7,10.22S395,381.19,396,381.59s3.9-.44,4.82,0c15.77,7.39,21.85,7.05,21.85,7.05s18.85,10.22,32.18,10.45c8.4.14,16.45-7.35,17.76-10,1-2.05.85-8.16.85-8.16l-13.55-4.05S444.28,379,440.87,377.59Z" transform="translate(-54.36 -94.92)"/><path class="f8528828-0bf1-4314-a1ea-447d81bec7e7" d="M465.93,332.13c-.18,1-.3,5.37-8.87,7a22.52,22.52,0,0,1-10.61-.59,19.13,19.13,0,0,0-5.4,7.81c-1.05,3.21.92,13.5-.94,34.17-.17,2,4.63,9.3,13.42,10.48S474,386.48,474,380.46s-.18-27.27.12-33.2-.05-9.92-2.24-12.3S465.93,332.13,465.93,332.13Z" transform="translate(-54.36 -94.92)"/><path class="b15d7ca7-586e-4301-aeb5-3dfc46db0e13" d="M420.77,363.17s.05-4.54-.79-4.83c-1.33-.45-3,2.21-3.22,2.12s-2.32-1.39-3.53-1.32S410,361,409.85,363s1.78,7.27,3.42,7.62a24.64,24.64,0,0,0,4.73.22Z" transform="translate(-54.36 -94.92)"/><path class="b74278ed-3da1-425b-ba36-fe0977dad9e0" d="M417.32,362.44c-2.53.11-3.93,6.34-.82,8.92,5.9,1.07,18.15,1.54,20.93.13s13.17-15.39,15.42-20.23-1.64-9.2-4.58-9.05c-6,0-11.35,15-14.54,19.2C433.42,361.81,421.79,362.9,417.32,362.44Z" transform="translate(-54.36 -94.92)"/><path class="b15d7ca7-586e-4301-aeb5-3dfc46db0e13" d="M467.72,328.12c2.17-1.72,4.52-5.92,3.78-14-.27-3-3.56-16.43-18-15.19-20.87,1.79-15.82,20.94-15.82,20.94a25.71,25.71,0,0,0,.66,9.11c1.27,3.93,8.53,5.64,8.53,5.64S454.58,338.69,467.72,328.12Z" transform="translate(-54.36 -94.92)"/><path class="a0ffbcf1-7cdc-4ade-9665-44a937d140ba" d="M468.27,329c3-4.23,6.4-11.26,2-21.58.64-1.24.72-2.15,2.77-2.31a9.14,9.14,0,0,0-5-1.87,24.42,24.42,0,0,0-1.88-5.56c-.66,2.59-.77,2.2-1.43,2.47-8.31-5.72-21.46-2.74-21.46-2.74s1.89,1.17,1.42,1.87c-8.64,4.4-7.58,8.36-6.79,10.2,2.94,6.8,2.17,12.51,3.44,13.85s2.42-2,4.24.27,2.42,10.58,9.32,11.33C457.7,335.22,465.9,332.35,468.27,329Z" transform="translate(-54.36 -94.92)"/><path class="f49cd6f9-f2ed-45de-b51b-75e95d4dec1f" d="M424.72,335.82h-8.47l-1.17,8.85a2.58,2.58,0,0,0,1.57,2.47,8.49,8.49,0,0,0,7.67,0,2.58,2.58,0,0,0,1.57-2.47Z" transform="translate(-54.36 -94.92)"/><path class="a9c7232b-6107-41b1-98e2-a53a1025c80c" d="M423.48,337.55a6.65,6.65,0,0,1-6,0c-1.66-1-1.66-2.51,0-3.46a6.59,6.59,0,0,1,6,0C425.13,335,425.13,336.59,423.48,337.55Z" transform="translate(-54.36 -94.92)"/><path class="eb0936d0-e369-413b-baae-ce7542741908" d="M414.28,339.74h-8.47l-1.17,8.86a2.56,2.56,0,0,0,1.57,2.46,8.41,8.41,0,0,0,7.66,0,2.53,2.53,0,0,0,1.57-2.46Z" transform="translate(-54.36 -94.92)"/><path class="bf1d63db-6c32-4b98-a846-69ebc09e264b" d="M413,341.48a6.65,6.65,0,0,1-6,0c-1.66-1-1.66-2.51,0-3.46a6.65,6.65,0,0,1,6,0C414.69,339,414.69,340.52,413,341.48Z" transform="translate(-54.36 -94.92)"/><path class="eb0936d0-e369-413b-baae-ce7542741908" d="M418.51,327.51H410l-1.16,8.85a2.56,2.56,0,0,0,1.57,2.47,8.47,8.47,0,0,0,7.66,0,2.58,2.58,0,0,0,1.57-2.47Z" transform="translate(-54.36 -94.92)"/><path class="bf1d63db-6c32-4b98-a846-69ebc09e264b" d="M417.27,329.24a6.59,6.59,0,0,1-6,0c-1.65-1-1.65-2.5,0-3.46a6.65,6.65,0,0,1,6,0C418.93,326.74,418.93,328.28,417.27,329.24Z" transform="translate(-54.36 -94.92)"/><path class="eb0936d0-e369-413b-baae-ce7542741908" d="M431.32,341.23h-8.47l-1.16,8.85a2.53,2.53,0,0,0,1.57,2.46,8.47,8.47,0,0,0,7.66,0,2.56,2.56,0,0,0,1.57-2.46Z" transform="translate(-54.36 -94.92)"/><path class="bf1d63db-6c32-4b98-a846-69ebc09e264b" d="M430.08,343a6.65,6.65,0,0,1-6,0c-1.65-1-1.65-2.51,0-3.46a6.59,6.59,0,0,1,6,0C431.74,340.45,431.74,342,430.08,343Z" transform="translate(-54.36 -94.92)"/></svg>