<svg id="eca699d4-a2fe-4609-8b02-45f7b885cd3b" data-name="圖層 4" xmlns="http://www.w3.org/2000/svg" viewBox="0 0 280.08 259.2"><defs><style>.a8993675-9927-4a45-b862-ffe66c70296a{fill:#fff;}.aeb037b0-6a74-4501-9850-738b35de90d5{fill:#315397;}.b7bb07d2-5d89-4488-8e01-02092f7dc829{fill:none;}</style></defs><title>facebook</title><path class="a8993675-9927-4a45-b862-ffe66c70296a" d="M315,423s-19.65,26.83-61.32-3.65-12.5-187.19-12.5-187.19l112.57,9.15Z" transform="translate(-126.8 -180.85)"/><path class="aeb037b0-6a74-4501-9850-738b35de90d5" d="M311.93,216.85c6.93,1.31,13.82,3,20.81,3.86,18.83,2.43,30.9,13.15,34.32,31.22,8.91,47,8.52,94.09-.15,141-3.17,17.18-13.51,27.94-31,30.59-8.08,1.23-16.16,2.55-25.49,4V345.09c26.59-6.81,27.61-8.35,23.32-36.08l-22-1.94c-4.88-21.58-4.5-22,22.36-25.88.59-.93,1.86-2.05,1.67-2.77-2.52-9.82,9.69-25.55-9.11-28.72-30.44-5.13-51.57,6.48-55,29-1.26,8.28-.94,16.82-1.41,26.49-15,.73-21.85,9.52-17.53,23.92,2,6.66,8.76,11.82,13.36,17.66l4.22-2.79V428c-27.75,3.83-55.62,1.49-81.33-9.81-8.48-3.73-17.19-18.1-17.59-28-1.86-45.5-1.71-91.15-.41-136.69.54-19.17,14.62-30.33,34.17-32.87,7-.9,13.87-2.56,20.8-3.87Z" transform="translate(-126.8 -180.85)"/><rect class="b7bb07d2-5d89-4488-8e01-02092f7dc829" width="280.08" height="259.2"/></svg>