<svg id="a9abf279-df40-4ec8-a613-3953f90c2c75" data-name="圖層 7" xmlns="http://www.w3.org/2000/svg" viewBox="0 0 243.24 218.22"><defs><style>.b133eb8c-06eb-4224-b034-8228595f3a58{fill:#6a9531;}.a4ed46e6-fdb2-4d25-a0af-8e07bd07535e{fill:#93aa31;}.a6aa2eea-db5b-49dd-9f08-7990d57763f2{fill:#a8525b;}.aa82d6b9-3ad0-4f28-b5aa-7197dff597ff{fill:#6d273d;}.fc8140f1-2920-4c47-9acc-8b15efb1488f{fill:#f56c3a;}.ad2e9fd2-7941-4a23-82e2-6d8e85d604b3,.f8688ade-250d-46f8-aa4c-ee18b408f41d{fill:#c24f29;}.f8688ade-250d-46f8-aa4c-ee18b408f41d{opacity:0.81;}.e32a1b44-16df-4add-8ce7-04d6b0ffdde5{fill:#807994;}.eb3e3064-9af1-4587-b901-d74eadd28540{fill:#7a7878;}.faf77af5-2715-4cb5-9c97-7459eb79678e{fill:#595757;}.fada6e64-58b9-42d7-9ade-16244e32fb0b{fill:#ffb27d;}.ec5feecc-315a-4d68-8fec-4f56b6cb01cf{fill:#f78b41;}.ad2e9fd2-7941-4a23-82e2-6d8e85d604b3{opacity:0.56;}.e590c150-598d-4817-bd67-2e707772a609{fill:#065c63;}.b6afb618-cb54-47b3-b4f6-4223c2937d2e{fill:#6d5c50;}.b39761ec-cd77-4ebb-960a-9f3d9da41c1d{fill:#3d2f26;}.b4df7b7d-841e-4f6d-929c-74b551a537f8{fill:#e5e5da;}.a93f9436-8a33-47c1-acbe-4a39bc1ecbb3{fill:#913451;}.bd7f7ac8-4dc1-481f-a795-7cab4ce154ea{fill:#742;}.b01d2339-2d06-4319-862a-7e585815c820{fill:#6e6e7f;}.bc191316-47e2-4185-807c-d99d0d13c0cc{fill:#403847;}.f9a6a44d-b737-47f3-88b4-ee34c6ee05b3{fill:#4c2d18;opacity:0.4;}.b85cc876-a0a2-427d-b4a0-7b57301631df{fill:#42372d;opacity:0.35;}.f5a1598d-996f-4452-84d5-0702c99ba632{fill:#565672;}.ac035e1d-8d46-4af7-b4d3-77c6f17d23a8{fill:#262816;}.ae9a90b6-e4d8-4df9-a301-329d4186e993{fill:#bddbdb;opacity:0.18;}.b81a2f63-6c9a-4bb9-a7d9-ed3ec8321495{fill:#72203e;}.acfc5eab-8742-48bf-be17-800105056dac{fill:#873922;}.ab8e3597-5816-4968-b72b-3ea21d48b6a0{fill:#d15217;}.ea0d9947-c119-49ed-b33d-ffecac2c6ac0{fill:#e5c8b5;}.bbd2c5a5-3741-463c-a9fb-7121459cef01{fill:#b2998b;}.fabc2a44-29c6-4578-9897-4bd2add676a1{fill:#60493e;opacity:0.32;}.bc7c1508-f5f4-4b90-946c-412d17cbc0aa{opacity:0.3;}.acf3f899-de9c-4d74-9fac-9f96d7e0e891{fill:#f0c6b4;}.a277b9e4-d6c9-432f-923e-b40563e7dd3d{fill:#1d374e;}.e77a630e-1eb5-4ace-b218-7fb4da4abc81{fill:#fff;}.f340bcb7-ec91-4b15-8433-5cc063d6334c{fill:#2b5e85;}.fd72f91f-8424-4306-b056-2db5d5db92bf{fill:#3576ab;}.bdd9b324-5529-4af5-b785-218bc71f0a65{fill:#c7a496;}.fa921072-f730-4434-9b7d-7d11be848f02{fill:#2a4e68;}.acb309a8-1cf0-449c-8339-034222196416{fill:#3c2415;}.b08ead64-8738-408b-bb62-c178cf14476a{fill:#16a89f;}.a46e6621-2638-4a7f-9eb3-39192a312de2{fill:#603913;}.f23da13d-c6cb-4c29-9ba6-75ac6fb3bee8{fill:#bcbec0;}.ea226b21-a5e4-4b2c-a76a-5189a03b7b87{fill:#e31b25;}.fc571d04-fa66-406e-a6c2-e94a36a62edd{fill:#ff8400;}.a3f8bd84-f077-4182-a74b-86d7173caf3a{fill:#9c251f;}.a698745d-a5ec-458b-9f49-150f4542d4f2{fill:#ff9d26;}</style></defs><title>s1-1</title><path class="b133eb8c-06eb-4224-b034-8228595f3a58" d="M159.67,198.51H391.28c4.74,0,7.48,5.06,4.69,8.66l-55.84,72.16c-31.92,41.25-97.39,41.25-129.31,0L155,207.17C152.19,203.57,154.93,198.51,159.67,198.51Z" transform="translate(-153.86 -92.05)"/><path class="a4ed46e6-fdb2-4d25-a0af-8e07bd07535e" d="M391.28,198.51H203.16L308.33,303.69a78.66,78.66,0,0,0,31.8-24.36L396,207.17C398.76,203.57,396,198.51,391.28,198.51Z" transform="translate(-153.86 -92.05)"/><rect class="a6aa2eea-db5b-49dd-9f08-7990d57763f2" x="102.79" y="115.71" width="16.97" height="3.8"/><polygon class="aa82d6b9-3ad0-4f28-b5aa-7197dff597ff" points="25.07 48.73 18.85 45.28 44.24 35.52 50.86 46.96 25.07 48.73"/><polygon class="aa82d6b9-3ad0-4f28-b5aa-7197dff597ff" points="137.67 46.96 118.97 50.91 118.1 36.91 137.67 46.96"/><polygon class="fc8140f1-2920-4c47-9acc-8b15efb1488f" points="84.94 19.89 25.07 42.72 26.32 115.7 132.28 115.7 134.15 45.08 84.94 19.89"/><path class="f8688ade-250d-46f8-aa4c-ee18b408f41d" d="M238.8,111.93s24.59,42.75,26.51,46.86,0,49,0,49h20.82L288,137.12Z" transform="translate(-153.86 -92.05)"/><polygon class="e32a1b44-16df-4add-8ce7-04d6b0ffdde5" points="134.87 115.7 39.98 115.7 38.63 105.33 135.76 105.33 134.87 115.7"/><polygon class="eb3e3064-9af1-4587-b901-d74eadd28540" points="18.85 42.23 18.85 45.28 84.94 19.89 85.24 20.04 85.24 16.68 18.85 42.23"/><polygon class="faf77af5-2715-4cb5-9c97-7459eb79678e" points="137.67 43.12 85.87 16.44 85.24 16.68 85.24 20.04 137.67 46.96 137.67 43.12"/><polygon class="fada6e64-58b9-42d7-9ade-16244e32fb0b" points="36.27 52.51 36.27 115.7 120.54 115.7 120.54 52.51 78.4 4.14 36.27 52.51"/><path class="ec5feecc-315a-4d68-8fec-4f56b6cb01cf" d="M193.59,147.48a2.41,2.41,0,0,0,0,3.45c1.24,1.23,6.44.91,6.44-.54S197.21,144.45,193.59,147.48Z" transform="translate(-153.86 -92.05)"/><path class="ec5feecc-315a-4d68-8fec-4f56b6cb01cf" d="M256.71,147.67a2.4,2.4,0,0,0,0,3.44c1.23,1.23,6.43.91,6.43-.54S260.33,144.63,256.71,147.67Z" transform="translate(-153.86 -92.05)"/><path class="ec5feecc-315a-4d68-8fec-4f56b6cb01cf" d="M265.26,146.65a1.58,1.58,0,0,0,0,2.27c.81.82,4.25.61,4.25-.35S267.65,144.64,265.26,146.65Z" transform="translate(-153.86 -92.05)"/><path class="ec5feecc-315a-4d68-8fec-4f56b6cb01cf" d="M263.42,152.92a1.6,1.6,0,0,0,0,2.27c.82.82,4.25.61,4.25-.35S265.82,150.91,263.42,152.92Z" transform="translate(-153.86 -92.05)"/><path class="ec5feecc-315a-4d68-8fec-4f56b6cb01cf" d="M257.68,136.94a1.58,1.58,0,0,0,0,2.27c.81.82,4.25.61,4.25-.35S260.07,134.93,257.68,136.94Z" transform="translate(-153.86 -92.05)"/><path class="ec5feecc-315a-4d68-8fec-4f56b6cb01cf" d="M198.47,155.76c0,1-1.4,1.79-3.13,1.79s-3.14-.8-3.14-1.79,1.41-1.79,3.14-1.79S198.47,154.77,198.47,155.76Z" transform="translate(-153.86 -92.05)"/><path class="ec5feecc-315a-4d68-8fec-4f56b6cb01cf" d="M204.71,157.56a1.06,1.06,0,1,1-1.05-1.05A1.05,1.05,0,0,1,204.71,157.56Z" transform="translate(-153.86 -92.05)"/><path class="ec5feecc-315a-4d68-8fec-4f56b6cb01cf" d="M200,163.16c0,.91-1.61,1.66-3.58,1.66s-3.59-.75-3.59-1.66,1.61-1.67,3.59-1.67S200,162.24,200,163.16Z" transform="translate(-153.86 -92.05)"/><path class="ec5feecc-315a-4d68-8fec-4f56b6cb01cf" d="M206.41,164.53a1.38,1.38,0,1,1-2.75,0,1.38,1.38,0,0,1,2.75,0Z" transform="translate(-153.86 -92.05)"/><path class="ec5feecc-315a-4d68-8fec-4f56b6cb01cf" d="M270.32,142.6c0,1-1.42,1.77-3.18,1.77s-3.18-.79-3.18-1.77,1.43-1.78,3.18-1.78S270.32,141.62,270.32,142.6Z" transform="translate(-153.86 -92.05)"/><polygon class="ad2e9fd2-7941-4a23-82e2-6d8e85d604b3" points="36.27 64.46 40.67 53.82 81.09 7.22 78.4 4.14 36.27 52.51 36.27 64.46"/><polygon class="e590c150-598d-4817-bd67-2e707772a609" points="27.21 64.46 27.21 57.46 78.26 0 127.41 55.58 127.43 64.46 120.54 64.46 120.54 52.51 78.4 4.14 36.27 52.51 36.27 64.46 27.21 64.46"/><polygon class="aa82d6b9-3ad0-4f28-b5aa-7197dff597ff" points="30.76 64.46 30.76 56.11 77.88 3.28 78.4 4.14 36.27 52.51 36.27 64.46 30.76 64.46"/><path class="b6afb618-cb54-47b3-b4f6-4223c2937d2e" d="M232.26,112.48a4.23,4.23,0,1,1,4.56-4.22A4.41,4.41,0,0,1,232.26,112.48Z" transform="translate(-153.86 -92.05)"/><path class="b6afb618-cb54-47b3-b4f6-4223c2937d2e" d="M232.26,112.48a4.23,4.23,0,1,1,4.56-4.22A4.41,4.41,0,0,1,232.26,112.48Z" transform="translate(-153.86 -92.05)"/><path class="b39761ec-cd77-4ebb-960a-9f3d9da41c1d" d="M231.36,105.25a4.41,4.41,0,0,1,4.56,4.22,3.94,3.94,0,0,1-.41,1.74,4,4,0,0,0,1.31-2.95,4.41,4.41,0,0,0-4.56-4.22,4.6,4.6,0,0,0-4.15,2.48A4.74,4.74,0,0,1,231.36,105.25Z" transform="translate(-153.86 -92.05)"/><path class="b4df7b7d-841e-4f6d-929c-74b551a537f8" d="M232.26,103.75a4.52,4.52,0,1,0,4.87,4.51A4.7,4.7,0,0,0,232.26,103.75Zm0,8.44a3.94,3.94,0,1,1,4.24-3.93A4.1,4.1,0,0,1,232.26,112.19Z" transform="translate(-153.86 -92.05)"/><rect class="a93f9436-8a33-47c1-acbe-4a39bc1ecbb3" x="103.46" y="78.49" width="13.73" height="37.22"/><rect class="bd7f7ac8-4dc1-481f-a795-7cab4ce154ea" x="104.57" y="80.4" width="11.5" height="35.3"/><rect class="b01d2339-2d06-4319-862a-7e585815c820" x="105.71" y="81.99" width="8.8" height="20.67"/><path class="bc191316-47e2-4185-807c-d99d0d13c0cc" d="M259.37,173.72V195h9.19v-21.3Zm8.8,7.17h-4v-6.53h4Zm-4,.68h4v5.54h-4Zm-.46-7.21v6.53h-4v-6.53Zm0,12.75h-4v-5.54h4Zm-4,.67h4v6.61h-4Zm4.42,6.61v-6.61h4v6.61Z" transform="translate(-153.86 -92.05)"/><polygon class="f9a6a44d-b737-47f3-88b4-ee34c6ee05b3" points="116.08 80.4 104.57 80.4 104.57 83.81 104.57 115.7 106.13 115.7 106.13 83.81 116.08 83.81 116.08 80.4"/><path class="b85cc876-a0a2-427d-b4a0-7b57301631df" d="M251.94,201.7h-.29V172H195.94V201.7h-1.23c-1.66,0-3,.57-3,1.27v.79h63.23V203C254.94,202.27,253.59,201.7,251.94,201.7Z" transform="translate(-153.86 -92.05)"/><rect class="b01d2339-2d06-4319-862a-7e585815c820" x="42.86" y="80.15" width="52.13" height="29.72"/><polygon class="f5a1598d-996f-4452-84d5-0702c99ba632" points="53.69 84.78 94.98 84.78 94.98 80.15 42.86 80.15 42.86 109.87 53.69 109.87 53.69 84.78"/><path class="ac035e1d-8d46-4af7-b4d3-77c6f17d23a8" d="M249.75,200.87V171.81H195.8v29h-.53c-2,0-3.56.9-3.56,2h61.22C252.93,201.82,251.53,201,249.75,200.87Zm-52.13-21.09H208v6.81h-10.4Zm0,7.43H208v7h-10.4Zm23.92,0v7H209.48v-7Zm-12.06-.62v-6.81h12.06v6.81Zm27.17,0H223v-6.81h13.65Zm0,.62v7H223v-7Zm0,7.64v6H223v-6Zm1.45,6v-6h9.83v6Zm9.83-6.62H238.1v-7h9.83Zm0-7.64H238.1v-6.81h9.83Zm-11.28-7.43H223v-6.57h13.65Zm-15.11,0H209.48v-6.57h12.06Zm0,15.69v6H209.48v-6Zm26.39-15.69H238.1v-6.57h9.83ZM208,172.59v6.57h-10.4v-6.57Zm-10.4,22.26H208v6h-10.4Z" transform="translate(-153.86 -92.05)"/><rect class="ae9a90b6-e4d8-4df9-a301-329d4186e993" x="56.22" y="87.98" width="10.69" height="6.22"/><rect class="ae9a90b6-e4d8-4df9-a301-329d4186e993" x="69.97" y="95.36" width="11.7" height="6.33"/><rect class="ae9a90b6-e4d8-4df9-a301-329d4186e993" x="69.97" y="80.95" width="12.19" height="5.9"/><rect class="ae9a90b6-e4d8-4df9-a301-329d4186e993" x="69.97" y="87.98" width="12.19" height="5.79"/><rect class="ae9a90b6-e4d8-4df9-a301-329d4186e993" x="56.22" y="95.51" width="10.2" height="6.38"/><rect class="ae9a90b6-e4d8-4df9-a301-329d4186e993" x="56.68" y="103.4" width="9.73" height="4.89"/><path class="ad2e9fd2-7941-4a23-82e2-6d8e85d604b3" d="M241.62,127c-.15-.18-.3-.34-.46-.5a14.48,14.48,0,0,0-4.5-3.21l-.46-.19a10.82,10.82,0,0,0-3.94-.75,11.16,11.16,0,0,0-5.64,1.57l-.46.28a16.5,16.5,0,0,0-3.79,3.4l-.46.57c-3.62,4.68-5.93,11.77-5.93,19.7V154h32.56v-6.12C248.54,139.22,245.8,131.59,241.62,127Z" transform="translate(-153.86 -92.05)"/><path class="b01d2339-2d06-4319-862a-7e585815c820" d="M216.5,150.93v-4.88c0-12.59,6.73-22.83,15-22.83s15,10.24,15,22.83v4.88Z" transform="translate(-153.86 -92.05)"/><path class="f5a1598d-996f-4452-84d5-0702c99ba632" d="M231.51,123.22c-8.28,0-15,10.24-15,22.83v4.88h.13c1-11.17,7.27-19.82,14.88-19.82s13.89,8.65,14.87,19.82h.13v-4.88C246.51,133.46,239.78,123.22,231.51,123.22Z" transform="translate(-153.86 -92.05)"/><path class="ac035e1d-8d46-4af7-b4d3-77c6f17d23a8" d="M235.7,123.2C224,118.32,216,132.94,216,146v5.65H247V146C247,137.2,243.44,126.49,235.7,123.2Zm4.73,9.79h2.79a28.39,28.39,0,0,1,2.43,8.13h-5.22Zm2.55-.48h-2.55v-3.92A19.62,19.62,0,0,1,243,132.51Zm-3-4.42v4.42h-4.3v-7.67A13.41,13.41,0,0,1,240,128.09ZM222.07,133h3.62v8.13h-3.62Zm3.62,8.85V150h-3.62v-8.2Zm4.94-.72h-4.51V133h4.51Zm.88-8.13h3.75v8.13h-3.75Zm-.88,8.85V150h-4.51v-8.2Zm.88,0h3.75V150h-3.75ZM235.7,133H240v8.13h-4.3Zm4.3,8.85V150h-4.3v-8.2Zm-4.74-9.33h-3.75V123.9a9.88,9.88,0,0,1,3.75.75Zm-4.63-8.57v8.57h-4.51v-7A10.4,10.4,0,0,1,230.63,123.94Zm-4.94,1.81v6.76h-3.62v-3.29A15.37,15.37,0,0,1,225.69,125.75Zm-4.05,4.06v2.7H220A19.85,19.85,0,0,1,221.64,129.81ZM219.79,133h1.85v8.13h-4.28A28.39,28.39,0,0,1,219.79,133ZM217,146a32.39,32.39,0,0,1,.26-4.11h4.37V150H217ZM246,150h-5.57v-8.2h5.31A32.39,32.39,0,0,1,246,146Z" transform="translate(-153.86 -92.05)"/><rect class="ae9a90b6-e4d8-4df9-a301-329d4186e993" x="68.58" y="41.16" width="2.76" height="7.62"/><rect class="ae9a90b6-e4d8-4df9-a301-329d4186e993" x="72.44" y="41.37" width="3.89" height="7.03"/><rect class="ae9a90b6-e4d8-4df9-a301-329d4186e993" x="72.44" y="50.44" width="3.89" height="6.77"/><rect class="ae9a90b6-e4d8-4df9-a301-329d4186e993" x="78.04" y="32.52" width="3.05" height="7.51"/><rect class="ae9a90b6-e4d8-4df9-a301-329d4186e993" x="78.04" y="41.48" width="3.05" height="7.7"/><rect class="ae9a90b6-e4d8-4df9-a301-329d4186e993" x="77.86" y="50.55" width="3.23" height="6.77"/><polygon class="b81a2f63-6c9a-4bb9-a7d9-ed3ec8321495" points="78.26 0 127.41 55.58 127.43 64.46 126.92 64.46 127.07 55.65 78.26 0"/><polygon class="b81a2f63-6c9a-4bb9-a7d9-ed3ec8321495" points="134.14 45.15 132.55 105.33 135.76 105.33 134.87 115.7 134.47 115.7 135.4 105.68 132.25 105.68 134.14 45.15"/><polygon class="acfc5eab-8742-48bf-be17-800105056dac" points="131.97 118.83 116.45 118.83 116.45 115.05 131.12 115.05 131.97 118.83"/><polygon class="b81a2f63-6c9a-4bb9-a7d9-ed3ec8321495" points="135.41 69.09 23.62 69.11 23.19 64.82 135.81 64.82 135.41 69.09"/><rect class="aa82d6b9-3ad0-4f28-b5aa-7197dff597ff" x="29.56" y="69.11" width="1.51" height="47.83"/><rect class="aa82d6b9-3ad0-4f28-b5aa-7197dff597ff" x="60.17" y="69.11" width="1.51" height="47.83"/><rect class="aa82d6b9-3ad0-4f28-b5aa-7197dff597ff" x="100.34" y="69.11" width="1.51" height="47.83"/><rect class="aa82d6b9-3ad0-4f28-b5aa-7197dff597ff" x="119.2" y="69.11" width="1.51" height="45.93"/><rect class="aa82d6b9-3ad0-4f28-b5aa-7197dff597ff" x="128.98" y="69.11" width="1.51" height="45.93"/><polygon class="ab8e3597-5816-4968-b72b-3ea21d48b6a0" points="105.28 118.83 26.9 118.83 26.73 115.92 105.28 115.92 105.28 118.83"/><polygon class="b81a2f63-6c9a-4bb9-a7d9-ed3ec8321495" points="105.28 118.83 26.9 118.83 26.73 118.37 105.28 118.37 105.28 118.83"/><rect class="acfc5eab-8742-48bf-be17-800105056dac" x="104.98" y="115.92" width="0.3" height="2.91"/><rect class="ea0d9947-c119-49ed-b33d-ffecac2c6ac0" x="101.58" y="117.83" width="18.34" height="0.58"/><rect class="bbd2c5a5-3741-463c-a9fb-7121459cef01" x="102.21" y="118.41" width="17" height="1.97"/><rect class="fabc2a44-29c6-4578-9897-4bd2add676a1" x="102.21" y="118.41" width="17" height="0.64"/><rect class="ea0d9947-c119-49ed-b33d-ffecac2c6ac0" x="100.45" y="119.13" width="20.61" height="0.58"/><rect class="bbd2c5a5-3741-463c-a9fb-7121459cef01" x="101.15" y="119.72" width="19.1" height="1.3"/><rect class="fabc2a44-29c6-4578-9897-4bd2add676a1" x="101.15" y="119.72" width="19.1" height="0.64"/><path class="bc7c1508-f5f4-4b90-946c-412d17cbc0aa" d="M329,226.19c1.3,3.57,9.64,3.44,18.62-.3s15.2-9.67,13.9-13.24-9.64-3.44-18.62.3S327.68,222.61,329,226.19Z" transform="translate(-153.86 -92.05)"/><path class="acf3f899-de9c-4d74-9fac-9f96d7e0e891" d="M330.73,156.16c-.67,2.75-.77,4.71-1,5.87A67.78,67.78,0,0,0,326,173s-1.55,3.36-1.48,4.21,1.56,2.93,2.65,2.93.56-3.55.56-3.55a11.7,11.7,0,0,0,1.18-2.54,11.4,11.4,0,0,0-.1-1.91c1-2,2-3.11,2.78-4.94l1.52-3.52.71-7.56-1.49-1S330.93,155.7,330.73,156.16Z" transform="translate(-153.86 -92.05)"/><path class="a277b9e4-d6c9-432f-923e-b40563e7dd3d" d="M335.47,157.17c.62-2.72.78-3.91.84-4.29.13-.88.69-4.38-2-4.88-3.48-.64-3.48,5-3.48,5a24.48,24.48,0,0,1-.38,3.24s-.19,1.29,2.59,1.84C335.12,158.51,335.47,157.17,335.47,157.17Z" transform="translate(-153.86 -92.05)"/><path class="e77a630e-1eb5-4ace-b218-7fb4da4abc81" d="M333.88,220.3a57.08,57.08,0,0,1-5.47,4.81,1.36,1.36,0,0,0,.11,1.59c.61.42,2.4.23,3.43-.23s2.67-2.15,3.43-2.52,2.7-.32,3.23-.89-.18-3.64-.18-3.64Z" transform="translate(-153.86 -92.05)"/><path class="f340bcb7-ec91-4b15-8433-5cc063d6334c" d="M333.06,175.56c-2.5,10.51-.51,17.6-.9,26.64-.08,1.89,2.64,5.22,1.66,18.14,1,2,4.71.69,4.64-1-.13-3,.88-9.08.56-12.42-.17-1.78-1.55-3.76-1.55-5.22,0-2.18,2.24-9.45,3.24-16.09,0-1.27.16-5,.16-5S333.38,174.29,333.06,175.56Z" transform="translate(-153.86 -92.05)"/><path class="e77a630e-1eb5-4ace-b218-7fb4da4abc81" d="M354.27,209.87a43.85,43.85,0,0,1-3.23,5.94,1.42,1.42,0,0,0,.3,2.05,3.94,3.94,0,0,0,4.68-1.5,35.89,35.89,0,0,0,3.47-7.43c.22-1.12-1.54-2.37-1.54-2.37Z" transform="translate(-153.86 -92.05)"/><path class="fd72f91f-8424-4306-b056-2db5d5db92bf" d="M333.06,176.25c1.48,5.16,6.91,7.18,6.91,7.18s1.54,11.39,6.68,17.46c1.27,1.5,5.71,2.94,7.5,9.26.37,1.31,5.86-.76,3.92-3.78-2.22-3.47-3-5.89-4.26-7.55a10.53,10.53,0,0,0-3.29-2.19c-.51-.69,0-17.39-1.63-20C347.41,176.86,333.06,175.93,333.06,176.25Z" transform="translate(-153.86 -92.05)"/><polygon class="bdd9b324-5529-4af5-b785-218bc71f0a65" points="188.4 55.55 188.86 57.37 189.93 60.32 188.07 64.1 183.3 65.67 180.76 63.91 180.42 60.29 181.48 57.5 185.94 55.01 188.4 55.55"/><path class="fa921072-f730-4434-9b7d-7d11be848f02" d="M342.72,149.41s-.64,6.06-5.66,5.64a3.6,3.6,0,0,1,.43-5.33l-2.71-.47-1.18,3.84.34,3.73,4,2.43,4.45-2.2,1.59-4.74Z" transform="translate(-153.86 -92.05)"/><path class="e77a630e-1eb5-4ace-b218-7fb4da4abc81" d="M347.13,154.46a36.25,36.25,0,0,0-4.41-5.05s.1,3.42-1,4.74-5.47,2.51-5.47,2.51-1.38-3.47-.63-5.43a4.26,4.26,0,0,1,2.23-2.53l-2.91-.58s-4.84,5.49-4.33,12c.3,3.68,1.39,8.16,1.62,15.17,0,.74,1.4,2.2,3.39,3.41.07,0,.22-.51.22-.51a3.2,3.2,0,0,0,.32.82,11.92,11.92,0,0,0,5.42,1.61c4.56.09,8.05-1.84,7.8-4.78S347.66,155.25,347.13,154.46Z" transform="translate(-153.86 -92.05)"/><path class="acf3f899-de9c-4d74-9fac-9f96d7e0e891" d="M333.45,147.28a7.34,7.34,0,0,0,.53,2.16c.16,1.66,1.93,3.48,2.72,4.44a2.3,2.3,0,0,0,3.16-.11c.35-.69,2-3.79,2.09-4.05a16.86,16.86,0,0,0,0-1.89s1.06-.44.69-2.52c-.22-.61-3.07-2.37-3.07-2.37l-6.43.6-.17,1.94Z" transform="translate(-153.86 -92.05)"/><path class="acb309a8-1cf0-449c-8339-034222196416" d="M335.64,137.72a3.11,3.11,0,0,1,3.86-3c5.64.9,3.66,7.65,3.66,7.65l-5.83-1.83Z" transform="translate(-153.86 -92.05)"/><path class="b08ead64-8738-408b-bb62-c178cf14476a" d="M339.93,137.42a1.74,1.74,0,1,1-1.7-1.76A1.73,1.73,0,0,1,339.93,137.42Z" transform="translate(-153.86 -92.05)"/><path class="a46e6621-2638-4a7f-9eb3-39192a312de2" d="M341.5,147.6c-.33-.88-.69-.37-1.2-1s-.24-.5-.4-.8c-.38-.75-1.3,1.07-3.59,1-2-.1-2.75-1.33-2.86-1s.17.91,0,1.52c-1.73-1.69-1.09-7.35,1.51-9.16,4.72-3.27,10.43,2.7,7.59,7.33C341.74,146.78,342.12,147.16,341.5,147.6Z" transform="translate(-153.86 -92.05)"/><path class="acf3f899-de9c-4d74-9fac-9f96d7e0e891" d="M344,164.69c.28,2.34.69,5.39,1.28,8.6-1.9,3.44-1.68,8.24-3.75,12.77a5,5,0,0,0,2.56,1c1.89-4.2,5.35-10.42,5.29-13,0-1.93-.2-6.36-.35-10Z" transform="translate(-153.86 -92.05)"/><path class="a277b9e4-d6c9-432f-923e-b40563e7dd3d" d="M349.07,164.06c-.11-2.8-.22-5.14-.27-5.52-.11-.87-.48-4.41-3.18-4.08-3.51.42-2,5.85-2,5.85s.13,1.73.44,4.38c0,0,.16,1.29,3,1C349.09,165.45,349.07,164.06,349.07,164.06Z" transform="translate(-153.86 -92.05)"/><path class="f23da13d-c6cb-4c29-9ba6-75ac6fb3bee8" d="M336.24,156.66a13.09,13.09,0,0,0-1.18,2.44,10.66,10.66,0,0,0-.56,2.68,29.55,29.55,0,0,0,.25,5.49q.35,2.72.62,5.43c.19,1.81.33,3.63.46,5.45,0-1.83-.09-3.65-.23-5.48s-.36-3.63-.56-5.44a30.88,30.88,0,0,1-.32-5.43A12.25,12.25,0,0,1,336.24,156.66Z" transform="translate(-153.86 -92.05)"/><path class="acf3f899-de9c-4d74-9fac-9f96d7e0e891" d="M344.13,187.06a3.35,3.35,0,0,1,0,1.52,16.56,16.56,0,0,1-.9,2.64s.19,2.72-.88,2.93-2.71-3.26-2.68-4.21,1.9-3.88,1.9-3.88l1.32-.43Z" transform="translate(-153.86 -92.05)"/><path class="bc7c1508-f5f4-4b90-946c-412d17cbc0aa" d="M294.11,252.51c.82,2.26,6.08,2.17,11.75-.19s9.59-6.1,8.77-8.35-6.08-2.17-11.75.19S293.29,250.26,294.11,252.51Z" transform="translate(-153.86 -92.05)"/><path class="e77a630e-1eb5-4ace-b218-7fb4da4abc81" d="M313.11,245.27l-.45.82s-2.92.16-2.88.48a.65.65,0,0,0,.32.54,3.19,3.19,0,0,0,3.28-.78,12.8,12.8,0,0,0,.43-4.11.76.76,0,0,0-.33-.44C313.18,241.58,313.11,245.27,313.11,245.27Z" transform="translate(-153.86 -92.05)"/><path class="ea226b21-a5e4-4b2c-a76a-5189a03b7b87" d="M310.69,243.57l-.3,1.08a7.28,7.28,0,0,0-.73.79c-.2.28-.12,1.1.31,1.26a3,3,0,0,0,3.16-.64,12.53,12.53,0,0,0,.42-4.11c-.19-.65-.94-.63-1.22-.61a3.56,3.56,0,0,0-1.07.39C311,241.88,310.69,243.57,310.69,243.57Z" transform="translate(-153.86 -92.05)"/><path class="acf3f899-de9c-4d74-9fac-9f96d7e0e891" d="M298.17,223.32c-.69,1.76-1.93,5.3-1.93,5.3s-1.42,1.28-1.47,1.87.53,2.45,1.33,2.38.36-1.66.36-1.66a10.86,10.86,0,0,0,1-.85,2.21,2.21,0,0,0,.3-1.14s1.45-1.94,2.09-2.77,0-2.88,0-2.88A8.64,8.64,0,0,0,298.17,223.32Z" transform="translate(-153.86 -92.05)"/><path class="fc571d04-fa66-406e-a6c2-e94a36a62edd" d="M301,224.42c.52-1.39,1-3.12,1-3.12a28.5,28.5,0,0,0-3.21-1.38c-.67,0-.83,2.56-1.08,3.12C297.24,224.27,300.52,225.82,301,224.42Z" transform="translate(-153.86 -92.05)"/><path class="e77a630e-1eb5-4ace-b218-7fb4da4abc81" d="M300.2,249.92l0,.56s-1.52,2-3,2.26a2,2,0,0,1-2.1-.69,2.73,2.73,0,0,1,0-.35C295,251.34,300.2,249.92,300.2,249.92Z" transform="translate(-153.86 -92.05)"/><path class="ea226b21-a5e4-4b2c-a76a-5189a03b7b87" d="M300.26,248.46l-.06,1.46s-1.54,2.12-3.05,2.38a2.07,2.07,0,0,1-2.11-.6s-.4-1.11.27-1.58c1.46-1,2.48-1.88,2.48-1.88Z" transform="translate(-153.86 -92.05)"/><path class="acf3f899-de9c-4d74-9fac-9f96d7e0e891" d="M300.76,241.4c.05,2.53-.49,6.29-.49,7,0,1-2.42,1-2.48-.14-.12-2-.57-7.27-.41-7.67s2-.75,2-.75A1.55,1.55,0,0,1,300.76,241.4Z" transform="translate(-153.86 -92.05)"/><path class="a3f8bd84-f077-4182-a74b-86d7173caf3a" d="M303.51,236a56.21,56.21,0,0,0-1.9,5.35c-.29,1.22-4.69,0-4.38-1.31a40.19,40.19,0,0,1,1.88-6.69c.23-.36,3.35-.58,3.35-.58Z" transform="translate(-153.86 -92.05)"/><rect class="bdd9b324-5529-4af5-b785-218bc71f0a65" x="144.88" y="128.06" width="5.35" height="5.36"/><path class="acf3f899-de9c-4d74-9fac-9f96d7e0e891" d="M309.43,239.81a11.2,11.2,0,0,1,2.61,1.76,1.34,1.34,0,0,1,.53,1.16c-.21,1.1-.88,1.09-.88,1.09a32.89,32.89,0,0,1-4.78-.92c-.35-.16-.85-1.28-.85-1.28l1.39-1.81A4.32,4.32,0,0,1,309.43,239.81Z" transform="translate(-153.86 -92.05)"/><path class="ea226b21-a5e4-4b2c-a76a-5189a03b7b87" d="M299.23,233.82a6.38,6.38,0,0,0,4,2.87,43.24,43.24,0,0,0,2.79,5.15c1.16,1.37,4.05-.8,3.41-2.59-.51-1.41-1-5.34-1.72-6.05-.42-.36-4,.31-4,.31S299.4,233.52,299.23,233.82Z" transform="translate(-153.86 -92.05)"/><path class="a698745d-a5ec-458b-9f49-150f4542d4f2" d="M298.41,221a9.24,9.24,0,0,0-.27,3.07c.21,1.22.55,7.47.55,9.18s3.33,2.91,6.2,2.47c2.45-.38,3.1-2.07,3-3.28s-.5-3.48-.6-4.69A13.87,13.87,0,0,1,308,224l-1.56-2.09a6.47,6.47,0,0,0-2.52-2.4s-.56-.29-.69.13c.94,3.12-2.94,3.77-2.94,3.77a2.49,2.49,0,0,1-.37-3.61C299.14,219.56,298.41,221,298.41,221Z" transform="translate(-153.86 -92.05)"/><path class="acf3f899-de9c-4d74-9fac-9f96d7e0e891" d="M296.92,214.25a6.47,6.47,0,0,0,0,2.9,7.23,7.23,0,0,0-.1,2,4.12,4.12,0,0,0,2,2.48,4.39,4.39,0,0,0,3.89-.61,3.66,3.66,0,0,0,1-1.06,1.35,1.35,0,0,0,.82-1.25,5.72,5.72,0,0,0-.88-4.55Z" transform="translate(-153.86 -92.05)"/><path class="a46e6621-2638-4a7f-9eb3-39192a312de2" d="M303.13,219c.44-.34.69-1.06,1-1.26.48-.32.43,1,.43,1a6.76,6.76,0,0,0,.43-6s.16-.11,1,.16c0,0-1-1.21-1.9-1.21a5.83,5.83,0,0,0-5.29-.25c-2.34,1.35-3.39,3.55-2,5.07,2.82.56,5.1.57,5.3.81C302.78,218,303,218.16,303.13,219Z" transform="translate(-153.86 -92.05)"/><path class="acf3f899-de9c-4d74-9fac-9f96d7e0e891" d="M312.83,234.74a8,8,0,0,1,1,2.06c.11,1.49-2.06,2.6-2.31,2.44s-.25-1.67-.25-1.67-.28-1-.39-.91-.41,1.2-.77,1.11-.08-1.16,0-1.69a1.93,1.93,0,0,1,.69-1l.78-1Z" transform="translate(-153.86 -92.05)"/><path class="acf3f899-de9c-4d74-9fac-9f96d7e0e891" d="M308.62,228.62c.33,1.38,1.65,4.76,2.17,6.48l2-.36c-.48-2.55-.66-6.46-2-7.78-.1-.1-1.49-2-1.73-1.91s-1.92,1.67-2.07,1.77C306.38,227.26,308.58,228.42,308.62,228.62Z" transform="translate(-153.86 -92.05)"/><path class="fc571d04-fa66-406e-a6c2-e94a36a62edd" d="M309.68,225.23c-1-1.09-1.91-2-2.43-2.6a1.5,1.5,0,0,0-2.51-.23c-1.3,1.21,0,2.77,0,2.77s2,2.15,2.41,2.64C307.94,228.85,310.64,226.31,309.68,225.23Z" transform="translate(-153.86 -92.05)"/><path class="bc7c1508-f5f4-4b90-946c-412d17cbc0aa" d="M271,273.52c.83,2.26,6.09,2.17,11.75-.19s9.6-6.1,8.77-8.35-6.08-2.17-11.74.19S270.2,271.27,271,273.52Z" transform="translate(-153.86 -92.05)"/><path class="e77a630e-1eb5-4ace-b218-7fb4da4abc81" d="M287.68,266.29l-.45.81s-2.92.16-2.87.48a.61.61,0,0,0,.32.54,3.19,3.19,0,0,0,3.28-.78,12.78,12.78,0,0,0,.42-4.11.73.73,0,0,0-.33-.44C287.75,262.59,287.68,266.29,287.68,266.29Z" transform="translate(-153.86 -92.05)"/><path class="ea226b21-a5e4-4b2c-a76a-5189a03b7b87" d="M285.27,264.59l-.31,1.07a10.15,10.15,0,0,0-.73.79c-.2.29-.12,1.1.31,1.26a3,3,0,0,0,3.16-.64,12.8,12.8,0,0,0,.43-4.11c-.2-.65-.95-.63-1.22-.61a3.52,3.52,0,0,0-1.08.39C285.56,262.89,285.27,264.59,285.27,264.59Z" transform="translate(-153.86 -92.05)"/><path class="acf3f899-de9c-4d74-9fac-9f96d7e0e891" d="M271.13,245.42c-1,1.62-2.8,4.9-2.8,4.9s-1.62,1-1.77,1.58.1,2.52.9,2.58.64-1.57.64-1.57a10.59,10.59,0,0,0,1.14-.67,2.21,2.21,0,0,0,.49-1.07l2.53-2.38c.78-.72.49-2.83.49-2.83A8.77,8.77,0,0,0,271.13,245.42Z" transform="translate(-153.86 -92.05)"/><path class="fc571d04-fa66-406e-a6c2-e94a36a62edd" d="M273.77,247c.75-1.28,1.55-2.9,1.55-2.9s-.12-3.07-2.93-1.9c-.61.25-1.24,2.38-1.59,2.89C270.05,246.19,273,248.28,273.77,247Z" transform="translate(-153.86 -92.05)"/><path class="e77a630e-1eb5-4ace-b218-7fb4da4abc81" d="M282.54,268.08l.27.5s-.33,2.49-1.51,3.47a2,2,0,0,1-2.16.45s-.09-.12-.2-.3S282.54,268.08,282.54,268.08Z" transform="translate(-153.86 -92.05)"/><path class="ea226b21-a5e4-4b2c-a76a-5189a03b7b87" d="M281.87,266.79l.67,1.29s-.28,2.61-1.46,3.59a2.07,2.07,0,0,1-2.12.53s-.91-.77-.56-1.5c.77-1.61,1.21-2.87,1.21-2.87Z" transform="translate(-153.86 -92.05)"/><path class="acf3f899-de9c-4d74-9fac-9f96d7e0e891" d="M278.79,260.42c1.3,2.16,2.7,5.69,3,6.29.5.87-1.62,2-2.22,1.12-1.12-1.72-4.11-6-4.16-6.45s1.33-1.63,1.33-1.63A1.55,1.55,0,0,1,278.79,260.42Z" transform="translate(-153.86 -92.05)"/><path class="a3f8bd84-f077-4182-a74b-86d7173caf3a" d="M278.45,254.32s.56,4.06,1,5.59c.36,1.19-4.06,2.33-4.45,1a39.47,39.47,0,0,1-1.7-6.74c0-.42,2.62-2.17,2.62-2.17Z" transform="translate(-153.86 -92.05)"/><rect class="bdd9b324-5529-4af5-b785-218bc71f0a65" x="119.46" y="149.07" width="5.35" height="5.36"/><path class="acf3f899-de9c-4d74-9fac-9f96d7e0e891" d="M284,260.83a10.94,10.94,0,0,1,2.61,1.75,1.31,1.31,0,0,1,.53,1.16c-.21,1.1-.87,1.09-.87,1.09a33,33,0,0,1-4.79-.92c-.34-.16-.85-1.28-.85-1.28l1.39-1.8A4.17,4.17,0,0,1,284,260.83Z" transform="translate(-153.86 -92.05)"/><path class="ea226b21-a5e4-4b2c-a76a-5189a03b7b87" d="M273.8,254.83a6.42,6.42,0,0,0,4,2.88,43.44,43.44,0,0,0,2.79,5.14c1.16,1.38,4.06-.8,3.41-2.59-.5-1.41-1-5.34-1.72-6-.42-.37-4,.3-4,.3S274,254.53,273.8,254.83Z" transform="translate(-153.86 -92.05)"/><path class="a698745d-a5ec-458b-9f49-150f4542d4f2" d="M273,242a9.13,9.13,0,0,0-.28,3.07c.21,1.22.55,7.47.55,9.18s3.34,2.91,6.2,2.47c2.45-.38,3.11-2.07,3-3.28s-.5-3.47-.6-4.69-.54-3.68-.54-3.68l-.28-2.15a6.46,6.46,0,0,0-2.53-2.4s-.56-.29-.69.13c.95,3.12-2.93,3.77-2.93,3.77a2.48,2.48,0,0,1-.37-3.61C273.71,240.57,273,242,273,242Z" transform="translate(-153.86 -92.05)"/><path class="acf3f899-de9c-4d74-9fac-9f96d7e0e891" d="M271.5,235.26a6.54,6.54,0,0,0,0,2.9,7.68,7.68,0,0,0-.1,2,4.12,4.12,0,0,0,2,2.48,4.41,4.41,0,0,0,3.9-.61,3.83,3.83,0,0,0,1-1.06,1.35,1.35,0,0,0,.81-1.25,5.72,5.72,0,0,0-.88-4.55Z" transform="translate(-153.86 -92.05)"/><path class="a46e6621-2638-4a7f-9eb3-39192a312de2" d="M277.71,240c.43-.34.68-1.06,1-1.26.49-.32.43,1,.43,1s-3.57,4.39,3.33,3.94a1.77,1.77,0,0,1,1.56-1.71c-.89-3.75-4.55-8.58-6.12-9.61a6.33,6.33,0,0,0-4.94-.24,1,1,0,0,1,.46.32c-1.93,1.31-3.06,3.6-1.72,5.12,0-.77.75-1.55.73-1a2.16,2.16,0,0,0,.93,1.92c.63-1.5,1.68-1.62,1.89-1.38.07.07-.36.79.2,1.44a.87.87,0,0,1,1.23-.2C277.35,239,277.61,239.17,277.71,240Z" transform="translate(-153.86 -92.05)"/><path class="acf3f899-de9c-4d74-9fac-9f96d7e0e891" d="M287.27,253.1a7.82,7.82,0,0,1,1.24,1.92c.3,1.46-1.71,2.83-2,2.7s-.46-1.62-.46-1.62-.4-.92-.51-.85-.24,1.24-.61,1.19-.23-1.13-.22-1.67a1.91,1.91,0,0,1,.56-1.06l.65-1.05Z" transform="translate(-153.86 -92.05)"/><path class="acf3f899-de9c-4d74-9fac-9f96d7e0e891" d="M282.33,247.55c.49,1.33,2.23,4.51,3,6.16l2-.61c-.8-2.48-1.46-6.33-3-7.46-.12-.09-1.74-1.83-1.95-1.69s-1.71,1.9-1.84,2C279.93,246.49,282.25,247.36,282.33,247.55Z" transform="translate(-153.86 -92.05)"/><path class="fc571d04-fa66-406e-a6c2-e94a36a62edd" d="M282.94,244.06c-1.09-1-2.14-1.77-2.73-2.28a1.5,1.5,0,0,0-2.51.09c-1.14,1.37.33,2.75.33,2.75s2.29,1.88,2.72,2.31C281.68,247.87,284,245,282.94,244.06Z" transform="translate(-153.86 -92.05)"/><path class="bc7c1508-f5f4-4b90-946c-412d17cbc0aa" d="M310.05,272.66c.82,2.25,6.08,2.17,11.75-.19s9.59-6.1,8.77-8.35-6.08-2.18-11.75.19S309.23,270.41,310.05,272.66Z" transform="translate(-153.86 -92.05)"/><path class="e77a630e-1eb5-4ace-b218-7fb4da4abc81" d="M329,265.42l-.44.81s-2.92.17-2.88.49a.65.65,0,0,0,.32.54,3.21,3.21,0,0,0,3.28-.78,12.83,12.83,0,0,0,.43-4.12.77.77,0,0,0-.33-.43C329.12,261.73,329,265.42,329,265.42Z" transform="translate(-153.86 -92.05)"/><path class="ea226b21-a5e4-4b2c-a76a-5189a03b7b87" d="M326.63,263.72l-.3,1.08a7.28,7.28,0,0,0-.73.79c-.2.28-.12,1.09.3,1.26a3,3,0,0,0,3.17-.64,12.57,12.57,0,0,0,.42-4.12c-.19-.64-.94-.63-1.22-.61a3.59,3.59,0,0,0-1.07.4C326.93,262,326.63,263.72,326.63,263.72Z" transform="translate(-153.86 -92.05)"/><path class="acf3f899-de9c-4d74-9fac-9f96d7e0e891" d="M314.58,245.08c-.18,1.89-.42,5.63-.42,5.63s-1,1.61-.92,2.19,1.17,2.22,1.92,1.94-.09-1.7-.09-1.7a10.09,10.09,0,0,0,.73-1.09,2.16,2.16,0,0,0,0-1.17s.87-2.26,1.27-3.24-.77-2.77-.77-2.77A9.67,9.67,0,0,0,314.58,245.08Z" transform="translate(-153.86 -92.05)"/><path class="fc571d04-fa66-406e-a6c2-e94a36a62edd" d="M317.65,245.37c.12-1.47.15-3.28.15-3.28a27.77,27.77,0,0,0-3.45-.47c-.65.17-.11,2.68-.21,3.3C313.94,246.24,317.53,246.86,317.65,245.37Z" transform="translate(-153.86 -92.05)"/><path class="e77a630e-1eb5-4ace-b218-7fb4da4abc81" d="M316.14,270.07l0,.56s-1.52,2-3,2.26a2,2,0,0,1-2.1-.69,2.73,2.73,0,0,1,0-.35C311,271.49,316.14,270.07,316.14,270.07Z" transform="translate(-153.86 -92.05)"/><path class="ea226b21-a5e4-4b2c-a76a-5189a03b7b87" d="M316.2,268.61l-.06,1.46s-1.54,2.12-3.05,2.38a2.07,2.07,0,0,1-2.11-.6s-.4-1.12.27-1.58c1.46-1,2.48-1.88,2.48-1.88Z" transform="translate(-153.86 -92.05)"/><path class="acf3f899-de9c-4d74-9fac-9f96d7e0e891" d="M316.7,261.55c.05,2.53-.49,6.28-.49,7,0,1-2.42,1-2.48-.13-.12-2.05-.57-7.28-.41-7.67s2-.75,2-.75A1.55,1.55,0,0,1,316.7,261.55Z" transform="translate(-153.86 -92.05)"/><path class="a3f8bd84-f077-4182-a74b-86d7173caf3a" d="M319.45,256.09a56.69,56.69,0,0,0-1.9,5.36c-.29,1.21-4.69,0-4.38-1.31a40.53,40.53,0,0,1,1.88-6.7c.23-.35,3.35-.57,3.35-.57Z" transform="translate(-153.86 -92.05)"/><rect class="bdd9b324-5529-4af5-b785-218bc71f0a65" x="160.82" y="148.2" width="5.35" height="5.36"/><path class="acf3f899-de9c-4d74-9fac-9f96d7e0e891" d="M325.37,260a11.2,11.2,0,0,1,2.61,1.76,1.31,1.31,0,0,1,.52,1.16c-.21,1.1-.87,1.09-.87,1.09a32.89,32.89,0,0,1-4.78-.92c-.35-.17-.85-1.28-.85-1.28l1.38-1.81A4.21,4.21,0,0,1,325.37,260Z" transform="translate(-153.86 -92.05)"/><path class="ea226b21-a5e4-4b2c-a76a-5189a03b7b87" d="M315.17,254a6.39,6.39,0,0,0,4,2.88A41.71,41.71,0,0,0,322,262c1.16,1.37,4.05-.81,3.41-2.59-.51-1.41-1-5.34-1.72-6-.42-.37-4,.31-4,.31S315.34,253.67,315.17,254Z" transform="translate(-153.86 -92.05)"/><path class="a698745d-a5ec-458b-9f49-150f4542d4f2" d="M314.35,241.15a9.31,9.31,0,0,0-.27,3.08c.21,1.21.55,7.47.55,9.18s3.33,2.91,6.2,2.47c2.45-.38,3.1-2.08,3-3.28s-.5-3.48-.6-4.7a28.64,28.64,0,0,0-.64-3.37l-.19-2.45a6.52,6.52,0,0,0-2.52-2.41s-.56-.28-.69.14c.94,3.12-2.94,3.77-2.94,3.77a2.49,2.49,0,0,1-.37-3.61C315.08,239.71,314.35,241.15,314.35,241.15Z" transform="translate(-153.86 -92.05)"/><path class="acf3f899-de9c-4d74-9fac-9f96d7e0e891" d="M312.86,234.4a6.42,6.42,0,0,0,0,2.89,7.63,7.63,0,0,0-.11,2,4.19,4.19,0,0,0,2,2.48,4.42,4.42,0,0,0,3.89-.61,3.66,3.66,0,0,0,1-1.06,1.35,1.35,0,0,0,.82-1.25,5.72,5.72,0,0,0-.88-4.55Z" transform="translate(-153.86 -92.05)"/><path class="a46e6621-2638-4a7f-9eb3-39192a312de2" d="M319.07,239.09c.44-.33.69-1.05,1-1.25.48-.33.43,1,.43,1a6.81,6.81,0,0,0,.43-6s.16-.1,1.05.17c0,0-1-1.22-1.9-1.22a5.07,5.07,0,0,0-.86-2.07s.32,1-.1,1.28c-.88-.67-3.35-.5-4.8.23a1,1,0,0,1,.47.31c-1.94,1.32-3.07,3.6-1.72,5.13,0-.77.74-1.56.73-1a2.15,2.15,0,0,0,.92,1.92c.64-1.51,1.69-1.62,1.9-1.39s-.36.8.19,1.45a.88.88,0,0,1,1.23-.21C318.71,238.16,319,238.31,319.07,239.09Z" transform="translate(-153.86 -92.05)"/><path class="acf3f899-de9c-4d74-9fac-9f96d7e0e891" d="M311.61,251.75a8.16,8.16,0,0,1-1.89,1.29c-1.46.33-2.88-1.65-2.75-1.93s1.61-.49,1.61-.49.91-.43.84-.53-1.25-.22-1.21-.59,1.13-.25,1.66-.25a2,2,0,0,1,1.08.54l1.07.62Z" transform="translate(-153.86 -92.05)"/><path class="acf3f899-de9c-4d74-9fac-9f96d7e0e891" d="M317,246.67c-1.31.53-4.45,2.34-6.08,3.12l.66,2c2.45-.86,6.29-1.61,7.39-3.17.08-.12,1.78-1.78,1.63-2s-1.94-1.66-2.06-1.79C318,244.26,317.23,246.6,317,246.67Z" transform="translate(-153.86 -92.05)"/><path class="fc571d04-fa66-406e-a6c2-e94a36a62edd" d="M320.55,247.21c.92-1.11,1.71-2.19,2.2-2.79a1.5,1.5,0,0,0-.14-2.51c-1.39-1.1-2.74.4-2.74.4s-1.83,2.33-2.25,2.77C316.7,246,319.62,248.32,320.55,247.21Z" transform="translate(-153.86 -92.05)"/><path class="bc7c1508-f5f4-4b90-946c-412d17cbc0aa" d="M260.8,264.44c-.8,2.26-6,2.17-11.49-.19s-9.39-6.1-8.59-8.35,5.95-2.17,11.5.19S261.6,262.19,260.8,264.44Z" transform="translate(-153.86 -92.05)"/><path class="e77a630e-1eb5-4ace-b218-7fb4da4abc81" d="M242.21,257.2l.44.81s2.86.17,2.82.49a.65.65,0,0,1-.32.54,3.08,3.08,0,0,1-3.21-.78,13.11,13.11,0,0,1-.41-4.11.71.71,0,0,1,.32-.44C242.14,253.51,242.21,257.2,242.21,257.2Z" transform="translate(-153.86 -92.05)"/><path class="ea226b21-a5e4-4b2c-a76a-5189a03b7b87" d="M244.58,255.5l.29,1.08a7.54,7.54,0,0,1,.72.79c.19.28.12,1.09-.3,1.26a2.91,2.91,0,0,1-3.1-.64,13.14,13.14,0,0,1-.41-4.12c.19-.64.92-.62,1.19-.6a3.36,3.36,0,0,1,1.05.39C244.29,253.81,244.58,255.5,244.58,255.5Z" transform="translate(-153.86 -92.05)"/><path class="acf3f899-de9c-4d74-9fac-9f96d7e0e891" d="M256.83,235.24c.67,1.77,1.88,5.31,1.88,5.31s1.39,1.28,1.45,1.86-.52,2.46-1.3,2.39-.36-1.66-.36-1.66a10.43,10.43,0,0,1-1-.85,2.21,2.21,0,0,1-.3-1.14s-1.42-1.94-2.05-2.77,0-2.88,0-2.88A9,9,0,0,1,256.83,235.24Z" transform="translate(-153.86 -92.05)"/><path class="fc571d04-fa66-406e-a6c2-e94a36a62edd" d="M254,236.35c-.51-1.39-1-3.12-1-3.12a27,27,0,0,1,3.14-1.38c.65,0,.8,2.56,1.05,3.12C257.74,236.19,254.53,237.75,254,236.35Z" transform="translate(-153.86 -92.05)"/><path class="e77a630e-1eb5-4ace-b218-7fb4da4abc81" d="M254.84,261.85l0,.56s1.49,2,3,2.26a1.92,1.92,0,0,0,2.05-.69,2.73,2.73,0,0,0,0-.35C259.9,263.27,254.84,261.85,254.84,261.85Z" transform="translate(-153.86 -92.05)"/><path class="ea226b21-a5e4-4b2c-a76a-5189a03b7b87" d="M254.78,260.39l.06,1.46s1.51,2.12,3,2.38a2,2,0,0,0,2.06-.6s.39-1.11-.26-1.58c-1.44-1-2.43-1.88-2.43-1.88Z" transform="translate(-153.86 -92.05)"/><path class="acf3f899-de9c-4d74-9fac-9f96d7e0e891" d="M254.29,253.33c0,2.53.49,6.29.49,7,0,1,2.36,1,2.42-.14.12-2.05.56-7.27.4-7.67s-1.93-.75-1.93-.75A1.54,1.54,0,0,0,254.29,253.33Z" transform="translate(-153.86 -92.05)"/><path class="a3f8bd84-f077-4182-a74b-86d7173caf3a" d="M251.61,247.88s1.5,3.79,1.86,5.35c.27,1.21,4.58,0,4.28-1.31a40.52,40.52,0,0,0-1.84-6.69c-.23-.36-3.28-.58-3.28-.58Z" transform="translate(-153.86 -92.05)"/><rect class="bdd9b324-5529-4af5-b785-218bc71f0a65" x="97.18" y="139.99" width="5.24" height="5.36"/><path class="acf3f899-de9c-4d74-9fac-9f96d7e0e891" d="M245.81,251.74a10.91,10.91,0,0,0-2.55,1.76,1.34,1.34,0,0,0-.52,1.16c.21,1.1.86,1.09.86,1.09a31.21,31.21,0,0,0,4.67-.92c.34-.16.84-1.28.84-1.28l-1.36-1.81A4.15,4.15,0,0,0,245.81,251.74Z" transform="translate(-153.86 -92.05)"/><path class="ea226b21-a5e4-4b2c-a76a-5189a03b7b87" d="M255.79,245.74a6.21,6.21,0,0,1-3.9,2.88,43.84,43.84,0,0,1-2.73,5.15c-1.13,1.37-4-.81-3.34-2.59.5-1.41.94-5.34,1.68-6.05.41-.36,3.91.31,3.91.31S255.63,245.45,255.79,245.74Z" transform="translate(-153.86 -92.05)"/><path class="a698745d-a5ec-458b-9f49-150f4542d4f2" d="M256.59,232.94a9.53,9.53,0,0,1,.27,3.07c-.21,1.22-.54,7.47-.54,9.18s-3.26,2.91-6.06,2.47c-2.41-.38-3-2.07-2.91-3.28s.49-3.48.58-4.69a14.09,14.09,0,0,0-.71-3.74l1.52-2.09a6.47,6.47,0,0,1,2.47-2.41s.55-.28.68.14c-.93,3.12,2.87,3.77,2.87,3.77a2.52,2.52,0,0,0,.36-3.61C255.88,231.49,256.59,232.94,256.59,232.94Z" transform="translate(-153.86 -92.05)"/><path class="acf3f899-de9c-4d74-9fac-9f96d7e0e891" d="M258.05,226.18a6.58,6.58,0,0,1,0,2.89,7.77,7.77,0,0,1,.1,2,4.1,4.1,0,0,1-2,2.48,4.24,4.24,0,0,1-3.82-.61,3.75,3.75,0,0,1-1-1.06,1.36,1.36,0,0,1-.79-1.25,5.81,5.81,0,0,1,.86-4.55Z" transform="translate(-153.86 -92.05)"/><path class="a46e6621-2638-4a7f-9eb3-39192a312de2" d="M252,230.88c-.42-.34-.67-1.06-1-1.26-.48-.33-.42,1-.42,1a6.9,6.9,0,0,1-.43-6s-2.42,2-8.15,0c0,0,8.43-6.66,9.93-1.89.86-.67,4.46-.19,5.57.92a3.7,3.7,0,0,1,.66,4.75c0-.77-3.47-.6-5.18.75A2.06,2.06,0,0,0,252,230.88Z" transform="translate(-153.86 -92.05)"/><path class="acf3f899-de9c-4d74-9fac-9f96d7e0e891" d="M241.33,240.55a6.71,6.71,0,0,0-1.43,1.29,2.36,2.36,0,0,0,1,2.64c.25,0,.74-1.22.74-1.22s.53-.66.6-.58-.09,1.07.22,1.11.44-.87.55-1.32a1.63,1.63,0,0,0-.2-1l-.28-1Z" transform="translate(-153.86 -92.05)"/><path class="acf3f899-de9c-4d74-9fac-9f96d7e0e891" d="M246.56,237.13c-.7,1-2.82,3.18-3.79,4.35l-1.44-.93c1.21-1.84,2.63-4.83,4.11-5.42.11,0,1.81-1.1,1.95-.94s.92,1.93,1,2.06C248.72,236.79,246.66,237,246.56,237.13Z" transform="translate(-153.86 -92.05)"/><path class="fc571d04-fa66-406e-a6c2-e94a36a62edd" d="M246.87,234.14c1.09-.54,2.12-1,2.71-1.24.42-.2,1.38-.78,2,.62s-.9,2.16-.9,2.16-2.26,1-2.71,1.29C247,237.53,245.78,234.68,246.87,234.14Z" transform="translate(-153.86 -92.05)"/><path class="bc7c1508-f5f4-4b90-946c-412d17cbc0aa" d="M272.57,277.86a6.12,6.12,0,0,1,5.9,0c1.63,1,1.63,2.64,0,3.65a6.18,6.18,0,0,1-5.9,0C270.94,280.5,270.94,278.87,272.57,277.86Z" transform="translate(-153.86 -92.05)"/><path class="e77a630e-1eb5-4ace-b218-7fb4da4abc81" d="M270.75,275.78a4.74,4.74,0,1,0,4.72-5.06A4.89,4.89,0,0,0,270.75,275.78Z" transform="translate(-153.86 -92.05)"/><polygon class="a277b9e4-d6c9-432f-923e-b40563e7dd3d" points="120.63 181.27 119.63 180.13 118.11 181.22 118.06 183.04 119.68 183.09 120.63 181.27"/><polygon class="a277b9e4-d6c9-432f-923e-b40563e7dd3d" points="122.71 181.27 123.72 180.13 125.24 181.22 125.28 183.04 123.67 183.09 122.71 181.27"/><polygon class="a277b9e4-d6c9-432f-923e-b40563e7dd3d" points="120.62 185.06 122.71 185.06 123.25 186.78 121.67 187.79 120.09 186.78 120.62 185.06"/><path class="a277b9e4-d6c9-432f-923e-b40563e7dd3d" d="M272.29,278.63l-.93-1.85-.54-.15a4.76,4.76,0,0,0,.43,1.46,4.65,4.65,0,0,0,1,1.41Z" transform="translate(-153.86 -92.05)"/><path class="a277b9e4-d6c9-432f-923e-b40563e7dd3d" d="M278.66,278.63l.93-1.85.54-.15a5.13,5.13,0,0,1-.43,1.46,4.46,4.46,0,0,1-1,1.41Z" transform="translate(-153.86 -92.05)"/><path class="a277b9e4-d6c9-432f-923e-b40563e7dd3d" d="M276.68,270.89l-.26.14h-2l-.22-.13a2.47,2.47,0,0,1,1.23-.19A2.67,2.67,0,0,1,276.68,270.89Z" transform="translate(-153.86 -92.05)"/></svg>