<svg id="b79375c1-6f6e-49e4-9602-f59401329c91" data-name="圖層 9" xmlns="http://www.w3.org/2000/svg" viewBox="0 0 314.76 314.76"><defs><style>.b2e34c4e-eead-4f1b-9eec-38e73f68b421{fill:#d8ac5d;}.af2019e3-5ada-4c25-8ab5-f7ed3980f8e0{fill:#f2c664;}.bf849fae-3042-479a-ba4c-f43d683b91d4{fill:#ffebb4;}.e2a5f771-e768-4b7b-8c7c-1bbe8737a7a1{fill:#e0e0e0;}.f241be3e-b60e-4d5b-bf21-ecb395e24c1a{fill:#fff;}.f9ba5a85-48aa-425a-a812-3e89bafad5ee{fill:#ae4e32;}.baa897d1-2697-4f00-8cc3-051bcffe4d26{fill:#ff6838;}.b92c8489-cf2e-4628-b0fc-07041910d1ef{fill:#ccc;}.e093b167-7203-4171-96f9-84b144b71051{fill:#ddd;}.e9adc677-daa2-4431-b200-64172cf9ef95{fill:#ccc3ae;}.e47277c7-6d0a-4306-bcd1-d3f23133ac92{fill:#ddd2b6;}.a5899ad6-230d-4fe6-a22f-34efadc14f54{fill:#ffe872;}.aba839bd-a85d-4655-95b2-b9bba4b79f04{fill:#ff8e1b;}.b9d1f7fb-f7ba-4768-8ab3-7e06a5536f84{fill:none;stroke:#ff9c1f;stroke-miterlimit:10;opacity:0.46;}</style></defs><title>s1-2</title><path class="b2e34c4e-eead-4f1b-9eec-38e73f68b421" d="M294.34,210.6l24.88,15a9.11,9.11,0,0,1,3.1,12.52l-1.86,3.08,16.35,9.86L317.1,283.75l-21.79-13.14-61.1-36.84a5,5,0,0,1,1-9l53.67-17.48,5.44,3.29Z" transform="translate(-95.62 -41.42)"/><path class="af2019e3-5ada-4c25-8ab5-f7ed3980f8e0" d="M272.32,234.81l54.48,32.85,10-16.6-16.35-9.86,1.86-3.08a9.12,9.12,0,0,0-3.1-12.53l-24.88-15-5.44-3.29Z" transform="translate(-95.62 -41.42)"/><path class="af2019e3-5ada-4c25-8ab5-f7ed3980f8e0" d="M260.65,252.57c3.83.78,9.65,3,18.31,8.18l1-1.7a10.73,10.73,0,0,1,14.73-3.65l12.6,7.6-8.46,14a9.05,9.05,0,0,1-12.44,3.08l-35.82-21.6,1.26-2.1A8.3,8.3,0,0,1,260.65,252.57Z" transform="translate(-95.62 -41.42)"/><path class="bf849fae-3042-479a-ba4c-f43d683b91d4" d="M250.6,258.51s2.72-5.64,8.73-2.16l5.45,3.28-3.29,5.45Z" transform="translate(-95.62 -41.42)"/><path class="e2a5f771-e768-4b7b-8c7c-1bbe8737a7a1" d="M342.52,246.28l-15-9-27.11,45,11.78,7.1c2.29-1.24,4.55-2.56,6.76-4Z" transform="translate(-95.62 -41.42)"/><rect class="f241be3e-b60e-4d5b-bf21-ecb395e24c1a" x="314.98" y="244.32" width="26.43" height="17.5" transform="translate(-153.61 362.04) rotate(-58.91)"/><path class="f9ba5a85-48aa-425a-a812-3e89bafad5ee" d="M335,241.76l-27.12,45,4.29,2.58a112.32,112.32,0,0,0,40.39-37Z" transform="translate(-95.62 -41.42)"/><path class="baa897d1-2697-4f00-8cc3-051bcffe4d26" d="M335,241.76l-13.65,22.63,13.9,8.39a112.29,112.29,0,0,0,17.31-20.43Z" transform="translate(-95.62 -41.42)"/><path class="af2019e3-5ada-4c25-8ab5-f7ed3980f8e0" d="M206.12,203.36l-24.88-15a9.12,9.12,0,0,1-3.1-12.52l1.86-3.09-16.35-9.85,19.71-32.69,21.8,13.14,32.69,19.71-26.28,43.59Z" transform="translate(-95.62 -41.42)"/><path class="b2e34c4e-eead-4f1b-9eec-38e73f68b421" d="M228.15,179.15,173.66,146.3l-10,16.6L180,172.76l-1.86,3.08a9.14,9.14,0,0,0,3.1,12.53l24.88,15,5.45,3.29Z" transform="translate(-95.62 -41.42)"/><rect class="b92c8489-cf2e-4628-b0fc-07041910d1ef" x="231.15" y="150.13" width="83.08" height="95.78" transform="translate(-133.31 287.88) rotate(-58.91)"/><rect class="f241be3e-b60e-4d5b-bf21-ecb395e24c1a" x="212" y="138.92" width="83.08" height="95.11" transform="translate(-132.69 265.89) rotate(-58.91)"/><rect class="f241be3e-b60e-4d5b-bf21-ecb395e24c1a" x="191.69" y="169.68" width="83.08" height="9.1" transform="translate(-132.02 242.58) rotate(-58.91)"/><rect class="e093b167-7203-4171-96f9-84b144b71051" x="184.58" y="166.19" width="83.08" height="7.5" transform="translate(-131.79 234.42) rotate(-58.91)"/><rect class="f241be3e-b60e-4d5b-bf21-ecb395e24c1a" x="208.33" y="179.71" width="83.08" height="9.1" transform="translate(-132.57 261.68) rotate(-58.91)"/><rect class="e093b167-7203-4171-96f9-84b144b71051" x="201.22" y="176.22" width="83.08" height="7.5" transform="translate(-132.33 253.52) rotate(-58.91)"/><rect class="f241be3e-b60e-4d5b-bf21-ecb395e24c1a" x="226.28" y="190.53" width="83.08" height="9.1" transform="translate(-133.15 282.29) rotate(-58.91)"/><rect class="e093b167-7203-4171-96f9-84b144b71051" x="219.16" y="187.04" width="83.08" height="7.5" transform="translate(-132.92 274.12) rotate(-58.91)"/><rect class="f241be3e-b60e-4d5b-bf21-ecb395e24c1a" x="242.64" y="200.39" width="83.08" height="9.1" transform="translate(-133.69 301.07) rotate(-58.91)"/><rect class="e093b167-7203-4171-96f9-84b144b71051" x="235.52" y="196.91" width="83.08" height="7.5" transform="translate(-133.45 292.9) rotate(-58.91)"/><rect class="e9adc677-daa2-4431-b200-64172cf9ef95" x="258.98" y="149.38" width="21.11" height="21.11" transform="translate(-102.22 266.76) rotate(-58.91)"/><rect class="e47277c7-6d0a-4306-bcd1-d3f23133ac92" x="263.16" y="156.77" width="21.11" height="11.36" transform="translate(-102.36 271.55) rotate(-58.91)"/><path class="af2019e3-5ada-4c25-8ab5-f7ed3980f8e0" d="M239.82,161.39c-3.83-.78-9.65-3-18.32-8.19l-1,1.71a10.73,10.73,0,0,1-14.73,3.65l-12.6-7.6,8.46-14A9.05,9.05,0,0,1,214,133.85l35.83,21.6-1.27,2.1A8.3,8.3,0,0,1,239.82,161.39Z" transform="translate(-95.62 -41.42)"/><path class="bf849fae-3042-479a-ba4c-f43d683b91d4" d="M249.87,155.45s-2.73,5.64-8.74,2.16l-5.44-3.28,3.28-5.45Z" transform="translate(-95.62 -41.42)"/><rect class="f241be3e-b60e-4d5b-bf21-ecb395e24c1a" x="152.74" y="140.97" width="52.51" height="17.5" transform="translate(-137.26 184.28) rotate(-58.91)"/><rect class="e2a5f771-e768-4b7b-8c7c-1bbe8737a7a1" x="159.05" y="152.13" width="26.43" height="17.5" transform="translate(-150.08 183.91) rotate(-58.91)"/><path class="a5899ad6-230d-4fe6-a22f-34efadc14f54" d="M148.85,162.2l16.59,10,27.11-45-19.27-11.62a113.69,113.69,0,0,0-24.43,46.59Z" transform="translate(-95.62 -41.42)"/><path class="aba839bd-a85d-4655-95b2-b9bba4b79f04" d="M148.85,162.2l16.59,10,13.65-22.63L158.5,137.16A113,113,0,0,0,148.85,162.2Z" transform="translate(-95.62 -41.42)"/><circle class="b9d1f7fb-f7ba-4768-8ab3-7e06a5536f84" cx="157.38" cy="157.38" r="156.88"/></svg>