<svg id="bf1c0479-ef0d-4dcd-9f9d-1b41547bfd32" data-name="圖層 10" xmlns="http://www.w3.org/2000/svg" viewBox="0 0 314.76 314.76"><defs><style>.a12fbfe0-394b-4cc1-b752-37f1fc9a2d52{fill:#f2d45b;}.abc82b22-2919-48d4-abe1-7f981577a4a2{fill:#a4a4a3;}.be6382c9-4f91-4077-8777-ab80e342a964{fill:#d0d3cf;}.a1a00551-6815-477a-986a-9c4a759e3b39{fill:#405c6c;}.be75fa5b-7512-430a-bf85-5325c042361e{fill:#3f5c6c;}.ec188239-24ea-4ef6-8d2d-ceeed33b5948{fill:#fdfdfd;}.b4645f04-f9b1-4cdc-8eab-2a206adc9112{fill:#cab191;}.b3f06731-5ca6-4327-9c82-d3f3af14a3c9{fill:#47505e;}.a85d6752-e67b-487d-aaf3-cc4a61b02977{fill:#8697ca;}.fdcd9fd1-193b-4c6e-ab2c-b89d4ef80c98{fill:#8fb9df;}.bd8e15b7-c62b-4727-bd70-378a3b2ff65b{fill:#90badf;}.becddf43-5dc7-44d5-a708-0faf49857fc5{fill:#e54d3c;}.e0008293-48ec-4e95-ac60-c6decc455c71{fill:#464f5d;}.b46776d8-2b49-40d1-9cff-585ce8a8b43e{fill:#2f323b;}.bc32f693-35b4-424a-82a6-85749d3f0ed7{fill:none;stroke:#ff9c1f;stroke-miterlimit:10;opacity:0.46;}</style></defs><title>s1-3</title><path class="a12fbfe0-394b-4cc1-b752-37f1fc9a2d52" d="M253.35,111h1.72c.93.83,1.9,1.62,2.79,2.5q6.4,6.31,12.78,12.66c.18.22.34.45.54.65l33.51,33.54a7,7,0,0,0,5.23,2.09c7.64,0,15.28,0,22.92,0q0,49.85,0,99.68c-.8,0-1.6.06-2.4.06H282l-16.94-.05,0-30.13a12,12,0,1,0-24,0q0,15.06,0,30.13c-9.48,0-19,0-28.44,0q-18.51,0-37,0V162.53c7.43,0,14.85-.12,22.27,0a8.27,8.27,0,0,0,6.39-2.65q16-16.11,32.07-32.13c.48-.48.92-1,1.38-1.52q6.38-6.31,12.74-12.64A15.93,15.93,0,0,1,253.35,111Zm66.15,84.71c0-4.91.06-9.82,0-14.73,0-2.14-1.11-3.34-3.23-3.41-2.85-.09-5.71-.1-8.56,0a3.08,3.08,0,0,0-3.28,3.4c0,4.9,0,9.81,0,14.72,0,2.91-.07,5.82-.05,8.72,0,2.12,1.07,3.35,3.21,3.44,2.9.13,5.82.13,8.72,0,2.15-.1,3.17-1.27,3.2-3.44C319.6,201.56,319.53,198.66,319.5,195.75Zm-90.75,0c0-4.84,0-9.68,0-14.52,0-2.45-1.1-3.6-3.5-3.66-2.67-.06-5.35-.06-8,0-2.39.06-3.55,1.23-3.57,3.65,0,4.84,0,9.68,0,14.52,0,2.85-.09,5.69-.05,8.54,0,2.3,1.14,3.52,3.42,3.61,2.79.1,5.58.09,8.37,0,2.16-.07,3.31-1.15,3.39-3.28A69.08,69.08,0,0,0,228.75,195.77Zm63.59,0c0-4.84.07-9.68,0-14.52,0-2.49-1.23-3.63-3.73-3.66s-5.12,0-7.68,0-3.66,1.15-3.67,3.66c0,4.84,0,9.68,0,14.52a68,68,0,0,0-.05,9,3,3,0,0,0,3.18,3.1c2.9.11,5.81.12,8.71,0,2.13-.09,3.21-1.28,3.25-3.41C292.43,201.58,292.36,198.67,292.34,195.77Zm-105.81,0c0,2.9-.09,5.81-.06,8.71,0,2.17,1,3.35,3.19,3.45,2.9.12,5.82.12,8.72,0,2.14-.1,3.18-1.32,3.2-3.45,0-2.9,0-5.81-.05-8.72,0-4.91.07-9.82,0-14.72a3.1,3.1,0,0,0-3.28-3.41c-2.85-.09-5.71-.09-8.56,0-2.12.07-3.23,1.27-3.24,3.41C186.47,185.93,186.51,190.84,186.53,195.75Zm133,42.42c0-5,.06-9.92,0-14.88,0-2.13-1.16-3.24-3.32-3.27-2.79,0-5.59,0-8.38,0a3.07,3.07,0,0,0-3.38,3.43c0,4.9,0,9.81,0,14.71,0,2.91-.08,5.82,0,8.72a3,3,0,0,0,3.29,3.33q4.27.06,8.55,0c2.06,0,3.22-1.12,3.25-3.15C319.6,244.1,319.52,241.14,319.5,238.17Zm-27.16,0c0-4.85.06-9.7,0-14.55,0-2.52-1.18-3.6-3.72-3.63s-5.14,0-7.71,0-3.65,1-3.66,3.61c0,4.85,0,9.71,0,14.56a58,58,0,0,0-.05,9c.11,2,1.26,3,3.25,3q4.27.06,8.55,0a3,3,0,0,0,3.34-3.29C292.44,244,292.36,241.1,292.34,238.19Zm-90.81,0c0-4.9.07-9.8,0-14.71,0-2.24-1.16-3.39-3.37-3.43-2.8,0-5.59,0-8.39,0-2.15,0-3.3,1.15-3.31,3.27,0,5,0,9.92,0,14.88,0,3-.09,5.93,0,8.89,0,2,1.19,3.11,3.25,3.15q4.27.06,8.55,0a3,3,0,0,0,3.28-3.33C201.61,244,201.55,241.07,201.53,238.16Zm12.15,0c0,2.91-.1,5.82,0,8.73a3.06,3.06,0,0,0,3.34,3.29c2.8,0,5.59,0,8.39,0,2.18,0,3.36-1,3.45-3.16a59.82,59.82,0,0,0-.07-8.88c0-4.85,0-9.7,0-14.56,0-2.59-1.05-3.58-3.67-3.61s-5.13,0-7.7,0-3.71,1.12-3.73,3.63C213.62,228.49,213.67,233.34,213.68,238.19ZM265,195.75c0-2.9.06-5.81,0-8.71,0-2.23-1.15-3.33-3.41-3.34q-8.62,0-17.25,0c-2.26,0-3.39,1.12-3.42,3.34,0,2.9,0,5.81,0,8.71a63.58,63.58,0,0,0-.06,9.05c.09,2,1.25,3.1,3.36,3.13q8.72.1,17.45,0c2.1,0,3.27-1.12,3.36-3.13A65.1,65.1,0,0,0,265,195.75Zm6.14-42.28a18.16,18.16,0,0,0-36.31-.1,18.16,18.16,0,1,0,36.31.1Z" transform="translate(-95.62 -41.42)"/><path class="abc82b22-2919-48d4-abe1-7f981577a4a2" d="M337.76,274.44c1.48.05,2.25,1.09,3,2.16v7.54c-.79,2.05-2.43,2.42-4.42,2.42q-83.31,0-166.63,0c-.34,0-.68,0-1,0-2.21-.1-3.33-1.2-3.4-3.44-.06-1.71-.05-3.43,0-5.14,0-2.08.87-3,3-3.51.74,0,1.48.08,2.22.08h165C336.27,274.52,337,274.47,337.76,274.44Z" transform="translate(-95.62 -41.42)"/><path class="abc82b22-2919-48d4-abe1-7f981577a4a2" d="M196.8,111c3.67,1.33,5,4,4.81,7.81-.14,2.43,0,4.87,0,7.3,0,3.77,0,7.54,0,11.3,0,2.67-1.12,3.77-3.72,3.79s-5.25,0-7.88,0c-2.38,0-3.47-1.1-3.49-3.45,0-3.88,0-7.76,0-11.65,0-2.49.1-5-.06-7.49-.25-3.79,1.23-6.35,4.86-7.61Z" transform="translate(-95.62 -41.42)"/><path class="be6382c9-4f91-4077-8777-ab80e342a964" d="M168.27,274.44q0-4.19.07-8.37c0-2.52,1-3.64,3.58-3.81,1.19-.09,2.39,0,3.59-.05q18.5,0,37,0c9.48,0,19,0,28.44,0h24.1l16.94.05h48.45c.8,0,1.6,0,2.4-.06a15.79,15.79,0,0,1,2.18.23c2,.46,2.62,1.34,2.65,3.36,0,2.88.05,5.76.08,8.65-.75,0-1.49.08-2.23.08h-165C169.75,274.52,169,274.47,168.27,274.44Z" transform="translate(-95.62 -41.42)"/><path class="a1a00551-6815-477a-986a-9c4a759e3b39" d="M270.64,126.2l31.87,0h25.87c2.57,0,3.49.73,4.11,3.2q3.56,14.17,7.08,28.37c.79,3.17-.41,4.72-3.64,4.75-1,0-2.06,0-3.09,0-7.64,0-15.28-.07-22.92,0a7,7,0,0,1-5.23-2.09l-33.51-33.54C271,126.65,270.82,126.42,270.64,126.2Z" transform="translate(-95.62 -41.42)"/><path class="be75fa5b-7512-430a-bf85-5325c042361e" d="M186.51,126.14c0,3.89,0,7.77,0,11.65,0,2.35,1.11,3.42,3.49,3.45,2.63,0,5.25,0,7.88,0s3.7-1.12,3.72-3.79c0-3.76,0-7.53,0-11.3l36,0c-.46.51-.9,1-1.38,1.52q-16.05,16.06-32.07,32.13a8.27,8.27,0,0,1-6.39,2.65c-7.42-.08-14.84,0-22.27,0l-5.47-.06c-3.11,0-4.37-1.6-3.62-4.62,1.94-7.84,3.92-15.67,5.88-23.51.42-1.65.81-3.31,1.23-5,.62-2.47,1.54-3.2,4.08-3.21C180.58,126.14,183.54,126.15,186.51,126.14Z" transform="translate(-95.62 -41.42)"/><path class="ec188239-24ea-4ef6-8d2d-ceeed33b5948" d="M271.17,153.47a18.16,18.16,0,1,1-18-18.15A18.1,18.1,0,0,1,271.17,153.47Zm-15.28,2.92c1.09,0,2.17.07,3.25,0a2.91,2.91,0,0,0,2.9-3,3,3,0,0,0-2.91-3c-1-.07-2.17.23-2.8-.25s-.17-1.81-.27-2.75a3.19,3.19,0,0,0-3.07-3.09,3.13,3.13,0,0,0-3,3.13c-.08,1,0,2.05,0,3.08C250,156.08,250.31,156.42,255.89,156.39Z" transform="translate(-95.62 -41.42)"/><path class="b4645f04-f9b1-4cdc-8eab-2a206adc9112" d="M265.06,262.21H241q0-15.07,0-30.13h24Zm-9.09-12a3,3,0,0,0,3.06-2.83,3,3,0,0,0-2.92-3.13,3,3,0,1,0-.14,6Z" transform="translate(-95.62 -41.42)"/><path class="b3f06731-5ca6-4327-9c82-d3f3af14a3c9" d="M265,195.75a65.1,65.1,0,0,1,.07,9.05c-.09,2-1.26,3.1-3.36,3.13q-8.73.1-17.45,0c-2.11,0-3.27-1.12-3.36-3.13a63.58,63.58,0,0,1,.06-9.05Z" transform="translate(-95.62 -41.42)"/><path class="a85d6752-e67b-487d-aaf3-cc4a61b02977" d="M265,195.75H241c0-2.9-.06-5.81,0-8.71,0-2.22,1.16-3.33,3.42-3.34q8.63,0,17.25,0c2.26,0,3.39,1.11,3.41,3.34C265.09,189.94,265,192.85,265,195.75Z" transform="translate(-95.62 -41.42)"/><path class="a85d6752-e67b-487d-aaf3-cc4a61b02977" d="M213.68,238.19c0-4.85-.06-9.7,0-14.55,0-2.51,1.19-3.6,3.73-3.63s5.14,0,7.7,0,3.66,1,3.67,3.61c0,4.86,0,9.71,0,14.56Z" transform="translate(-95.62 -41.42)"/><path class="fdcd9fd1-193b-4c6e-ab2c-b89d4ef80c98" d="M186.53,238.17c0-5-.06-9.92,0-14.88,0-2.12,1.16-3.24,3.31-3.27,2.8,0,5.59,0,8.39,0,2.21,0,3.36,1.19,3.37,3.43,0,4.91,0,9.81,0,14.71Z" transform="translate(-95.62 -41.42)"/><path class="a85d6752-e67b-487d-aaf3-cc4a61b02977" d="M277.29,238.18c0-4.85,0-9.71,0-14.56,0-2.57,1.06-3.59,3.66-3.61s5.14,0,7.71,0,3.7,1.11,3.72,3.63c0,4.85,0,9.7,0,14.55Z" transform="translate(-95.62 -41.42)"/><path class="fdcd9fd1-193b-4c6e-ab2c-b89d4ef80c98" d="M304.49,238.16c0-4.9-.07-9.81,0-14.71a3.07,3.07,0,0,1,3.38-3.43c2.79,0,5.59,0,8.38,0,2.16,0,3.31,1.14,3.32,3.27,0,5,0,9.92,0,14.88Z" transform="translate(-95.62 -41.42)"/><path class="a85d6752-e67b-487d-aaf3-cc4a61b02977" d="M186.53,195.75c0-4.91-.06-9.82,0-14.73,0-2.14,1.12-3.34,3.24-3.41,2.85-.09,5.71-.09,8.56,0a3.1,3.1,0,0,1,3.28,3.41c0,4.9,0,9.81,0,14.72Z" transform="translate(-95.62 -41.42)"/><path class="bd8e15b7-c62b-4727-bd70-378a3b2ff65b" d="M277.29,195.77c0-4.84,0-9.68,0-14.52,0-2.51,1.13-3.62,3.67-3.66s5.12,0,7.68,0,3.71,1.17,3.73,3.66c.05,4.84,0,9.68,0,14.52Z" transform="translate(-95.62 -41.42)"/><path class="bd8e15b7-c62b-4727-bd70-378a3b2ff65b" d="M213.69,195.77c0-4.84-.07-9.68,0-14.52,0-2.42,1.18-3.59,3.57-3.65,2.67-.07,5.35-.07,8,0,2.4.06,3.49,1.21,3.5,3.66,0,4.84,0,9.68,0,14.52Z" transform="translate(-95.62 -41.42)"/><path class="a85d6752-e67b-487d-aaf3-cc4a61b02977" d="M304.49,195.74c0-4.91-.07-9.82,0-14.72a3.08,3.08,0,0,1,3.28-3.4c2.85-.11,5.71-.1,8.56,0,2.12.07,3.22,1.27,3.23,3.41,0,4.91,0,9.82,0,14.73Z" transform="translate(-95.62 -41.42)"/><path class="becddf43-5dc7-44d5-a708-0faf49857fc5" d="M265,232.08H241a12,12,0,1,1,24,0Z" transform="translate(-95.62 -41.42)"/><path class="b3f06731-5ca6-4327-9c82-d3f3af14a3c9" d="M277.29,195.77h15c0,2.9.09,5.81,0,8.71,0,2.13-1.12,3.32-3.25,3.41-2.9.13-5.81.12-8.71,0a3,3,0,0,1-3.18-3.1A68,68,0,0,1,277.29,195.77Z" transform="translate(-95.62 -41.42)"/><path class="b3f06731-5ca6-4327-9c82-d3f3af14a3c9" d="M213.69,195.77h15.06a69.08,69.08,0,0,1,.07,8.87c-.08,2.13-1.23,3.21-3.39,3.28-2.79.09-5.58.1-8.37,0-2.28-.09-3.4-1.31-3.42-3.61C213.6,201.46,213.66,198.62,213.69,195.77Z" transform="translate(-95.62 -41.42)"/><path class="b3f06731-5ca6-4327-9c82-d3f3af14a3c9" d="M304.49,195.74h15c0,2.91.1,5.81.07,8.72,0,2.17-1.05,3.34-3.2,3.44-2.9.12-5.82.12-8.72,0-2.14-.09-3.19-1.32-3.21-3.44C304.42,201.56,304.47,198.65,304.49,195.74Z" transform="translate(-95.62 -41.42)"/><path class="b3f06731-5ca6-4327-9c82-d3f3af14a3c9" d="M186.53,195.75h15c0,2.91.07,5.82.05,8.72,0,2.13-1.06,3.35-3.2,3.45-2.9.12-5.82.12-8.72,0-2.15-.1-3.17-1.28-3.19-3.45C186.44,201.56,186.5,198.65,186.53,195.75Z" transform="translate(-95.62 -41.42)"/><path class="b3f06731-5ca6-4327-9c82-d3f3af14a3c9" d="M277.29,238.18h15c0,2.91.1,5.82,0,8.73a3,3,0,0,1-3.34,3.29q-4.28.06-8.55,0c-2,0-3.14-1-3.25-3A58,58,0,0,1,277.29,238.18Z" transform="translate(-95.62 -41.42)"/><path class="b3f06731-5ca6-4327-9c82-d3f3af14a3c9" d="M213.68,238.19h15.07a59.82,59.82,0,0,1,.07,8.88c-.09,2.16-1.27,3.13-3.45,3.16-2.8,0-5.59,0-8.39,0a3.06,3.06,0,0,1-3.34-3.29C213.58,244,213.66,241.1,213.68,238.19Z" transform="translate(-95.62 -41.42)"/><path class="e0008293-48ec-4e95-ac60-c6decc455c71" d="M186.53,238.17h15c0,2.91.08,5.82,0,8.72a3,3,0,0,1-3.28,3.33q-4.28.06-8.55,0c-2.06,0-3.22-1.13-3.25-3.15C186.44,244.1,186.51,241.13,186.53,238.17Z" transform="translate(-95.62 -41.42)"/><path class="e0008293-48ec-4e95-ac60-c6decc455c71" d="M304.49,238.16h15c0,3,.1,5.93,0,8.89,0,2-1.19,3.11-3.25,3.15q-4.28.06-8.55,0a3,3,0,0,1-3.29-3.33C304.41,244,304.47,241.07,304.49,238.16Z" transform="translate(-95.62 -41.42)"/><path class="b46776d8-2b49-40d1-9cff-585ce8a8b43e" d="M255.89,156.39c-5.58,0-5.93-.31-5.93-5.84,0-1-.05-2.06,0-3.08a3.13,3.13,0,0,1,3-3.13,3.19,3.19,0,0,1,3.07,3.09c.1.94-.44,2.22.27,2.75s1.84.18,2.8.25a3,3,0,0,1,2.91,3,2.91,2.91,0,0,1-2.9,3C258.06,156.46,257,156.39,255.89,156.39Z" transform="translate(-95.62 -41.42)"/><path class="b46776d8-2b49-40d1-9cff-585ce8a8b43e" d="M256,250.2a3,3,0,1,1,.14-6,3,3,0,0,1,2.92,3.13A3,3,0,0,1,256,250.2Z" transform="translate(-95.62 -41.42)"/><circle class="bc32f693-35b4-424a-82a6-85749d3f0ed7" cx="157.38" cy="157.38" r="156.88"/></svg>