<svg id="a4dba80d-08c3-4e78-842a-a132adf11aeb" data-name="圖層 10 拷貝" xmlns="http://www.w3.org/2000/svg" viewBox="0 0 314.76 314.76"><defs><style>.a7a8e029-7221-4085-8cb5-1dccb68cc08e,.ab9b33cf-8835-4046-91e3-2a0a7e800289,.b006f817-ad73-4496-9a6a-1e3b46413990,.b1289136-2dfd-410e-b1a7-eede22f52d34,.b5494579-a251-4765-8211-6059e7be7136,.b54f9328-d3a4-44c0-9a10-dfb61668688b,.bf3a1538-d9a9-4e62-ae52-18d315de1981,.bfbb5e75-c2ad-47ba-b117-2edbbad9475c,.ed9ceae8-3e02-40b3-9318-bf4ad53939be,.ffb6fe5f-ecf9-4756-93b9-616893f90f9d{opacity:0.35;}.afc788f4-0107-46b0-8e3b-660f0527cee4,.b006f817-ad73-4496-9a6a-1e3b46413990,.bf3a1538-d9a9-4e62-ae52-18d315de1981,.ef42819f-af65-4b1b-8e3d-c6f23a4bc3b1{fill:#fff;}.b1289136-2dfd-410e-b1a7-eede22f52d34{fill:#e0e0e0;}.bf54a254-de51-4b2a-8c1b-0714e16b0449,.bfbb5e75-c2ad-47ba-b117-2edbbad9475c,.ffb6fe5f-ecf9-4756-93b9-616893f90f9d{fill:silver;}.a7a8e029-7221-4085-8cb5-1dccb68cc08e,.a7d595b3-bef0-4eb4-af92-9e849efe6b43,.ab9b33cf-8835-4046-91e3-2a0a7e800289,.bf3a1538-d9a9-4e62-ae52-18d315de1981,.ffb6fe5f-ecf9-4756-93b9-616893f90f9d{stroke:#ff9c1f;}.a7a8e029-7221-4085-8cb5-1dccb68cc08e,.a7d595b3-bef0-4eb4-af92-9e849efe6b43,.ab9b33cf-8835-4046-91e3-2a0a7e800289,.ad90fd1d-7684-43ea-96a4-4a2096ad157f,.bf3a1538-d9a9-4e62-ae52-18d315de1981,.ef42819f-af65-4b1b-8e3d-c6f23a4bc3b1,.ffb6fe5f-ecf9-4756-93b9-616893f90f9d{stroke-miterlimit:10;}.a7a8e029-7221-4085-8cb5-1dccb68cc08e,.b54f9328-d3a4-44c0-9a10-dfb61668688b{fill:#97cc52;}.ab9b33cf-8835-4046-91e3-2a0a7e800289,.ae6d63b1-81a8-48df-bb80-e801af5a44e5,.ed9ceae8-3e02-40b3-9318-bf4ad53939be{fill:#758f9b;}.ad90fd1d-7684-43ea-96a4-4a2096ad157f,.ef42819f-af65-4b1b-8e3d-c6f23a4bc3b1{stroke:#e0e0e0;stroke-width:2px;}.ad90fd1d-7684-43ea-96a4-4a2096ad157f{fill:#d3d3d3;}.fec8fdb1-00d1-4e8c-82c0-dc731b8e0266{fill:#f8db6a;}.e9bb98e3-93e3-46e5-8208-bc1dc8c6d10b{fill:#fe5a59;}.a7d595b3-bef0-4eb4-af92-9e849efe6b43{fill:none;opacity:0.46;}</style></defs><title>s1-4</title><g class="b5494579-a251-4765-8211-6059e7be7136"><polygon class="afc788f4-0107-46b0-8e3b-660f0527cee4" points="186.76 68.39 92.14 68.39 92.14 246.97 222.02 246.97 222.02 103.65 186.76 68.39"/><rect class="afc788f4-0107-46b0-8e3b-660f0527cee4" x="92.14" y="68.39" width="60.04" height="178.58"/></g><polygon class="b1289136-2dfd-410e-b1a7-eede22f52d34" points="222.02 103.65 186.76 68.39 152.18 68.39 152.18 246.97 222.02 246.97 222.02 103.65"/><polygon class="ffb6fe5f-ecf9-4756-93b9-616893f90f9d" points="186.76 103.65 222.02 103.65 186.76 68.39 186.76 103.65"/><circle class="a7a8e029-7221-4085-8cb5-1dccb68cc08e" cx="114.77" cy="117.09" r="16.23"/><polygon class="bf3a1538-d9a9-4e62-ae52-18d315de1981" points="111.03 126.32 103.43 118.21 106.43 115.4 111.13 120.41 123.16 108.39 126.06 111.29 111.03 126.32"/><rect class="ffb6fe5f-ecf9-4756-93b9-616893f90f9d" x="140.85" y="111.6" width="64.94" height="4.11"/><rect class="ab9b33cf-8835-4046-91e3-2a0a7e800289" x="152.18" y="111.6" width="53.6" height="4.11"/><rect class="ffb6fe5f-ecf9-4756-93b9-616893f90f9d" x="140.85" y="120.45" width="64.94" height="4.11"/><rect class="ab9b33cf-8835-4046-91e3-2a0a7e800289" x="152.18" y="120.45" width="53.6" height="4.11"/><circle class="b54f9328-d3a4-44c0-9a10-dfb61668688b" cx="114.77" cy="165.8" r="16.23"/><polygon class="b006f817-ad73-4496-9a6a-1e3b46413990" points="111.03 175.03 103.43 166.92 106.43 164.11 111.13 169.12 123.16 157.09 126.06 160 111.03 175.03"/><rect class="bfbb5e75-c2ad-47ba-b117-2edbbad9475c" x="140.85" y="160.3" width="64.94" height="4.11"/><rect class="ed9ceae8-3e02-40b3-9318-bf4ad53939be" x="152.18" y="160.3" width="53.6" height="4.11"/><rect class="bfbb5e75-c2ad-47ba-b117-2edbbad9475c" x="140.85" y="169.16" width="64.94" height="4.11"/><rect class="ed9ceae8-3e02-40b3-9318-bf4ad53939be" x="152.18" y="169.16" width="53.6" height="4.11"/><circle class="b54f9328-d3a4-44c0-9a10-dfb61668688b" cx="114.77" cy="214.5" r="16.23"/><polygon class="b006f817-ad73-4496-9a6a-1e3b46413990" points="111.03 223.73 103.43 215.62 106.43 212.81 111.13 217.82 123.16 205.79 126.06 208.7 111.03 223.73"/><rect class="bfbb5e75-c2ad-47ba-b117-2edbbad9475c" x="140.85" y="209" width="64.94" height="4.11"/><rect class="ed9ceae8-3e02-40b3-9318-bf4ad53939be" x="152.18" y="209" width="53.6" height="4.11"/><rect class="ffb6fe5f-ecf9-4756-93b9-616893f90f9d" x="140.85" y="217.86" width="64.94" height="4.11"/><rect class="ab9b33cf-8835-4046-91e3-2a0a7e800289" x="152.18" y="217.86" width="53.6" height="4.11"/><polygon class="afc788f4-0107-46b0-8e3b-660f0527cee4" points="186.76 68.39 92.14 68.39 92.14 246.97 222.02 246.97 222.02 103.65 186.76 68.39"/><rect class="ef42819f-af65-4b1b-8e3d-c6f23a4bc3b1" x="92.14" y="68.39" width="60.04" height="178.58"/><polygon class="ad90fd1d-7684-43ea-96a4-4a2096ad157f" points="222.02 103.65 186.76 68.39 152.18 68.39 152.18 246.97 222.02 246.97 222.02 103.65"/><polygon class="bf54a254-de51-4b2a-8c1b-0714e16b0449" points="186.76 103.65 222.02 103.65 186.76 68.39 186.76 103.65"/><circle class="fec8fdb1-00d1-4e8c-82c0-dc731b8e0266" cx="114.77" cy="117.09" r="16.23"/><polygon class="afc788f4-0107-46b0-8e3b-660f0527cee4" points="111.03 126.32 103.43 118.21 106.43 115.4 111.13 120.41 123.16 108.39 126.06 111.29 111.03 126.32"/><rect class="bf54a254-de51-4b2a-8c1b-0714e16b0449" x="140.85" y="111.6" width="64.94" height="4.11"/><rect class="ae6d63b1-81a8-48df-bb80-e801af5a44e5" x="152.18" y="111.6" width="53.6" height="4.11"/><rect class="bf54a254-de51-4b2a-8c1b-0714e16b0449" x="140.85" y="120.45" width="64.94" height="4.11"/><rect class="ae6d63b1-81a8-48df-bb80-e801af5a44e5" x="152.18" y="120.45" width="53.6" height="4.11"/><circle class="e9bb98e3-93e3-46e5-8208-bc1dc8c6d10b" cx="114.77" cy="165.8" r="16.23"/><polygon class="afc788f4-0107-46b0-8e3b-660f0527cee4" points="111.03 175.03 103.43 166.92 106.43 164.11 111.13 169.12 123.16 157.09 126.06 160 111.03 175.03"/><rect class="bf54a254-de51-4b2a-8c1b-0714e16b0449" x="140.85" y="160.3" width="64.94" height="4.11"/><rect class="ae6d63b1-81a8-48df-bb80-e801af5a44e5" x="152.18" y="160.3" width="53.6" height="4.11"/><rect class="bf54a254-de51-4b2a-8c1b-0714e16b0449" x="140.85" y="169.16" width="64.94" height="4.11"/><rect class="ae6d63b1-81a8-48df-bb80-e801af5a44e5" x="152.18" y="169.16" width="53.6" height="4.11"/><circle class="e9bb98e3-93e3-46e5-8208-bc1dc8c6d10b" cx="114.77" cy="214.5" r="16.23"/><polygon class="afc788f4-0107-46b0-8e3b-660f0527cee4" points="111.03 223.73 103.43 215.62 106.43 212.81 111.13 217.82 123.16 205.79 126.06 208.7 111.03 223.73"/><rect class="bf54a254-de51-4b2a-8c1b-0714e16b0449" x="140.85" y="209" width="64.94" height="4.11"/><rect class="ae6d63b1-81a8-48df-bb80-e801af5a44e5" x="152.18" y="209" width="53.6" height="4.11"/><rect class="bf54a254-de51-4b2a-8c1b-0714e16b0449" x="140.85" y="217.86" width="64.94" height="4.11"/><rect class="ae6d63b1-81a8-48df-bb80-e801af5a44e5" x="152.18" y="217.86" width="53.6" height="4.11"/><circle class="a7d595b3-bef0-4eb4-af92-9e849efe6b43" cx="157.38" cy="157.38" r="156.88"/></svg>