<svg id="b2d199dc-bac5-48d5-b104-b50791a58d55" data-name="圖層 10 拷貝 2" xmlns="http://www.w3.org/2000/svg" viewBox="0 0 314.76 314.76"><defs><style>.a9dd11dd-dbd2-40cf-96eb-36ef6b4b7695{fill:#ffa972;}.e02e83db-7480-4ad7-919c-ad72c9820a38{fill:#2bb3f2;}.e9588a53-1d38-471f-9169-8e82e4c68d72{fill:#fe5a59;}.e245033c-5c4b-4361-ab69-62173f27f0ce{fill:#f8db6a;}.ba100f7b-63b5-4e41-8068-8d7d84add9fe{fill:#485d6d;}.e6f15baf-6379-4ea3-ab01-2dbc829481eb{fill:#f09f77;}.aee3055a-3200-4c6d-987f-c947b1bb53af{fill:#f1a077;}.efe233f0-144e-4a23-8ecc-058980378a1f{fill:#2d4050;}.f7560cd3-5c76-4b76-b072-aef7d4c901f0{fill:#ce3c4e;}.a86e5d14-c482-43dd-a572-81c3710626cd{fill:#1988c5;}.e9354c6c-eb18-4e6f-8ec7-222b21271acb{fill:#e4ac52;}.f06e3462-e79e-4091-b907-ffa0ae54fa4c{fill:#1787c3;}.e51aac27-5351-478b-876f-01768659cd9e{fill:#fdcba9;}.e1e82834-37f2-4a7f-a51d-9ae6f2c76c7b{fill:#4a5f6e;}.b1e6e05b-51d1-4d66-ac7e-cd568b283c9e{fill:none;stroke:#ff9c1f;stroke-miterlimit:10;opacity:0.46;}</style></defs><title>s1-5</title><path class="a9dd11dd-dbd2-40cf-96eb-36ef6b4b7695" d="M166.09,251.65c-3.08-.58-4.6-2.8-5.74-5.43v-18.1c.71-1.16,1.08-2.49,2.13-3.49a6.48,6.48,0,0,1,4.67-2c2.17,0,4.34.08,6.5,0a5,5,0,0,1,5.31,3.42c.09.36.17.72.26,1.08,0,6.43,0,12.86,0,19.29a4.88,4.88,0,0,1-5.16,5.23C171.37,251.7,168.73,251.66,166.09,251.65Z" transform="translate(-95.62 -41.42)"/><path class="e02e83db-7480-4ad7-919c-ad72c9820a38" d="M239.62,226l27.25,0H290.5c0,.3.07.6.07.9,0,2.45-.23,4.9,1.22,7.17,2.56,4,6.25,6.63,10.12,9.11.72.46,1.26.06,1.82-.29a39,39,0,0,0,7-5.42c2.6-2.61,4.37-5.59,3.89-9.5a12,12,0,0,1,.07-2l2.41,0a3.56,3.56,0,0,0,.66.25,20.25,20.25,0,0,1,17,20.43c.09,12.24,0,24.47.05,36.71l-2.2,0q0-7.49,0-15c0-2.05.07-4.09,0-6.14s-1.19-3.06-2.85-3-2.55,1.23-2.55,3.24q0,10.47,0,20.93-25.21,0-50.44.08c-1.41,0-1.36-.69-1.36-1.66,0-10.49,0-21,.05-31.46,0-1.64-.47-2-2-2-5,.09-10,0-15,0,0-.67,0-1.33,0-2-.32-8.53-4-14.89-11.88-18.64A25,25,0,0,0,239.62,226Z" transform="translate(-95.62 -41.42)"/><path class="e9588a53-1d38-471f-9169-8e82e4c68d72" d="M166.09,251.65c2.64,0,5.28,0,7.93,0a4.88,4.88,0,0,0,5.16-5.23c0-6.43,0-12.86,0-19.29a23,23,0,0,1,6-1.06l9.16-.09c.7,1.56.31,3.2.34,4.8.12,5.9,5.42,11.16,11.3,11.47,6.68.34,13-5.31,12.65-12.29,0-1.21-.41-2.51.34-3.67,5.78-.4,10.45,2,14.31,6,4.3,4.42,5.65,10,5.59,16.05-.1,11.68,0,23.37,0,35.05h-2.2c0-6.92,0-13.84,0-20.76,0-2.21-1.09-3.41-2.86-3.4s-2.55,1.24-2.55,3.41q0,10.38,0,20.76H182.06c0-1.63,0-3.25,0-4.87,0-5.53,0-11.07,0-16.6a2.56,2.56,0,0,0-2-2.64,2.44,2.44,0,0,0-3,1.61,5.19,5.19,0,0,0-.39,2.1q0,10.19,0,20.38c-3,0-6,0-9,.09-1.33.05-1.58-.46-1.58-1.66C166.1,271.78,166.08,261.71,166.09,251.65Z" transform="translate(-95.62 -41.42)"/><path class="e245033c-5c4b-4361-ab69-62173f27f0ce" d="M167,170.91c-2.41-8.13-4-16.39-3.27-24.9.28-3.29-.24-6.64.84-9.86,1.46-4.36,5.47-7.69,10-7.45a9.29,9.29,0,0,0,8.37-3.69c1.85-2.21,4-4.13,6.1-6.16a11.17,11.17,0,0,1,11.08-3.13c11.22,2.66,22.47,5.25,33.67,8a23.81,23.81,0,0,0,14.85-1c-2.34,9.29-4.65,18.59-7,27.87-.85,3.29-1.34,6.68-2.7,9.83,0-.72,0-1.44,0-2.15s-.09-1.12-1-.86c-2.91.81-5.84,1.52-8.77,2.26-5.05.39-10.05,1.23-15.19.81a40.62,40.62,0,0,1-18.54-5.71,28,28,0,0,1-9.21-8.65,20.41,20.41,0,0,1-1.09,6c-1.59,4.16-5.35,4.83-9.07,5.28-1.35.16-1.55.65-1.53,1.78,0,2.95,0,5.9,0,8.85,0,.58.11,1.43-.77,1.32C171.27,169.15,169.16,170.2,167,170.91Z" transform="translate(-95.62 -41.42)"/><path class="ba100f7b-63b5-4e41-8068-8d7d84add9fe" d="M304,114.18h.74c.11.2.18.52.34.58a12.28,12.28,0,0,1,7.66,8.08c.33.94,1,1.07,1.82,1.08a54.27,54.27,0,0,1,7.2.3c7.37,1,14.07,8.34,14.1,15.79q0,14.66,0,29.31c-1.4.39-1.11-.65-1.13-1.37-.17-6.14.34-12.29-.35-18.42a28,28,0,0,0-4.31-11.91c-.4-.63-.75-.64-1.28-.24l-6,4.55c-2.65,1.43-5.23,3-7.95,4.27A69.7,69.7,0,0,1,280.5,153c-2.83-.17-5.64-.45-8.43-.89-1.31-.2-1.67.24-1.65,1.51.06,4.64-.05,9.29.06,13.93,0,1.63-.44,2-2,2-4-.07-6.78,2.05-7.71,5.53a16.36,16.36,0,0,0-.22,4.31c0,5.72,2.74,8.52,8.49,8.6,1.11,0,1.6.25,1.69,1.46a30.9,30.9,0,0,0,7,17.13,35.08,35.08,0,0,0,12.88,9.68,1.36,1.36,0,0,0,0,.29c-5.91,0-11.82,0-17.73,0-8.18,0-13.29-5.14-13.29-13.35q0-27.58,0-55.16c0-19.38,14.47-33.79,33.85-33.84,3.43,0,6.87,0,10.3,0C303.8,114.37,303.9,114.36,304,114.18Z" transform="translate(-95.62 -41.42)"/><path class="a9dd11dd-dbd2-40cf-96eb-36ef6b4b7695" d="M167,170.91c2.19-.71,4.3-1.76,6.73-1.47.88.11.77-.74.77-1.32,0-3,0-5.9,0-8.85,0-1.13.18-1.62,1.53-1.78,3.72-.45,7.48-1.12,9.07-5.28a20.41,20.41,0,0,0,1.09-6,28,28,0,0,0,9.21,8.65,40.62,40.62,0,0,0,18.54,5.71c5.14.42,10.14-.42,15.19-.81,0,8.44.1,16.88,0,25.31a36.9,36.9,0,0,1-1.42,10.48,31.08,31.08,0,0,1-11.8,16.63c-6.16,4.31-12.71,7.8-20.58,4.14a1.91,1.91,0,0,0-.54-.1,33,33,0,0,1-16.18-14.55,27.63,27.63,0,0,1-3.65-11.95c-.07-1.51-.62-1.81-1.94-1.74-3.38.18-6.28-1.08-7.47-4.24-1.38-3.68-1.66-7.59.68-11.2C166.47,172,166.7,171.44,167,170.91Zm39.88,28.86c.65-.07,1.37-.1,2.08-.22A15.31,15.31,0,0,0,221.18,190a2.58,2.58,0,0,0-1.26-3.51,2.54,2.54,0,0,0-3.44,1c-.31.45-.53,1-.79,1.42a10,10,0,0,1-5.17,4.57,10.34,10.34,0,0,1-13.2-5.31c-.89-1.87-2.37-2.43-3.79-1.72s-1.93,2.31-1,4.16C195.43,196.57,200.3,199.43,206.85,199.77Zm13.21-29c0,2.2,1,3.47,2.75,3.45s2.7-1.33,2.68-3.55-1-3.32-2.68-3.34S220.06,168.55,220.06,170.75Zm-26.75-.08c0-2.13-.95-3.32-2.64-3.36s-2.79,1.25-2.79,3.43,1.06,3.47,2.78,3.45S193.33,172.9,193.31,170.67Z" transform="translate(-95.62 -41.42)"/><path class="e6f15baf-6379-4ea3-ab01-2dbc829481eb" d="M290.55,216.51a1.36,1.36,0,0,1,0-.29c.92.26,1.84.55,2.77.78,1.62.41,3.23,1.26,4.91.95a32,32,0,0,0,19.47-11.49C323,200,325,192.46,325,184.3q0-15,0-30c0-.72-.14-1.44-.16-2.16-.06-3.52-1.13-6.84-2-10.19l6-4.55c.53-.4.88-.39,1.28.24a28,28,0,0,1,4.31,11.91c.69,6.13.18,12.28.35,18.42,0,.72-.27,1.76,1.13,1.37.66.06,1.31.13,2,.17a7.33,7.33,0,0,1,6.7,6.19,19.68,19.68,0,0,1,0,6.08,7.49,7.49,0,0,1-5.81,6.12,24.68,24.68,0,0,1-2.86.2c-1.87-.3-1.31,1.34-1.41,2.06-1.65,11.83-8,20.17-18.61,25.43-.47.24-1.05.34-1.26.93q0,4.75.05,9.49a12,12,0,0,0-.07,2c.48,3.91-1.29,6.89-3.89,9.5a39,39,0,0,1-7,5.42c-.56.35-1.1.75-1.82.29-3.87-2.48-7.56-5.14-10.12-9.11-1.45-2.27-1.18-4.72-1.22-7.17,0-.3,0-.6-.07-.9C290.52,222.83,290.53,219.67,290.55,216.51Z" transform="translate(-95.62 -41.42)"/><path class="aee3055a-3200-4c6d-987f-c947b1bb53af" d="M194.71,216.18a1.91,1.91,0,0,1,.54.1c7.87,3.66,14.42.17,20.58-4.14a31.08,31.08,0,0,0,11.8-16.63A36.9,36.9,0,0,0,229.05,185c.14-8.43,0-16.87,0-25.31,2.93-.74,5.86-1.45,8.77-2.26.93-.26,1,.14,1,.86s0,1.43,0,2.15c0,2.46.05,4.92,0,7.37,0,1.21.29,1.82,1.6,1.66a8.72,8.72,0,0,1,5.63,1.44c3.33,3.34,3.28,7.46,2.41,11.62-.71,3.38-3.79,5.42-7.77,5.38-1.4,0-2,.35-2.19,1.82-1.39,11.81-7.61,20.25-18.19,25.5-1.28.64-1.82,1.29-1.69,2.71.25,2.67-.37,5.38.33,8,0,.11,0,.21,0,.31-.75,1.16-.39,2.46-.34,3.67.32,7-6,12.63-12.65,12.29-5.88-.31-11.18-5.57-11.3-11.47,0-1.6.36-3.24-.34-4.8.72-1.61.21-3.3.31-4.95S194.71,217.81,194.71,216.18Z" transform="translate(-95.62 -41.42)"/><path class="efe233f0-144e-4a23-8ecc-058980378a1f" d="M335.91,188.08a24.68,24.68,0,0,0,2.86-.2,7.49,7.49,0,0,0,5.81-6.12,19.68,19.68,0,0,0,0-6.08,7.33,7.33,0,0,0-6.7-6.19c-.66,0-1.31-.11-2-.17q0-14.65,0-29.31c0-7.45-6.73-14.83-14.1-15.79a54.27,54.27,0,0,0-7.2-.3c-.86,0-1.49-.14-1.82-1.08a12.28,12.28,0,0,0-7.66-8.08c-.16-.06-.23-.38-.34-.58a58.49,58.49,0,0,1,7.95.09,11.27,11.27,0,0,1,9.37,7.74A2.47,2.47,0,0,0,325,123.9c3.85-.18,7.7-.11,11.24,1.82,6.29,3.42,9.43,8.72,9.44,15.84q0,25.94,0,51.88c0,3.62,0,7.24,0,10.85a12.18,12.18,0,0,1-11.93,12.22c-2.29.07-4.58,0-6.87,0,.05-.68.62-.58,1.05-.73,4.58-1.59,8.15-6.44,8-11.08C335.77,199.15,335.9,193.61,335.91,188.08Z" transform="translate(-95.62 -41.42)"/><path class="f7560cd3-5c76-4b76-b072-aef7d4c901f0" d="M219,226.31c0-.1,0-.2,0-.31l10.95,0a1.92,1.92,0,0,0,.48.23,19.55,19.55,0,0,1,14.05,9.33c2.53,3.95,3.05,8.38,3.09,12.92q0,12.63-.08,25.26c0,2.82,0,5.65,0,8.48,0,.91-.24,1.29-1.21,1.26-2.46-.08-4.93-.06-7.39-.09,0-11.68-.09-23.37,0-35.05.06-6.08-1.29-11.63-5.59-16.05C229.45,228.35,224.78,225.91,219,226.31Z" transform="translate(-95.62 -41.42)"/><path class="a86e5d14-c482-43dd-a572-81c3710626cd" d="M334.79,283.43c0-12.24,0-24.47-.05-36.71a20.25,20.25,0,0,0-17-20.43,3.56,3.56,0,0,1-.66-.25c4.75-.14,9.54-.53,14,1.55,8,3.71,12.1,10.1,12.22,18.84.15,11.87,0,23.73.05,35.6,0,1-.17,1.54-1.37,1.49C339.61,283.41,337.19,283.45,334.79,283.43Z" transform="translate(-95.62 -41.42)"/><path class="e9354c6c-eb18-4e6f-8ec7-222b21271acb" d="M246.09,170.94a8.72,8.72,0,0,0-5.63-1.44c-1.31.16-1.64-.45-1.6-1.66.08-2.45,0-4.91,0-7.37,1.36-3.15,1.85-6.54,2.7-9.83,2.39-9.28,4.7-18.58,7-27.87,1.52-1,3.07-1.87,4.56-2.86a3.13,3.13,0,0,1,3.85-.17,3.26,3.26,0,0,1,1.15,3.84q-5.66,22.13-11.22,44.26C246.7,168.88,246.38,169.91,246.09,170.94Z" transform="translate(-95.62 -41.42)"/><path class="f06e3462-e79e-4091-b907-ffa0ae54fa4c" d="M247.56,248.51c0-4.54-.56-9-3.09-12.92a19.55,19.55,0,0,0-14.05-9.33,1.92,1.92,0,0,1-.48-.23h9.68a25,25,0,0,1,6.91,1.75c7.84,3.75,11.56,10.11,11.88,18.64,0,.66,0,1.32,0,2Z" transform="translate(-95.62 -41.42)"/><path class="ba100f7b-63b5-4e41-8068-8d7d84add9fe" d="M335.91,188.08c0,5.53-.14,11.07,0,16.6.12,4.64-3.45,9.49-8,11.08-.43.15-1,.05-1.05.73H314.62c.22-.59.8-.69,1.27-.93,10.6-5.26,17-13.6,18.61-25.43C334.6,189.42,334,187.78,335.91,188.08Z" transform="translate(-95.62 -41.42)"/><path class="f7560cd3-5c76-4b76-b072-aef7d4c901f0" d="M231.29,283.42q0-10.38,0-20.76c0-2.17.92-3.4,2.55-3.41s2.85,1.19,2.86,3.4c0,6.92,0,13.84,0,20.76Z" transform="translate(-95.62 -41.42)"/><path class="f06e3462-e79e-4091-b907-ffa0ae54fa4c" d="M327.19,283.42q0-10.47,0-20.93c0-2,1-3.23,2.55-3.24s2.76,1.08,2.85,3,0,4.09,0,6.14q0,7.49,0,15Z" transform="translate(-95.62 -41.42)"/><path class="f7560cd3-5c76-4b76-b072-aef7d4c901f0" d="M176.66,283.41q0-10.2,0-20.38a5.19,5.19,0,0,1,.39-2.1,2.44,2.44,0,0,1,3-1.61,2.56,2.56,0,0,1,2,2.64c0,5.53,0,11.07,0,16.6,0,1.62,0,3.24,0,4.87Z" transform="translate(-95.62 -41.42)"/><path class="e02e83db-7480-4ad7-919c-ad72c9820a38" d="M185.21,226.09a23,23,0,0,0-6,1.06c-.09-.36-.17-.72-.26-1.08Z" transform="translate(-95.62 -41.42)"/><path class="efe233f0-144e-4a23-8ecc-058980378a1f" d="M304,114.18c-.11.18-.21.19-.33,0A.38.38,0,0,1,304,114.18Z" transform="translate(-95.62 -41.42)"/><path class="e51aac27-5351-478b-876f-01768659cd9e" d="M322.8,141.93c.9,3.35,2,6.67,2,10.19,0,.72.16,1.44.16,2.16q0,15,0,30c0,8.16-2,15.73-7.26,22.16A32,32,0,0,1,298.26,218c-1.68.31-3.29-.54-4.91-.95-.93-.23-1.85-.52-2.77-.78a35.08,35.08,0,0,1-12.88-9.68,30.9,30.9,0,0,1-7-17.13c-.09-1.21-.58-1.45-1.69-1.46-5.75-.08-8.49-2.88-8.49-8.6a16.36,16.36,0,0,1,.22-4.31c.93-3.48,3.76-5.6,7.71-5.53,1.57,0,2.06-.35,2-2-.11-4.64,0-9.29-.06-13.93,0-1.27.34-1.71,1.65-1.51,2.79.44,5.6.72,8.43.89a69.7,69.7,0,0,0,34.35-6.78C317.57,144.92,320.15,143.36,322.8,141.93Zm-20.1,57.84c6.1-.36,10.77-3,13.71-8.36,1.33-2.45,1.12-3.94-.53-4.84s-2.88-.17-4.27,2.32a9.65,9.65,0,0,1-8.27,5.3c-4.72.26-8-1.89-10.17-6.06-.94-1.84-2.36-2.34-3.83-1.57s-1.84,2.25-1,4C291.3,196.58,296.22,199.46,302.7,199.77ZM316,170.68c0,2.22,1,3.5,2.68,3.52s2.76-1.27,2.75-3.47-1-3.46-2.78-3.42S316,168.57,316,170.68Zm-26.74,0c0-2.2-1-3.45-2.76-3.42s-2.65,1.29-2.67,3.36,1,3.5,2.71,3.53S289.21,172.92,289.21,170.73Z" transform="translate(-95.62 -41.42)"/><path class="e1e82834-37f2-4a7f-a51d-9ae6f2c76c7b" d="M206.85,199.77c-6.55-.34-11.42-3.2-14.34-9.11-.91-1.85-.51-3.41,1-4.16s2.9-.15,3.79,1.72a10.34,10.34,0,0,0,13.2,5.31,10,10,0,0,0,5.17-4.57c.26-.47.48-1,.79-1.42a2.54,2.54,0,0,1,3.44-1,2.58,2.58,0,0,1,1.26,3.51,15.31,15.31,0,0,1-12.25,9.52C208.22,199.67,207.5,199.7,206.85,199.77Z" transform="translate(-95.62 -41.42)"/><path class="e1e82834-37f2-4a7f-a51d-9ae6f2c76c7b" d="M220.06,170.75c0-2.2,1-3.46,2.75-3.44s2.67,1.26,2.68,3.34-1,3.52-2.68,3.55S220.06,173,220.06,170.75Z" transform="translate(-95.62 -41.42)"/><path class="e1e82834-37f2-4a7f-a51d-9ae6f2c76c7b" d="M193.31,170.67c0,2.23-.94,3.51-2.65,3.52s-2.78-1.29-2.78-3.45,1.05-3.46,2.79-3.43S193.3,168.54,193.31,170.67Z" transform="translate(-95.62 -41.42)"/><path class="e1e82834-37f2-4a7f-a51d-9ae6f2c76c7b" d="M302.7,199.77c-6.48-.31-11.4-3.19-14.33-9.18-.87-1.78-.48-3.27,1-4s2.89-.27,3.83,1.57c2.14,4.17,5.45,6.32,10.17,6.06a9.65,9.65,0,0,0,8.27-5.3c1.39-2.49,2.67-3.2,4.27-2.32s1.86,2.39.53,4.84C313.47,196.8,308.8,199.41,302.7,199.77Z" transform="translate(-95.62 -41.42)"/><path class="e1e82834-37f2-4a7f-a51d-9ae6f2c76c7b" d="M316,170.68c0-2.11,1-3.33,2.65-3.37s2.78,1.23,2.78,3.42-1,3.49-2.75,3.47S315.94,172.9,316,170.68Z" transform="translate(-95.62 -41.42)"/><path class="e1e82834-37f2-4a7f-a51d-9ae6f2c76c7b" d="M289.21,170.73c0,2.19-1,3.5-2.72,3.47s-2.73-1.35-2.71-3.53,1-3.33,2.67-3.36S289.21,168.53,289.21,170.73Z" transform="translate(-95.62 -41.42)"/><circle class="b1e6e05b-51d1-4d66-ac7e-cd568b283c9e" cx="157.38" cy="157.38" r="156.88"/></svg>