<svg id="fbe044fe-d001-461f-8247-10837fded183" data-name="圖層 10 拷貝" xmlns="http://www.w3.org/2000/svg" viewBox="0 0 314.76 314.76"><defs><style>.a481555c-ee99-40ad-8fc6-bc338b32b58b,.b13a6b2e-afb3-4ac8-98c7-1be8f581fd05,.b47a47c5-eea3-4b5c-88ae-5c76e6270be2,.b51a992c-dfbd-4bc1-a400-3d7ac7f7e0f0,.b59ee21e-42cb-4d5c-9be3-5e8032f8a8a9,.b689c349-0954-4515-9bb2-463327a0efbc,.b6a12ee3-c5a0-44fe-922b-8ba5bfeffcbe,.b7fa4ab4-71ea-47ab-afa2-e2decb864e87,.fa7a5c60-89b8-486b-b8c3-3fbf1d49581d,.fffe3eb6-b667-4172-89f5-297566e07a4f{opacity:0.35;}.a3a17ede-7aa6-40db-81df-5326bd95f776,.a481555c-ee99-40ad-8fc6-bc338b32b58b,.bc77acac-bf24-48fe-a54f-2c222edd1d40,.e346f132-3c6d-4dc3-9a8a-946d4195b07a,.fffe3eb6-b667-4172-89f5-297566e07a4f{fill:#fff;}.b6a12ee3-c5a0-44fe-922b-8ba5bfeffcbe{fill:#e0e0e0;}.b13a6b2e-afb3-4ac8-98c7-1be8f581fd05,.b7fa4ab4-71ea-47ab-afa2-e2decb864e87,.be386f82-c83f-4a12-96e3-1019d1f32692{fill:silver;}.a7851019-5f38-4ff8-b712-c784044b66b2,.b59ee21e-42cb-4d5c-9be3-5e8032f8a8a9,.b689c349-0954-4515-9bb2-463327a0efbc,.b7fa4ab4-71ea-47ab-afa2-e2decb864e87,.fffe3eb6-b667-4172-89f5-297566e07a4f{stroke:#ff9c1f;}.a3a17ede-7aa6-40db-81df-5326bd95f776,.a7851019-5f38-4ff8-b712-c784044b66b2,.af9b0878-335d-4a2a-bdb4-3095767fa2e4,.b59ee21e-42cb-4d5c-9be3-5e8032f8a8a9,.b689c349-0954-4515-9bb2-463327a0efbc,.b7fa4ab4-71ea-47ab-afa2-e2decb864e87,.bc77acac-bf24-48fe-a54f-2c222edd1d40,.fffe3eb6-b667-4172-89f5-297566e07a4f{stroke-miterlimit:10;}.b51a992c-dfbd-4bc1-a400-3d7ac7f7e0f0,.b59ee21e-42cb-4d5c-9be3-5e8032f8a8a9{fill:#97cc52;}.b47a47c5-eea3-4b5c-88ae-5c76e6270be2,.b689c349-0954-4515-9bb2-463327a0efbc,.e61db73c-c99a-4b40-bd59-05b74d392a34{fill:#758f9b;}.af9b0878-335d-4a2a-bdb4-3095767fa2e4,.bc77acac-bf24-48fe-a54f-2c222edd1d40{stroke:#e0e0e0;}.a3a17ede-7aa6-40db-81df-5326bd95f776,.af9b0878-335d-4a2a-bdb4-3095767fa2e4,.bc77acac-bf24-48fe-a54f-2c222edd1d40{stroke-width:2px;}.af9b0878-335d-4a2a-bdb4-3095767fa2e4{fill:#d3d3d3;}.e1d5a69d-23fa-47c9-94d2-c2b5e9a3c241{fill:#fe5a59;}.b94630e9-1951-4e4d-b755-9df88c4074dd{fill:#f8db6a;}.a7851019-5f38-4ff8-b712-c784044b66b2{fill:none;opacity:0.46;}.a3a17ede-7aa6-40db-81df-5326bd95f776{stroke:#fff;}</style></defs><title>s1-6</title><g class="fa7a5c60-89b8-486b-b8c3-3fbf1d49581d"><polygon class="e346f132-3c6d-4dc3-9a8a-946d4195b07a" points="186.76 68.39 92.14 68.39 92.14 246.97 222.02 246.97 222.02 103.65 186.76 68.39"/><rect class="e346f132-3c6d-4dc3-9a8a-946d4195b07a" x="92.14" y="68.39" width="60.04" height="178.58"/></g><polygon class="b6a12ee3-c5a0-44fe-922b-8ba5bfeffcbe" points="222.02 103.65 186.76 68.39 152.18 68.39 152.18 246.97 222.02 246.97 222.02 103.65"/><polygon class="b7fa4ab4-71ea-47ab-afa2-e2decb864e87" points="186.76 103.65 222.02 103.65 186.76 68.39 186.76 103.65"/><circle class="b59ee21e-42cb-4d5c-9be3-5e8032f8a8a9" cx="114.77" cy="117.09" r="16.23"/><polygon class="fffe3eb6-b667-4172-89f5-297566e07a4f" points="111.03 126.32 103.43 118.21 106.43 115.4 111.13 120.41 123.16 108.39 126.06 111.29 111.03 126.32"/><rect class="b7fa4ab4-71ea-47ab-afa2-e2decb864e87" x="140.85" y="111.6" width="64.94" height="4.11"/><rect class="b689c349-0954-4515-9bb2-463327a0efbc" x="152.18" y="111.6" width="53.6" height="4.11"/><rect class="b7fa4ab4-71ea-47ab-afa2-e2decb864e87" x="140.85" y="120.45" width="64.94" height="4.11"/><rect class="b689c349-0954-4515-9bb2-463327a0efbc" x="152.18" y="120.45" width="53.6" height="4.11"/><circle class="b51a992c-dfbd-4bc1-a400-3d7ac7f7e0f0" cx="114.77" cy="165.8" r="16.23"/><polygon class="a481555c-ee99-40ad-8fc6-bc338b32b58b" points="111.03 175.03 103.43 166.92 106.43 164.11 111.13 169.12 123.16 157.09 126.06 160 111.03 175.03"/><rect class="b13a6b2e-afb3-4ac8-98c7-1be8f581fd05" x="140.85" y="160.3" width="64.94" height="4.11"/><rect class="b47a47c5-eea3-4b5c-88ae-5c76e6270be2" x="152.18" y="160.3" width="53.6" height="4.11"/><rect class="b13a6b2e-afb3-4ac8-98c7-1be8f581fd05" x="140.85" y="169.16" width="64.94" height="4.11"/><rect class="b47a47c5-eea3-4b5c-88ae-5c76e6270be2" x="152.18" y="169.16" width="53.6" height="4.11"/><circle class="b51a992c-dfbd-4bc1-a400-3d7ac7f7e0f0" cx="114.77" cy="214.5" r="16.23"/><polygon class="a481555c-ee99-40ad-8fc6-bc338b32b58b" points="111.03 223.73 103.43 215.62 106.43 212.81 111.13 217.82 123.16 205.79 126.06 208.7 111.03 223.73"/><rect class="b13a6b2e-afb3-4ac8-98c7-1be8f581fd05" x="140.85" y="209" width="64.94" height="4.11"/><rect class="b47a47c5-eea3-4b5c-88ae-5c76e6270be2" x="152.18" y="209" width="53.6" height="4.11"/><rect class="b7fa4ab4-71ea-47ab-afa2-e2decb864e87" x="140.85" y="217.86" width="64.94" height="4.11"/><rect class="b689c349-0954-4515-9bb2-463327a0efbc" x="152.18" y="217.86" width="53.6" height="4.11"/><polygon class="e346f132-3c6d-4dc3-9a8a-946d4195b07a" points="186.76 68.39 92.14 68.39 92.14 246.97 222.02 246.97 222.02 103.65 186.76 68.39"/><rect class="bc77acac-bf24-48fe-a54f-2c222edd1d40" x="92.14" y="68.39" width="60.04" height="178.58"/><polygon class="af9b0878-335d-4a2a-bdb4-3095767fa2e4" points="222.02 103.65 186.76 68.39 152.18 68.39 152.18 246.97 222.02 246.97 222.02 103.65"/><polygon class="be386f82-c83f-4a12-96e3-1019d1f32692" points="186.76 103.65 222.02 103.65 186.76 68.39 186.76 103.65"/><circle class="e1d5a69d-23fa-47c9-94d2-c2b5e9a3c241" cx="114.77" cy="117.09" r="16.23"/><rect class="be386f82-c83f-4a12-96e3-1019d1f32692" x="140.85" y="111.6" width="64.94" height="4.11"/><rect class="e61db73c-c99a-4b40-bd59-05b74d392a34" x="152.18" y="111.6" width="53.6" height="4.11"/><rect class="be386f82-c83f-4a12-96e3-1019d1f32692" x="140.85" y="120.45" width="64.94" height="4.11"/><rect class="e61db73c-c99a-4b40-bd59-05b74d392a34" x="152.18" y="120.45" width="53.6" height="4.11"/><circle class="e1d5a69d-23fa-47c9-94d2-c2b5e9a3c241" cx="114.77" cy="165.8" r="16.23"/><rect class="be386f82-c83f-4a12-96e3-1019d1f32692" x="140.85" y="160.3" width="64.94" height="4.11"/><rect class="e61db73c-c99a-4b40-bd59-05b74d392a34" x="152.18" y="160.3" width="53.6" height="4.11"/><rect class="be386f82-c83f-4a12-96e3-1019d1f32692" x="140.85" y="169.16" width="64.94" height="4.11"/><rect class="e61db73c-c99a-4b40-bd59-05b74d392a34" x="152.18" y="169.16" width="53.6" height="4.11"/><circle class="b94630e9-1951-4e4d-b755-9df88c4074dd" cx="114.77" cy="214.5" r="16.23"/><rect class="be386f82-c83f-4a12-96e3-1019d1f32692" x="140.85" y="209" width="64.94" height="4.11"/><rect class="e61db73c-c99a-4b40-bd59-05b74d392a34" x="152.18" y="209" width="53.6" height="4.11"/><rect class="be386f82-c83f-4a12-96e3-1019d1f32692" x="140.85" y="217.86" width="64.94" height="4.11"/><rect class="e61db73c-c99a-4b40-bd59-05b74d392a34" x="152.18" y="217.86" width="53.6" height="4.11"/><circle class="a7851019-5f38-4ff8-b712-c784044b66b2" cx="157.38" cy="157.38" r="156.88"/><path class="a3a17ede-7aa6-40db-81df-5326bd95f776" d="M209.33,160.34a.75.75,0,0,1-.29-.61,3.8,3.8,0,0,1,.34-1.69,4.52,4.52,0,0,1,.75-1.17,10,10,0,0,1,1.28-1.16,6.78,6.78,0,0,0,1.23-1.15,1.61,1.61,0,0,0,.36-1c0-1.54-1-2.31-3-2.31a5.9,5.9,0,0,0-1.46.18,4.78,4.78,0,0,0-1.26.53,1.19,1.19,0,0,1-.56.17.93.93,0,0,1-.88-.88,1,1,0,0,1,.54-.83,6.08,6.08,0,0,1,1.78-.79,7.8,7.8,0,0,1,2-.24,5.33,5.33,0,0,1,3.52,1.1,3.68,3.68,0,0,1,1.32,3,3.45,3.45,0,0,1-.3,1.45,3.68,3.68,0,0,1-.69,1.05A10.71,10.71,0,0,1,212.8,157a7.83,7.83,0,0,0-1.42,1.37,2.27,2.27,0,0,0-.42,1.37.76.76,0,0,1-.29.6,1,1,0,0,1-1.34,0Z" transform="translate(-95.62 -41.42)"/><path class="a3a17ede-7aa6-40db-81df-5326bd95f776" d="M209.06,167.27a1.26,1.26,0,0,1,0-1.82,1.2,1.2,0,0,1,.9-.39,1.31,1.31,0,0,1,1.3,1.29,1.28,1.28,0,0,1-.38.92,1.26,1.26,0,0,1-.92.39A1.2,1.2,0,0,1,209.06,167.27Z" transform="translate(-95.62 -41.42)"/><path class="a3a17ede-7aa6-40db-81df-5326bd95f776" d="M209.33,209.05a.75.75,0,0,1-.29-.61,3.8,3.8,0,0,1,.34-1.69,4.52,4.52,0,0,1,.75-1.17,10.68,10.68,0,0,1,1.28-1.17,6.46,6.46,0,0,0,1.23-1.14,1.63,1.63,0,0,0,.36-1c0-1.54-1-2.31-3-2.31a5.9,5.9,0,0,0-1.46.18,4.47,4.47,0,0,0-1.26.53,1.19,1.19,0,0,1-.56.17.93.93,0,0,1-.88-.88,1,1,0,0,1,.54-.83,6.11,6.11,0,0,1,1.78-.8,8.29,8.29,0,0,1,2-.23,5.33,5.33,0,0,1,3.52,1.1,3.67,3.67,0,0,1,1.32,3,3.48,3.48,0,0,1-.3,1.45,3.83,3.83,0,0,1-.69,1.05,10.71,10.71,0,0,1-1.18,1,7.51,7.51,0,0,0-1.42,1.37,2.25,2.25,0,0,0-.42,1.37.76.76,0,0,1-.29.6,1,1,0,0,1-.67.26A1,1,0,0,1,209.33,209.05Z" transform="translate(-95.62 -41.42)"/><path class="a3a17ede-7aa6-40db-81df-5326bd95f776" d="M209.06,216a1.26,1.26,0,0,1-.39-.92,1.24,1.24,0,0,1,.39-.9,1.2,1.2,0,0,1,.9-.39,1.31,1.31,0,0,1,1.3,1.29,1.29,1.29,0,0,1-.38.92,1.25,1.25,0,0,1-.92.38A1.19,1.19,0,0,1,209.06,216Z" transform="translate(-95.62 -41.42)"/><path class="a3a17ede-7aa6-40db-81df-5326bd95f776" d="M209.33,257.75a.75.75,0,0,1-.29-.61,3.8,3.8,0,0,1,.34-1.69,4.52,4.52,0,0,1,.75-1.17,10,10,0,0,1,1.28-1.16,6.78,6.78,0,0,0,1.23-1.15,1.63,1.63,0,0,0,.36-1c0-1.54-1-2.31-3-2.31a5.9,5.9,0,0,0-1.46.18,4.47,4.47,0,0,0-1.26.53,1.19,1.19,0,0,1-.56.17.93.93,0,0,1-.88-.88,1,1,0,0,1,.54-.83,6.11,6.11,0,0,1,1.78-.8,8.29,8.29,0,0,1,2-.23,5.33,5.33,0,0,1,3.52,1.1,3.67,3.67,0,0,1,1.32,3,3.48,3.48,0,0,1-.3,1.45,3.68,3.68,0,0,1-.69,1,10.71,10.71,0,0,1-1.18,1.05,7.51,7.51,0,0,0-1.42,1.37,2.27,2.27,0,0,0-.42,1.37.76.76,0,0,1-.29.6,1,1,0,0,1-.67.26A1,1,0,0,1,209.33,257.75Z" transform="translate(-95.62 -41.42)"/><path class="a3a17ede-7aa6-40db-81df-5326bd95f776" d="M209.06,264.68a1.26,1.26,0,0,1-.39-.92,1.24,1.24,0,0,1,.39-.9,1.2,1.2,0,0,1,.9-.39,1.31,1.31,0,0,1,1.3,1.29,1.29,1.29,0,0,1-.38.92,1.25,1.25,0,0,1-.92.38A1.19,1.19,0,0,1,209.06,264.68Z" transform="translate(-95.62 -41.42)"/></svg>