<svg id="aaf16c52-a03a-4ff0-88e1-43fbd845f376" data-name="圖層 14" xmlns="http://www.w3.org/2000/svg" viewBox="0 0 314.76 314.76"><defs><style>.e6e14a87-2a92-47d1-9c78-208089f9af09{fill:none;stroke:#ff9c1f;stroke-miterlimit:10;opacity:0.46;}.b95c0eda-bda7-4e02-b57e-ea72398d14aa{fill:#ffd5b3;}.e043c207-d2b4-4640-925d-2d24e59ed333{fill:#424f59;}.b26a9eee-7ec1-45d6-b5f4-7a84c3f0d8cc{fill:#c5ccd3;}.a6c7b069-ce6f-4c30-b9be-899be77abd0b{fill:#ffc502;}.f86a3e39-2862-4e89-b61d-981448bb1f36{fill:#9ea7af;}.bc5687d0-fd1e-43c7-a9ec-c52235c4bab9{fill:#f7c39f;}.ac264ee1-3756-4a79-80c8-1c231a51b79d{fill:#fcdb67;}.b1a6bd0b-64db-4e50-8a07-3b0d729a05ec{fill:#775436;}</style></defs><title>s1-8</title><circle class="e6e14a87-2a92-47d1-9c78-208089f9af09" cx="157.38" cy="157.38" r="156.88"/><path class="b95c0eda-bda7-4e02-b57e-ea72398d14aa" d="M275.85,286.37a8.09,8.09,0,0,1,.22-10.48l-.17-1a8.09,8.09,0,0,1-10.57-12.2l3.65-3.64a.36.36,0,0,0,0-.49.34.34,0,0,0-.26-.12.35.35,0,0,0-.22.08,8.12,8.12,0,0,1-5.09,1.79,8.08,8.08,0,0,1-5.72-13.81l10.84-10.84c.14-.14.29-.27.44-.4l-.13-.8a8.45,8.45,0,0,1-9.31-.55,1.81,1.81,0,0,1-.86.23H241.93a1.68,1.68,0,0,1-.6-.11l-3.54,9.27a.36.36,0,0,0,0,.27.37.37,0,0,0,.2.19,18.64,18.64,0,0,1,5.1,2.89c3.07,2.46,6.77,7.11,6.93,15.32v24.39Z" transform="translate(-95.62 -41.42)"/><path class="e043c207-d2b4-4640-925d-2d24e59ed333" d="M258.88,233.28a8.06,8.06,0,0,1-.9-10.37H242a18.46,18.46,0,0,1,.83,7,1.43,1.43,0,0,1-.09.41l-1.55,4.07a1.77,1.77,0,0,0,.73.16h16.75a1.75,1.75,0,0,0,1.16-.44A8.31,8.31,0,0,1,258.88,233.28Z" transform="translate(-95.62 -41.42)"/><path class="b26a9eee-7ec1-45d6-b5f4-7a84c3f0d8cc" d="M250.3,204.73a35.85,35.85,0,0,1-14.14-2.89v12.87a17,17,0,0,1,6,8.55h15.63a7.67,7.67,0,0,1,1.13-1.42l5.57-5.57V201.84A35.86,35.86,0,0,1,250.3,204.73Z" transform="translate(-95.62 -41.42)"/><path class="a6c7b069-ce6f-4c30-b9be-899be77abd0b" d="M286.68,168.74a36.38,36.38,0,1,0-36.38,36.35A36.36,36.36,0,0,0,286.68,168.74Z" transform="translate(-95.62 -41.42)"/><path class="f86a3e39-2862-4e89-b61d-981448bb1f36" d="M217.49,184.44a36.39,36.39,0,0,0,65.62,0Z" transform="translate(-95.62 -41.42)"/><path class="bc5687d0-fd1e-43c7-a9ec-c52235c4bab9" d="M250.38,286.37H215.82a1.77,1.77,0,0,1-1.66-1.16,54.52,54.52,0,0,1,0-36.24c2.89-8.57,17.29-35.38,17.29-35.38a1.74,1.74,0,0,1,1.58-1,1.76,1.76,0,0,1,.74.16,17.54,17.54,0,0,1,9.45,17.16,1.86,1.86,0,0,1-.11.52l-5,13a19.22,19.22,0,0,1,5.2,2.94c3.15,2.53,6.9,7.27,7.06,15.6Z" transform="translate(-95.62 -41.42)"/><path class="b95c0eda-bda7-4e02-b57e-ea72398d14aa" d="M281.42,210.75a8.45,8.45,0,0,1,0,11.95l-10.84,10.83a8.45,8.45,0,0,1-12-11.95l10.85-10.83A8.45,8.45,0,0,1,281.42,210.75Z" transform="translate(-95.62 -41.42)"/><path class="b95c0eda-bda7-4e02-b57e-ea72398d14aa" d="M287.88,251.61a8.45,8.45,0,0,1,0,11.95L277,274.4a8.45,8.45,0,0,1-12-11.95l10.85-10.84A8.47,8.47,0,0,1,287.88,251.61Z" transform="translate(-95.62 -41.42)"/><path class="bc5687d0-fd1e-43c7-a9ec-c52235c4bab9" d="M293.39,270a8.45,8.45,0,0,1,0,11.95l-5.29,5.28a8.45,8.45,0,0,1-12-12l5.28-5.28A8.48,8.48,0,0,1,293.39,270Z" transform="translate(-95.62 -41.42)"/><path class="bc5687d0-fd1e-43c7-a9ec-c52235c4bab9" d="M280.24,235.42a8.43,8.43,0,0,1,0,12L269.4,258.2a8.45,8.45,0,1,1-12-11.94l10.85-10.84A8.45,8.45,0,0,1,280.24,235.42Z" transform="translate(-95.62 -41.42)"/><path class="a6c7b069-ce6f-4c30-b9be-899be77abd0b" d="M250.3,121.84a2.65,2.65,0,0,1-2.66-2.65V111a2.66,2.66,0,0,1,5.32,0v8.16A2.65,2.65,0,0,1,250.3,121.84Z" transform="translate(-95.62 -41.42)"/><path class="ac264ee1-3756-4a79-80c8-1c231a51b79d" d="M269.34,125.64a2.61,2.61,0,0,1-1-.2,2.66,2.66,0,0,1-1.43-3.47l3.13-7.53a2.66,2.66,0,0,1,4.91,2L271.79,124A2.64,2.64,0,0,1,269.34,125.64Z" transform="translate(-95.62 -41.42)"/><path class="a6c7b069-ce6f-4c30-b9be-899be77abd0b" d="M285.46,136.46a2.62,2.62,0,0,1-1.88-.79,2.65,2.65,0,0,1,0-3.75l5.79-5.75a2.66,2.66,0,0,1,3.74,3.77l-5.79,5.75A2.64,2.64,0,0,1,285.46,136.46Z" transform="translate(-95.62 -41.42)"/><path class="ac264ee1-3756-4a79-80c8-1c231a51b79d" d="M296.19,152.63a2.65,2.65,0,0,1-1-5.11l7.55-3.09a2.65,2.65,0,1,1,2,4.91l-7.55,3.09A2.56,2.56,0,0,1,296.19,152.63Z" transform="translate(-95.62 -41.42)"/><path class="ac264ee1-3756-4a79-80c8-1c231a51b79d" d="M204.85,151.58a2.69,2.69,0,0,1-1.06-.22l-7.48-3.26a2.66,2.66,0,1,1,2.13-4.87l7.47,3.26a2.65,2.65,0,0,1-1.06,5.09Z" transform="translate(-95.62 -41.42)"/><path class="a6c7b069-ce6f-4c30-b9be-899be77abd0b" d="M216,135.66a2.61,2.61,0,0,1-1.91-.82L208.38,129a2.66,2.66,0,0,1,3.83-3.68l5.66,5.88a2.66,2.66,0,0,1-1.92,4.5Z" transform="translate(-95.62 -41.42)"/><path class="ac264ee1-3756-4a79-80c8-1c231a51b79d" d="M232.32,125.22a2.67,2.67,0,0,1-2.48-1.7l-3-7.6a2.65,2.65,0,0,1,4.94-1.92l3,7.6a2.65,2.65,0,0,1-2.47,3.62Z" transform="translate(-95.62 -41.42)"/><path class="a6c7b069-ce6f-4c30-b9be-899be77abd0b" d="M308.05,171.68h-8.17a2.66,2.66,0,0,1,0-5.31h8.17a2.66,2.66,0,0,1,0,5.31Z" transform="translate(-95.62 -41.42)"/><path class="a6c7b069-ce6f-4c30-b9be-899be77abd0b" d="M200.72,171.68h-8.16a2.66,2.66,0,0,1,0-5.31h8.16a2.66,2.66,0,1,1,0,5.31Z" transform="translate(-95.62 -41.42)"/><path class="b1a6bd0b-64db-4e50-8a07-3b0d729a05ec" d="M239.27,158.88a2.66,2.66,0,0,1-2.66-2.66v-2.59a2.66,2.66,0,0,1,5.31,0v2.59A2.66,2.66,0,0,1,239.27,158.88Z" transform="translate(-95.62 -41.42)"/><path class="b1a6bd0b-64db-4e50-8a07-3b0d729a05ec" d="M261.34,158.88a2.65,2.65,0,0,1-2.65-2.66v-2.59a2.66,2.66,0,0,1,5.31,0v2.59A2.66,2.66,0,0,1,261.34,158.88Z" transform="translate(-95.62 -41.42)"/><path class="b1a6bd0b-64db-4e50-8a07-3b0d729a05ec" d="M250.31,173.33a7.85,7.85,0,0,1-7.86-7.83,2.66,2.66,0,0,1,5.32,0,2.54,2.54,0,0,0,5.07,0,2.66,2.66,0,1,1,5.31,0A7.84,7.84,0,0,1,250.31,173.33Z" transform="translate(-95.62 -41.42)"/><path class="e043c207-d2b4-4640-925d-2d24e59ed333" d="M253.79,215.06h-6.61a2.66,2.66,0,1,1,0-5.31h6.61a2.66,2.66,0,0,1,0,5.31Z" transform="translate(-95.62 -41.42)"/></svg>